<svg width="565" height="564" viewBox="0 0 565 564" fill="none" xmlns="http://www.w3.org/2000/svg">
<path d="M494.919 483.313C483.423 495.414 472.546 503.218 463.953 509.383C362.939 581.861 243.412 560.735 218.01 555.575C180.498 547.957 107.989 533.228 55.565 471.579C-23.7471 378.31 -11.3976 231.367 50.1224 134.37C61.3762 116.628 120.817 18.1519 241.632 2.35995C314.746 -7.19778 399.976 12.0788 461.695 63.7873C591.252 172.331 582.028 391.605 494.919 483.313Z" fill="url(#paint0_linear_52_3887)"/>
<path d="M9.94952 190.868C9.39761 190.614 9.01288 190.062 9.01087 189.426C9.00281 187.331 9.03907 185.2 9.11762 183.093C9.14985 182.227 9.88909 181.564 10.7673 181.612C12.8984 181.715 12.1733 183.798 12.1934 189.468C12.1974 190.334 11.4864 191.027 10.6062 191.015C10.3745 191.013 10.1509 190.961 9.94952 190.868Z" fill="#91B3FA"/>
<path d="M11.142 163.486C11.8148 159.516 12.6567 155.525 13.6437 151.626C13.8552 150.788 14.7193 150.29 15.5734 150.514C17.8959 151.136 16.2663 152.355 14.2843 164.054C14.1392 164.906 13.3194 165.47 12.4513 165.313C11.571 165.151 10.999 164.326 11.142 163.486ZM19.6805 132.903C21.165 129.142 22.8268 125.372 24.5651 121.824C25.4957 119.917 28.3338 121.401 27.4375 123.226C25.7072 126.763 24.1039 130.401 22.6516 134.083C22.3353 134.887 21.4128 135.272 20.593 134.945C19.7631 134.617 19.3663 133.699 19.6805 132.903ZM34.3303 104.759C36.5501 101.408 38.933 98.1023 41.4186 94.9359C42.6996 93.3043 45.2256 95.2561 43.9525 96.8816C41.5193 99.9856 39.1827 103.225 37.0073 106.508C35.8632 108.232 33.1903 106.48 34.3303 104.759ZM54.5839 82.4695C53.9574 81.8511 53.9514 80.8561 54.5698 80.2518C57.4482 77.4298 60.4797 74.6863 63.5816 72.098C65.1769 70.7666 67.2597 73.1756 65.6664 74.5071C62.6269 77.0451 59.6558 79.7321 56.8358 82.4957C56.2175 83.1 55.2083 83.0899 54.5839 82.4695ZM79.0976 62.5926C78.6102 61.8635 78.8096 60.8926 79.5428 60.4253C82.957 58.2498 86.5021 56.1812 90.0774 54.2777C91.9185 53.3028 93.4695 56.0644 91.6284 57.0453C88.1236 58.9105 84.651 60.9369 81.3053 63.068C80.5741 63.5373 79.5851 63.3238 79.0976 62.5926ZM108.099 48.9681C107.737 48.8009 107.436 48.5028 107.275 48.11C106.947 47.3003 107.342 46.3938 108.158 46.0836C111.963 44.6414 115.868 43.3301 119.772 42.188C120.612 41.9423 121.504 42.4156 121.77 43.2475C122.034 44.0794 121.569 44.9516 120.729 45.1973C116.906 46.3173 113.076 47.6024 109.348 49.0164C108.929 49.1715 108.48 49.1433 108.099 48.9681ZM138.851 40.7659C138.388 40.5524 138.033 40.1274 137.937 39.5977C137.782 38.7416 138.358 37.9359 139.222 37.7969C143.25 37.1503 147.359 36.6548 151.434 36.3204C152.308 36.2479 153.09 36.8905 153.177 37.7546C153.265 38.6167 152.627 39.3761 151.751 39.4466C147.758 39.7729 143.734 40.2604 139.786 40.8928C139.457 40.9492 139.133 40.8969 138.851 40.7659ZM169.825 37.4464C169.849 36.5803 170.582 35.9115 171.46 35.9498C175.549 36.1311 179.691 36.4755 183.767 36.9731C185.866 37.2349 185.518 40.3409 183.429 40.0871C179.435 39.5997 175.378 39.2613 171.372 39.084C170.495 39.0457 169.8 38.3146 169.825 37.4464ZM269.302 78.6162C260.292 70.6679 258.141 70.6336 259.587 68.7543C260.112 68.0694 261.11 67.9466 261.815 68.4743C265.096 70.9458 268.321 73.5765 271.4 76.2937C272.984 77.6876 270.889 80.0141 269.302 78.6162ZM201.6 41.7831C201.803 40.9432 202.661 40.4376 203.517 40.6531C207.498 41.6542 211.494 42.8225 215.396 44.1258C217.402 44.7965 216.423 47.7655 214.421 47.0948C210.596 45.8177 206.68 44.6736 202.78 43.6907C201.914 43.4751 201.398 42.615 201.6 41.7831ZM243.462 60.105C233.051 54.1307 230.916 54.5194 231.939 52.3742C232.587 51.0146 234.247 51.6571 234.056 51.6511C237.778 53.4236 241.47 55.3594 245.03 57.3998C245.795 57.8389 246.065 58.8018 245.632 59.547C245.219 60.2601 244.278 60.5582 243.462 60.105Z" fill="#91B3FA"/>
<path d="M287.332 97.4014C283.956 93.242 281.782 91.7595 283.408 90.3797C284.066 89.8197 285.074 89.8942 285.656 90.5589C289.32 94.7204 291.187 96.4084 289.573 97.6693C289.088 98.048 287.886 98.0802 287.332 97.4014Z" fill="#91B3FA"/>
<path d="M321.804 214.346C321.185 214.06 320.791 213.406 320.877 212.709C321.133 210.662 321.348 208.59 321.518 206.543C321.59 205.681 322.358 205.05 323.236 205.137C324.11 205.226 324.765 205.991 324.694 206.853C324.521 208.94 324.299 211.057 324.04 213.146C323.933 214.004 323.137 214.602 322.265 214.481C322.1 214.457 321.945 214.411 321.804 214.346Z" fill="#91B3FA"/>
<path d="M98.0421 330.441C94.07 328.477 90.1321 326.326 86.3392 324.046C85.5818 323.591 85.3321 322.624 85.7812 321.887C87.0462 319.81 87.8036 321.895 99.428 327.639C100.22 328.03 100.55 328.975 100.167 329.748C99.4985 331.102 97.8508 330.435 98.0421 330.441ZM117.031 336.742C117.8 334.44 119.063 336.329 131.562 339.463C132.42 339.675 132.948 340.533 132.744 341.371C132.541 342.211 131.683 342.716 130.829 342.503C126.552 341.431 122.252 340.164 118.05 338.736C117.206 338.45 116.759 337.556 117.031 336.742ZM68.5773 311.674C65.1309 308.909 61.755 305.964 58.5462 302.922C57.9077 302.316 57.8795 301.323 58.4838 300.702C60.1879 298.956 60.4578 301.15 70.5634 309.253C71.2503 309.805 71.3651 310.794 70.8172 311.463C70.2673 312.129 69.2662 312.224 68.5773 311.674ZM151.604 346.207C150.999 345.929 150.607 345.296 150.673 344.61C150.758 343.749 151.535 343.129 152.409 343.228C156.718 343.709 161.089 344.013 165.402 344.134C166.284 344.158 166.987 344.88 166.977 345.746C166.967 346.612 166.248 347.295 165.367 347.27C160.964 347.148 156.502 346.837 152.105 346.346C151.928 346.326 151.759 346.277 151.604 346.207ZM186.032 346.275C185.544 346.05 185.178 345.589 185.105 345.025C184.994 344.164 185.613 343.389 186.485 343.294C190.767 342.833 195.082 342.184 199.312 341.367C200.172 341.199 201.018 341.755 201.201 342.605C201.385 343.455 200.837 344.279 199.977 344.446C195.66 345.28 191.257 345.943 186.886 346.414C186.584 346.447 186.292 346.394 186.032 346.275ZM219.515 338.897C219.136 338.722 218.824 338.404 218.671 337.985C218.373 337.165 218.802 336.273 219.628 335.993C223.691 334.617 227.743 333.054 231.673 331.346C232.473 330.999 233.418 331.36 233.784 332.153C234.151 332.947 233.8 333.874 233.001 334.22C228.99 335.962 224.855 337.558 220.709 338.962C220.305 339.101 219.878 339.066 219.515 338.897ZM250.444 324.477C250.17 324.35 249.929 324.147 249.755 323.877C249.284 323.137 249.504 322.171 250.247 321.719C253.895 319.502 257.49 317.099 260.933 314.583C261.634 314.071 262.631 314.22 263.164 314.921C263.696 315.62 263.561 316.601 262.86 317.113C259.347 319.681 255.679 322.132 251.955 324.396C251.482 324.682 250.916 324.694 250.444 324.477ZM276.855 303.371C275.105 301.621 277.323 301.452 285.648 291.85C287.003 290.285 289.443 292.347 288.085 293.912C285.245 297.188 282.225 300.382 279.107 303.408C278.489 304.006 277.482 303.996 276.855 303.371ZM298.62 277.409C296.525 276.076 298.632 275.441 304.582 264.224C305.547 262.405 308.381 263.885 307.41 265.714C305.38 269.544 303.162 273.324 300.815 276.956C300.34 277.691 299.345 277.879 298.62 277.409ZM313.848 247.238C313.098 246.893 312.722 246.037 313.004 245.268C314.462 241.263 315.759 237.164 316.863 233.087C317.089 232.253 317.961 231.77 318.811 232.008C319.663 232.249 320.166 233.111 319.941 233.945C318.815 238.107 317.489 242.288 316.003 246.373C315.709 247.185 314.796 247.594 313.968 247.29C313.926 247.272 313.886 247.256 313.848 247.238Z" fill="#91B3FA"/>
<path d="M43.8562 286.961C40.3836 282.634 38.601 280.87 40.2748 279.683C42.0152 278.449 42.7866 280.608 46.3418 285.041C46.8917 285.726 46.781 286.713 46.0961 287.243C45.4092 287.773 44.4061 287.646 43.8562 286.961Z" fill="#91B3FA"/>
<path d="M64.0409 248.675L86.8405 247.477C93.1532 256.064 100.884 263.746 109.87 270.124C109.209 291.978 107.614 293.465 109.888 294.406L135.32 304.926C136.063 305.232 136.915 305.045 137.439 304.459L152.411 287.72C163.268 289.551 174.151 289.569 184.668 287.944L199.992 304.914C200.53 305.508 201.384 305.708 202.122 305.412L227.344 295.26C228.081 294.964 228.539 294.234 228.482 293.447L226.869 270.959C235.476 264.888 243.138 257.403 249.457 248.661L272.269 250.19C273.068 250.245 273.806 249.791 274.106 249.066L284.344 224.188C284.644 223.461 284.439 222.619 283.833 222.091L266.58 207.048C268.25 196.381 268.081 185.657 266.246 175.267C282.501 160.46 284.628 160.597 283.673 158.374C272.704 134.007 273.566 132.059 271.068 132.19L248.269 133.388C241.956 124.802 234.225 117.119 225.239 110.742C225.9 88.8991 227.497 87.4005 225.221 86.4598C199.773 76.4408 199.277 74.6058 197.668 76.4066L182.696 93.1452C171.839 91.3142 160.956 91.2941 150.439 92.9216C135.312 76.8457 135.262 74.5394 132.988 75.4538C108.206 85.9402 106.453 84.9894 106.627 87.4186L108.24 109.906C99.6331 115.977 91.9708 123.462 85.6521 132.206C63.8455 131.193 61.936 129.529 61.0014 131.801C51.3167 156.595 49.4092 157.149 51.2744 158.776L68.5267 173.821C66.8569 184.487 67.0281 195.211 68.8611 205.602C52.6622 220.359 50.4747 220.262 51.4335 222.496C62.4053 246.859 61.5452 248.806 64.0409 248.675Z" fill="#91B3FA"/>
<path d="M141.067 186.422C143.057 172.069 156.559 162.189 171.164 164.4C185.768 166.616 196.033 180.087 194.045 194.441C192.055 208.795 178.553 218.675 163.947 216.463C149.338 214.254 139.077 200.772 141.067 186.422ZM164.27 214.137L164.284 214.143L164.27 214.137ZM170.52 169.053C158.666 167.259 147.46 175.175 145.803 187.139C144.167 198.929 152.597 210 164.594 211.812C176.589 213.627 187.678 205.514 189.313 193.726C190.947 181.918 182.493 170.862 170.52 169.053Z" fill="#BDD0FB"/>
<path d="M139.897 251.243C136.296 249.584 132.837 247.628 129.59 245.406C128.613 244.739 128.281 243.496 128.748 242.479C128.805 242.358 128.871 242.24 128.95 242.127C129.689 241.063 131.177 240.809 132.267 241.553C136.002 244.107 140.038 246.286 144.26 248.035C176.065 261.192 212.244 247.275 226.201 216.993C226.557 216.219 226.898 215.436 227.226 214.64C240.436 182.538 224.444 145.786 191.884 132.306C159.365 118.855 122.109 133.69 108.92 165.701C101.08 184.758 105.797 198.254 104.897 200.21C103.924 202.323 100.73 201.841 100.359 199.537C98.3366 186.946 99.9259 173.633 105.59 161.34C130.033 108.302 207.819 110.472 231.134 164.789C238.309 181.505 238.496 199.859 231.659 216.475C231.307 217.335 230.936 218.185 230.55 219.025C223.463 234.406 210.91 246.322 194.939 252.752C178.096 259.53 159.466 259.395 142.481 252.369C141.609 252.013 140.749 251.636 139.897 251.243Z" fill="#BDD0FB"/>
<path d="M338.424 151.567C342.277 156.109 346.884 160.071 352.133 163.234L352.389 175.978C352.417 177.392 353.626 176.846 367.677 181.65C368.978 182.069 368.833 180.855 376.492 171.089C382.601 171.591 388.652 171.067 394.435 169.631L403.634 178.468C404.657 179.449 405.122 178.206 418.455 171.669C418.854 171.466 419.077 171.031 419.015 170.59L417.218 157.962C421.76 154.109 425.722 149.502 428.885 144.251C441.059 143.752 442.179 144.594 442.606 143.268C447.003 128.767 448.035 128.373 446.935 127.547L436.741 119.892C437.242 113.783 436.718 107.73 435.282 101.949L444.119 92.7501C445.1 91.7309 443.857 91.2616 437.321 77.9291C436.702 76.7185 435.995 77.6672 423.612 79.1659C419.758 74.6237 415.154 70.6616 409.9 67.4992L409.645 54.7549C409.616 53.3388 408.408 53.8867 394.356 49.0827C393.063 48.6657 393.238 49.8279 385.544 59.6455C379.434 59.144 373.382 59.6677 367.601 61.1038L358.401 52.2672C358.079 51.957 357.596 51.8865 357.197 52.09L343.58 59.0654C343.184 59.2688 342.958 59.7039 343.02 60.1451L344.817 72.7726C340.275 76.6259 336.313 81.2305 333.15 86.4837C320.976 86.9833 319.856 86.1413 319.429 87.4667C315.034 101.961 313.999 102.36 315.1 103.188L325.295 110.842C324.793 116.952 325.317 123.005 326.753 128.786C318.497 137.747 317.103 137.944 317.739 139.187L324.715 152.804C325.339 154.022 326.104 153.06 338.424 151.567Z" fill="#91B3FA"/>
<path d="M365.085 114.335C365.657 105.531 373.243 98.8656 382.05 99.4356C390.852 100.006 397.519 107.593 396.949 116.398C396.379 125.182 388.769 131.865 379.985 131.297C371.201 130.729 364.517 123.121 365.085 114.335ZM380.138 128.925L380.152 128.931L380.138 128.925ZM369.835 114.641C369.436 120.809 374.13 126.151 380.293 126.55C390.195 127.19 396.011 115.453 389.438 107.972C382.896 100.525 370.48 104.677 369.835 114.641Z" fill="#BDD0FB"/>
<path d="M300.887 139.25C300.272 137.195 299.732 135.088 299.281 132.988C299.098 132.131 299.642 131.287 300.498 131.104C302.653 130.641 302.347 133.048 303.926 138.343C304.178 139.183 303.698 140.066 302.861 140.317C302.025 140.567 301.138 140.094 300.887 139.25Z" fill="#91B3FA"/>
<path d="M297.494 111.86C297.671 107.652 298.174 103.271 299.049 98.8879C299.46 96.8253 302.57 97.4577 302.159 99.5103C299.889 110.867 301.661 113.626 299.008 113.514C298.128 113.473 297.457 112.73 297.494 111.86ZM306.55 80.9105C305.762 80.5278 305.434 79.577 305.817 78.7894C307.718 74.8838 309.946 71.0929 312.44 67.5236C313.642 65.8054 316.242 67.6203 315.04 69.3405C312.641 72.7728 310.498 76.4186 308.669 80.1773C307.996 81.5611 306.356 80.9064 306.55 80.9105ZM327.045 54.4711C326.844 54.3784 326.658 54.2415 326.505 54.0622C325.935 53.3955 326.014 52.3964 326.678 51.8243C329.984 48.9963 333.535 46.4059 337.235 44.1278C337.981 43.6685 338.959 43.9022 339.417 44.6455C339.876 45.3907 339.644 46.3697 338.899 46.8269C335.34 49.0205 331.922 51.5121 328.741 54.2334C328.254 54.6504 327.589 54.7209 327.045 54.4711ZM356.345 38.3488C355.948 38.1655 355.63 37.8211 355.491 37.3719C355.233 36.534 355.704 35.6477 356.542 35.3919C360.7 34.1189 364.99 33.1641 369.298 32.5598C370.167 32.439 370.968 33.0432 371.091 33.9114C371.212 34.7775 370.608 35.5812 369.74 35.7021C365.596 36.2842 361.469 37.2007 357.471 38.4254C357.084 38.5442 356.685 38.506 356.345 38.3488ZM388.738 33.6838C388.837 32.8136 389.623 32.1872 390.493 32.2859C394.827 32.7774 399.144 33.6092 403.324 34.7614C405.342 35.3073 404.51 38.377 402.48 37.8191C398.459 36.7112 394.306 35.9096 390.134 35.4382C389.244 35.3335 388.642 34.5358 388.738 33.6838Z" fill="#91B3FA"/>
<path d="M426.609 49.069C421.817 45.7676 419.706 45.4272 420.782 43.5741C421.221 42.8167 422.176 42.5448 422.949 42.998C424.798 44.0696 426.635 45.2338 428.41 46.4565C429.131 46.954 429.312 47.941 428.815 48.6621C428.325 49.3732 427.348 49.5726 426.609 49.069Z" fill="#91B3FA"/>
<path d="M460.822 105.096C460.08 99.303 458.928 97.5204 461.025 97.0853C461.883 96.906 462.723 97.458 462.9 98.316C463.335 100.409 463.694 102.554 463.968 104.693C464.079 105.561 463.464 106.357 462.596 106.468C461.73 106.581 460.932 105.966 460.822 105.096Z" fill="#91B3FA"/>
<path d="M353.674 192.719C354.502 190.217 356.377 192.794 367.68 194.681C369.744 195.021 369.233 198.156 367.158 197.811C362.932 197.106 358.734 196.067 354.681 194.725C353.864 194.455 353.396 193.561 353.674 192.719ZM386.275 197.231C386.205 196.359 386.853 195.592 387.728 195.521C399.245 194.574 401.221 192.159 401.844 194.729C402.049 195.581 401.525 196.438 400.673 196.643C396.52 197.646 392.252 198.333 387.985 198.681C387.111 198.754 386.348 198.105 386.275 197.231ZM418.018 188.592C416.782 186.257 419.912 186.705 429.119 179.832C430.801 178.579 432.7 181.119 431.016 182.374C427.586 184.934 423.934 187.248 420.163 189.249C419.39 189.659 418.429 189.367 418.018 188.592ZM443.815 168.163C441.759 166.495 444.826 165.684 450.601 155.755C451.655 153.942 454.4 155.534 453.345 157.351C451.195 161.045 448.742 164.602 446.047 167.929C445.493 168.61 444.494 168.713 443.815 168.163ZM458.431 137.29C461.569 126.178 460 123.464 462.63 123.787C463.501 123.891 464.119 124.683 464.014 125.553C463.495 129.811 462.645 134.051 461.484 138.154C461.247 138.996 460.37 139.488 459.526 139.25C458.685 139.009 458.193 138.134 458.431 137.29Z" fill="#91B3FA"/>
<path d="M335.802 185.692C333.997 184.527 332.214 183.281 330.508 181.983C329.811 181.454 329.674 180.459 330.204 179.76C331.54 178.003 332.865 180.023 337.52 183.023C338.255 183.498 338.469 184.479 337.993 185.216C337.512 185.964 336.523 186.159 335.802 185.692Z" fill="#91B3FA"/>
<path d="M361.667 149.251C360.359 148.504 360.096 147.027 360.716 145.954C361.375 144.815 362.841 144.431 363.967 145.085C366.078 146.306 368.34 147.311 370.691 148.071C371.204 148.133 383.294 152.957 397.039 145.939C424.299 131.972 421.078 91.7333 391.893 82.3266C375.104 76.9123 357.133 85.0842 349.929 100.725C342.672 116.477 350.876 124.671 345.855 125.833C344.576 126.131 343.296 125.333 342.998 124.054C341.395 117.149 341.703 109.918 343.891 103.138C350.526 82.5502 372.699 71.1393 393.353 77.7985C415.579 84.9633 426.919 110.089 416.952 131.719C408.916 149.164 388.7 158.879 369.228 152.599C366.596 151.747 364.05 150.621 361.667 149.251Z" fill="#BDD0FB"/>
<path d="M355.161 206.138C355.101 205.395 354.341 204.752 353.056 204.235C354.454 203.463 355.226 202.639 355.161 201.828C354.964 199.376 347.203 198.003 337.826 198.76C328.45 199.515 321.009 202.116 321.206 204.565C321.267 205.308 322.026 205.951 323.311 206.469C321.913 207.24 321.142 208.064 321.206 208.876C321.267 209.619 322.026 210.261 323.311 210.779C321.913 211.551 321.142 212.374 321.206 213.184C321.267 213.927 322.026 214.57 323.311 215.088C321.913 215.859 321.142 216.683 321.206 217.495C321.293 218.578 322.862 219.451 325.394 220.023C325.362 220.824 325.38 221.701 325.459 222.671C325.825 227.187 330.905 230.729 337.623 230.729C344.34 230.729 350.156 225.9 350.222 221.37C350.238 220.26 350.192 219.283 350.091 218.415C353.306 217.342 355.264 216.03 355.161 214.759C355.101 214.016 354.341 213.374 353.056 212.858C354.454 212.088 355.226 211.263 355.161 210.451C355.101 209.708 354.341 209.065 353.056 208.549C354.454 207.774 355.226 206.948 355.161 206.138Z" fill="#0C091E"/>
<path d="M333.487 220.995C330.703 220.995 328.155 220.79 326.05 220.387C325.927 220.363 325.849 220.246 325.871 220.123C325.895 220 326.012 219.922 326.135 219.944C329.428 220.574 333.829 220.713 338.523 220.334C342.364 220.024 345.957 219.406 348.912 218.542C349.031 218.508 349.156 218.576 349.192 218.695C349.226 218.814 349.158 218.939 349.039 218.975C346.054 219.845 342.43 220.471 338.559 220.784C336.816 220.927 335.112 220.995 333.487 220.995Z" fill="url(#paint1_linear_52_3887)"/>
<path d="M333.535 216.683C329.918 216.683 326.685 216.342 324.404 215.693C324.286 215.659 324.215 215.534 324.249 215.416C324.284 215.297 324.409 215.226 324.527 215.26C327.776 216.185 333.009 216.473 338.525 216.028C343.979 215.589 349.067 214.481 352.135 213.067C352.248 213.015 352.383 213.065 352.433 213.178C352.486 213.29 352.435 213.423 352.322 213.476C349.21 214.912 344.066 216.034 338.561 216.477C336.843 216.616 335.149 216.683 333.535 216.683Z" fill="url(#paint2_linear_52_3887)"/>
<path d="M333.489 212.378C329.583 212.378 326.165 211.979 323.863 211.22C323.744 211.182 323.679 211.053 323.72 210.936C323.758 210.817 323.885 210.753 324.004 210.793C327.206 211.848 332.633 212.195 338.522 211.721C343.977 211.282 349.065 210.175 352.133 208.76C352.246 208.708 352.381 208.758 352.431 208.871C352.483 208.984 352.433 209.117 352.32 209.169C349.208 210.606 344.064 211.728 338.559 212.171C336.814 212.31 335.11 212.378 333.489 212.378Z" fill="url(#paint3_linear_52_3887)"/>
<path d="M333.519 208.068C330.421 208.068 327.603 207.818 325.412 207.33C325.291 207.304 325.214 207.183 325.24 207.062C325.267 206.942 325.388 206.865 325.508 206.891C328.804 207.622 333.547 207.814 338.525 207.411C343.931 206.976 348.993 205.88 352.065 204.482C352.177 204.43 352.31 204.48 352.363 204.593C352.415 204.706 352.365 204.839 352.252 204.891C349.136 206.309 344.018 207.419 338.561 207.86C336.837 207.999 335.139 208.068 333.519 208.068Z" fill="url(#paint4_linear_52_3887)"/>
<path d="M314.915 184.388C313.777 180.356 311.841 176.585 309.237 173.302C303.655 166.268 294.549 151.96 293.429 132.436C291.799 104.035 316.986 89.816 339.97 91.7477C362.955 93.6774 385.634 110.793 383.153 137.214C381.626 153.471 372.525 165.803 365.751 172.883C361.449 177.381 358.381 182.888 356.719 188.884C354.687 196.224 349.848 205.373 338.347 205.931C323.463 206.654 317.284 192.782 314.915 184.388Z" fill="url(#paint5_linear_52_3887)"/>
<path d="M342.148 200.269L350.191 147.962C350.356 146.882 350.89 146.155 351.379 146.341C351.869 146.526 352.131 147.553 351.966 148.633C351.962 148.661 351.956 148.697 351.95 148.726L342.789 200.547C342.72 200.936 342.523 201.183 342.347 201.097C342.176 201.012 342.09 200.645 342.148 200.269Z" fill="url(#paint6_linear_52_3887)"/>
<path d="M333.799 200.684L325.756 148.377C325.589 147.297 325.057 146.57 324.568 146.755C324.078 146.941 323.814 147.968 323.981 149.048C323.985 149.076 323.991 149.112 323.998 149.14L333.158 200.962C333.227 201.35 333.424 201.598 333.6 201.511C333.771 201.429 333.857 201.06 333.799 200.684Z" fill="url(#paint7_linear_52_3887)"/>
<path d="M350.133 143.47C349.929 143.142 349.456 143.019 349.077 143.196L344.599 145.289L343.044 140.86C342.962 140.628 342.773 140.425 342.501 140.312C341.985 140.1 341.369 140.29 341.125 140.737L341.117 140.751L337.435 147.467L334.016 137.909L334.01 137.893C333.926 137.659 333.751 137.45 333.493 137.309C332.921 136.996 332.163 137.145 331.803 137.641L326.654 144.729C326.445 145.019 326.517 145.408 326.836 145.623C327.176 145.853 327.665 145.799 327.931 145.505L332.465 140.449L336.546 149.541L336.55 149.547C336.617 149.692 336.74 149.819 336.911 149.9C337.294 150.079 337.771 149.956 337.979 149.624L341.916 143.303L343.399 146.5L343.411 146.528C343.421 146.55 343.433 146.574 343.447 146.596C343.651 146.925 344.124 147.048 344.503 146.87L349.818 144.387C350.195 144.207 350.336 143.799 350.133 143.47Z" fill="white"/>
<path d="M365.925 166.141C365.713 166.141 365.5 166.076 365.316 165.939C364.863 165.603 364.768 164.965 365.105 164.511C366.474 162.666 367.729 160.761 368.835 158.845C369.117 158.358 369.742 158.191 370.229 158.473C370.717 158.755 370.886 159.379 370.602 159.866C369.458 161.848 368.158 163.822 366.742 165.73C366.545 165.998 366.237 166.141 365.925 166.141Z" fill="white"/>
<path d="M372.541 154.786C372.406 154.786 372.267 154.758 372.135 154.702C371.617 154.476 371.379 153.876 371.605 153.358C380.103 133.788 372.773 117.361 372.699 117.196C372.463 116.684 372.688 116.078 373.2 115.842C373.714 115.609 374.32 115.832 374.554 116.344C374.876 117.045 382.335 133.771 373.476 154.17C373.311 154.557 372.936 154.786 372.541 154.786Z" fill="white"/>
<path d="M202.525 526.891C202.525 526.891 201.198 534.006 200.515 541.054C200.247 543.807 202.35 546.222 205.114 546.363C214.504 546.845 234.589 547.798 241.802 547.544C242.885 547.505 243.605 546.404 243.214 545.39C242.885 544.542 242.245 543.854 241.421 543.465L208.377 527.894L202.525 526.891Z" fill="#0C091E"/>
<path d="M201.534 522.695L202.464 531.228C202.464 531.228 208.253 533.99 212.252 530.98L209.935 521.459L201.534 522.695Z" fill="url(#paint8_linear_52_3887)"/>
<path d="M203.824 362.462C203.367 364.684 200.42 473.513 211.589 522.403C211.771 523.201 211.36 524.017 210.6 524.319C208.81 525.03 205.301 526.053 201.107 526.154C199.808 526.186 198.652 525.33 198.297 524.081C195.078 512.733 179.683 455.878 178.122 401.69C176.376 341.141 178.142 399.629 178.142 399.629L179.862 362.228L203.824 362.462Z" fill="#0C091E"/>
<path d="M164.31 530.245C164.31 530.245 162.272 533.822 160.241 543.364C159.875 545.086 161.065 546.75 162.816 546.939C165.913 547.274 170.685 547.711 174.51 547.723C176.273 547.727 177.665 546.206 177.469 544.454C177.079 540.961 175.814 535.224 171.779 530.723L164.31 530.245Z" fill="#0C091E"/>
<path d="M162.656 519.265L164.896 532.177C164.896 532.177 167.217 533.937 171.849 532.721L170.854 518.842L162.656 519.265Z" fill="url(#paint9_linear_52_3887)"/>
<path d="M157.74 365.362C147.676 422.701 158.449 507.322 162.197 523.9C162.427 524.915 163.236 525.699 164.262 525.878C166.002 526.184 168.87 526.446 171.709 525.652C172.685 525.378 173.38 524.506 173.429 523.491C174.079 510.122 173.92 428.018 183.097 395.657C183.563 394.018 184.58 392.593 185.98 391.619L203.306 379.549L204.815 359.785L157.74 365.362Z" fill="#0C091E"/>
<path d="M219.412 257.123C190.9 256.38 159.359 264.038 159.359 264.038C150.385 313.557 156.853 370.833 156.853 370.833C178.875 376.834 203.868 367.741 203.868 367.741C207.735 347.045 225.413 288.862 225.413 288.862C239.362 287.267 250.879 283.355 260.383 278.13C253.252 269.705 249.955 259.037 248.539 252.736C238.425 255.776 228.207 257.353 219.412 257.123Z" fill="url(#paint10_linear_52_3887)"/>
<path d="M304.048 215.923C301.278 212.513 297.717 214.08 297.717 214.08C293.352 231.768 271.209 245.93 248.537 252.74C249.953 259.041 253.25 269.709 260.381 278.134C298.102 257.397 304.048 215.923 304.048 215.923Z" fill="url(#paint11_linear_52_3887)"/>
<path d="M303.361 216.778C303.645 217.712 300.237 219.098 298.275 215.269C298.223 213.442 297.188 205.607 298.293 204.128C304.181 196.258 315.548 186.431 315.548 186.431C317.435 188.328 315.848 190.159 315.848 190.159L310.327 195.803C311.451 197.88 312.828 199.638 313.459 202.144C313.936 204.041 313.614 206.062 312.641 207.776C311.664 209.496 310.335 211.73 309.08 213.478C306.701 216.784 303.361 216.778 303.361 216.778Z" fill="url(#paint12_linear_52_3887)"/>
<path d="M307.898 199.475L302.874 203.65L301.269 207.84L305.664 212.811C305.664 212.811 307.237 204.482 308.365 202.686C309.493 200.893 308.927 200.013 307.898 199.475Z" fill="url(#paint13_linear_52_3887)"/>
<path d="M170.033 291.757L159.359 264.041C159.359 264.041 132.549 281.885 127.951 304.789C132.98 305.208 142.125 306.604 151.048 311.217C153.121 300.4 170.033 291.757 170.033 291.757Z" fill="url(#paint14_linear_52_3887)"/>
<path d="M193.064 317.963C193.064 317.963 162.997 334.579 153.042 320.052C150.976 317.034 150.504 314.051 151.046 311.217C142.125 306.604 132.978 305.209 127.949 304.79C126.563 311.694 127.189 319.059 131.184 326.534C148.551 359.036 196.95 325.373 196.95 325.373L193.064 317.963Z" fill="url(#paint15_linear_52_3887)"/>
<path d="M190.75 233.698L181.426 259.851C181.271 260.284 181.446 260.767 181.847 260.993C184.306 262.385 193.181 266.421 203.984 259.716C205.11 259.017 205.881 257.867 206.064 256.556L209.219 233.873L190.75 233.698Z" fill="url(#paint16_linear_52_3887)"/>
<path d="M210.723 209.584C210.723 209.584 220.508 228.436 219.159 236C217.809 243.563 205.465 242.903 194.741 236.646L187.399 216.322L210.723 209.584Z" fill="url(#paint17_linear_52_3887)"/>
<path d="M195.314 226.706C195.753 226.517 195.92 225.981 195.662 225.578C194.875 224.351 193.402 221.849 192.947 219.666C192.947 219.666 191.166 218.502 197.531 217.041C203.896 215.581 213.388 213.313 215.43 207.927C217.42 202.676 212.449 189.373 204.213 199.856C203.898 200.254 203.292 200.258 202.988 199.852C201.671 198.103 198.2 194.467 193.311 196.605C188.737 198.605 188.191 201.938 188.238 203.62C188.252 204.116 187.804 204.497 187.319 204.398C185.021 203.937 179.498 203.507 176.863 209.151C174.694 213.8 176.049 216.457 177.294 217.763C177.697 218.186 177.511 218.874 176.952 219.04C175.433 219.489 173.467 220.754 173.628 224.301C173.852 229.206 179.336 228.827 180.899 228.617C181.155 228.583 181.413 228.674 181.584 228.867C182.908 230.36 188.878 236.705 195.394 237.527C195.958 237.597 196.401 237.043 196.222 236.503L193.477 228.267C193.35 227.884 193.535 227.467 193.906 227.308L195.314 226.706Z" fill="#0C091E"/>
<path d="M196.438 227.882C196.438 227.882 189.39 222.947 188.832 227.04C188.274 231.133 195.163 233.039 198.599 231.542L196.438 227.882Z" fill="url(#paint18_linear_52_3887)"/>
<path d="M186.918 344.223L203.296 287.023C203.482 286.375 204.035 285.901 204.706 285.823C207.673 285.476 216.272 284.504 226.201 283.666C238.159 282.654 252.048 281.835 260.347 282.532C261.527 282.63 262.24 283.879 261.714 284.941C256.995 294.488 237.583 333.328 227.862 346.05C227.54 346.471 227.042 346.718 226.511 346.712L188.509 346.358C187.406 346.346 186.614 345.286 186.918 344.223Z" fill="#0C091E"/>
<path d="M190.876 330.403C190.876 330.403 188.594 321.021 189.515 317.693C190.435 314.363 192.218 310.085 198.162 311.036C204.106 311.987 211.118 314.49 211.118 314.49C211.118 314.49 210.763 318.825 206.245 317.427L209.047 319.594C209.047 319.594 208.646 323.065 204.831 321.212L207.436 324.086C207.436 324.086 205.796 326.937 202.99 325.11C200.182 323.281 198.837 331.533 190.876 330.403Z" fill="url(#paint19_linear_52_3887)"/>
<path d="M225.111 300.739C225.111 303.394 227.265 305.547 229.919 305.547C232.574 305.547 234.728 303.394 234.728 300.739C234.728 298.084 232.574 295.931 229.919 295.931C227.265 295.931 225.111 298.084 225.111 300.739Z" fill="#91B3FA"/>
<path d="M205.152 303.909L203.926 303.547L207.259 292.235C207.803 290.391 209.29 289.008 211.139 288.623C221.71 286.415 249.549 285.966 250.727 285.948L250.748 287.227C250.46 287.231 221.851 287.694 211.401 289.874C210.013 290.164 208.895 291.205 208.484 292.595L205.152 303.909Z" fill="#91B3FA"/>
<path d="M11.3077 463.983C9.56128 466.568 2.6221 525.062 1.53641 546.667C1.46389 548.128 2.63217 549.346 4.09454 549.346C5.35547 549.346 6.42908 548.428 6.62447 547.181L19.3164 465.845L11.3077 463.983Z" fill="#7D97F4"/>
<path d="M67.0991 463.983C68.8455 466.568 75.7846 525.062 76.8703 546.667C76.9449 548.128 75.7746 549.346 74.3122 549.346C73.0513 549.346 71.9777 548.428 71.7823 547.181L59.0903 465.845L67.0991 463.983Z" fill="#7D97F4"/>
<path d="M0.809113 459.419L0.803071 460.058C0.760771 464.646 4.71479 468.411 9.66588 468.496L68.3317 469.493C73.2102 469.575 77.2771 466.05 77.5147 461.532L77.545 460.948C77.7927 456.237 73.7903 452.267 68.7023 452.176L10.0103 451.124C4.98873 451.034 0.851413 454.762 0.809113 459.419Z" fill="#7D97F4"/>
<path d="M124.393 544.543C113.965 544.543 109.351 543.648 107.286 542.833C107.687 544.545 109.212 545.896 111.139 545.896H148.033C149.276 545.896 150.059 544.708 149.763 543.63C145.559 543.969 136.628 544.543 124.393 544.543Z" fill="#91B3FA"/>
<path d="M149.765 543.63C149.705 543.413 149.618 543.199 149.463 543.002C146.653 539.414 141.007 533.778 133.327 533.887C122.077 534.046 118.153 535.265 109.411 533.956L107.349 540.792C107.139 541.489 107.135 542.186 107.286 542.83C109.349 543.646 113.964 544.541 124.394 544.541C136.628 544.543 145.56 543.968 149.765 543.63Z" fill="#3A2C96"/>
<path d="M111.946 526.589L109.414 535.2C109.414 535.2 115.021 537.754 119.954 535.704L120.923 528.245L111.946 526.589Z" fill="url(#paint20_linear_52_3887)"/>
<path d="M188.41 539.12C180.281 545.653 176.125 547.848 174.008 548.507C175.388 549.585 177.42 549.677 178.923 548.471L207.683 525.363C208.652 524.585 208.521 523.171 207.618 522.521C204.553 525.419 197.948 531.458 188.41 539.12Z" fill="#91B3FA"/>
<path d="M207.621 522.523C207.44 522.392 207.236 522.281 206.994 522.224C202.567 521.201 194.653 520.365 188.735 525.26C180.064 532.429 177.767 535.833 170.135 540.292L172.788 546.889C173.058 547.562 173.489 548.104 174.011 548.511C176.128 547.852 180.283 545.656 188.413 539.124C197.948 531.458 204.553 525.419 207.621 522.523Z" fill="#3A2C96"/>
<path d="M57.7872 428.49C57.7872 428.49 120.226 433.588 133.033 439.617C145.839 445.646 122.58 530.157 122.58 530.157C122.58 530.157 119.094 531.834 111.335 529.423C111.335 529.423 119.291 467.059 113.371 453.536L45.7681 442.477L57.7872 428.49Z" fill="#0C091E"/>
<path d="M163.93 528.42C164.51 528.948 170.134 540.29 170.134 540.29C170.134 540.29 176.394 538.937 177.671 534.973L172.037 524.736L163.93 528.42Z" fill="url(#paint21_linear_52_3887)"/>
<path d="M20.1808 427.968C20.1808 427.968 18.1464 432.865 18.229 439.371C18.3438 448.369 25.5771 455.671 34.5648 456.12L108.376 459.486C109.935 459.556 111.254 460.636 111.643 462.147C113.377 468.856 121.855 489.458 163.299 530.569C164.401 531.663 166.119 531.848 167.432 531.021L173.332 527.294C173.951 526.903 174.15 526.092 173.779 525.459L130.803 452.069C128.545 448.345 124.917 445.654 120.697 444.574L57.7874 428.492L20.1808 427.968Z" fill="#0C091E"/>
<path d="M92.9223 313.328C92.9223 313.328 85.0163 327.309 76.9531 334.081L93.6172 343.379C93.6172 343.379 97.3718 328.578 105.951 324.245L92.9223 313.328Z" fill="url(#paint22_linear_52_3887)"/>
<path d="M18.8413 428.49C18.8413 428.49 38.7685 433.346 57.7873 428.49C57.7873 428.49 84.4019 392.712 94.6969 382.975C94.6969 382.975 111.121 408.891 147.676 412.565L149.715 408.009C149.715 408.009 120.613 394.594 111.653 373.98C102.694 353.366 99.0961 344.575 90.9443 339.195C85.8683 335.845 82.8288 333.557 81.2577 332.308C80.3976 331.623 79.2112 331.547 78.2725 332.119C69.6232 337.39 28.9207 365.268 18.8413 428.49Z" fill="#3A2C96"/>
<path d="M93.6172 382.472C93.2325 382.472 92.8538 382.299 92.602 381.972C86.257 373.698 82.722 364.577 82.5749 364.194C82.3232 363.536 82.6515 362.796 83.3102 362.543C83.9708 362.289 84.7081 362.619 84.9619 363.278C84.9961 363.368 88.5191 372.445 94.6304 380.417C95.0594 380.977 94.9547 381.779 94.3947 382.21C94.1631 382.385 93.8891 382.472 93.6172 382.472Z" fill="#0C091E"/>
<path d="M145.481 405.63L149.596 404.534L162.089 401.642C163.593 401.293 165.173 401.559 166.48 402.383L177.222 409.141L147.558 409.091L145.481 405.63Z" fill="url(#paint23_linear_52_3887)"/>
<path d="M105.477 292.365C105.477 292.365 113.162 305.14 114.495 312.2C115.828 319.26 117.97 323.673 109.933 326.189C101.898 328.705 94.4288 325.52 89.7436 318.93C89.7436 318.93 82.4237 308.788 83.1549 304.143C83.884 299.498 105.477 292.365 105.477 292.365Z" fill="url(#paint24_linear_52_3887)"/>
<path d="M91.8831 313.465L92.9224 313.328C92.9224 313.328 87.4819 305.106 91.0411 303.067C94.6003 301.029 109.111 296.023 111.631 290.309C114.06 284.8 110.426 278.578 106.045 277.278C105.767 277.196 105.475 277.361 105.375 277.631L105.117 278.324C104.942 278.799 104.275 278.817 104.073 278.354C103.88 277.913 103.25 277.895 103.052 278.332C102.277 280.044 99.9482 282.967 92.9708 285.229C83.0706 288.438 76.9029 293.429 77.6623 300.463C77.7106 300.908 77.2675 301.216 76.8586 301.035C76.0488 300.676 74.8222 300.62 73.3981 302.179C70.9205 304.888 72.8602 310.816 79.6282 315.01C79.9505 315.209 80.0069 315.662 79.7189 315.908C78.7057 316.774 77.2816 318.708 81.86 320.43C86.5432 322.193 89.0993 321.597 90.044 321.218C90.2978 321.115 90.4429 320.853 90.3905 320.583L89.188 314.42C89.1255 314.101 89.3451 313.795 89.6674 313.753L91.8831 313.465Z" fill="#0C091E"/>
<path d="M92.3097 314.732C92.3097 314.732 88.9197 306.372 85.3585 309.311C81.7972 312.25 88.6498 318.744 91.8122 318.658L92.3097 314.732Z" fill="url(#paint25_linear_52_3887)"/>
<path d="M134.019 414.958C134.068 414.96 134.116 414.962 134.164 414.962L197.539 414.899C199.107 414.897 200.376 413.628 200.374 412.065C200.372 410.5 199.097 409.209 197.533 409.237L134.158 409.3C132.591 409.302 131.324 410.571 131.324 412.134C131.326 413.649 132.521 414.883 134.019 414.958Z" fill="#0C091E"/>
<path d="M222.081 352.894C222.059 352.936 222.037 352.981 222.017 353.025L195.352 410.517C194.693 411.937 195.307 413.623 196.727 414.281C198.148 414.94 199.856 414.328 200.49 412.899L227.155 355.408C227.814 353.986 227.199 352.302 225.779 351.643C224.406 351.007 222.78 351.567 222.081 352.894Z" fill="#0C091E"/>
<path d="M388.034 472.735H381.344V545.07H388.034V472.735Z" fill="#7D97F4"/>
<path d="M413.981 546.466H355.397C355.397 544.061 357.347 542.111 359.752 542.111H409.628C412.031 542.113 413.981 544.061 413.981 546.466Z" fill="#7D97F4"/>
<path d="M422.675 470.225C422.675 474.181 419.438 477.418 415.482 477.418H356.21C352.254 477.418 349.017 474.181 349.017 470.225V463.721C349.017 459.765 352.254 456.528 356.21 456.528H415.482C419.438 456.528 422.675 459.765 422.675 463.721V470.225Z" fill="#7D97F4"/>
<path d="M335.309 424.506C335.309 424.506 325.371 426.047 314.196 433.517C312.437 434.694 311.473 436.742 311.736 438.841C313.074 449.44 318.577 483.747 336.719 517.255C337.676 519.021 337.95 521.078 337.529 523.042L334.377 537.71L328.531 543.191H343.588L353.613 516.062L349.327 514.707C346.003 513.655 343.723 510.6 343.663 507.113L343.159 478.013C343.588 465.047 335.209 456.102 335.209 456.102L359.253 454.931L335.309 424.506Z" fill="url(#paint26_linear_52_3887)"/>
<path d="M322.652 545.837C321.28 547.632 337.41 550.001 345.558 546.075C345.558 546.075 356.854 526.422 356.854 516.304C356.854 516.304 355.958 514.241 349.325 514.709C349.325 514.709 345.532 537.98 341.527 540.586C337.523 543.193 330.322 540.85 330.322 540.85C330.322 540.85 324.674 543.189 322.652 545.837Z" fill="#0C091E"/>
<path d="M356.21 456.528C356.081 456.307 330.322 453.431 330.322 453.431C330.322 453.431 331.166 461.262 328.532 472.044C325.897 482.827 288.075 529.54 288.075 529.54L292.041 542.111C279.78 546.381 267.719 547.064 255.851 544.288L280.427 529.54C280.427 529.54 303.428 451.156 317.516 437.173L343.337 428.24L356.21 456.528Z" fill="url(#paint27_linear_52_3887)"/>
<path d="M413.981 410.919C413.981 410.919 428.822 432.994 430.041 443.063C431.26 453.132 425.976 457.223 410.404 457.898C394.831 458.573 353.259 458.563 353.259 458.563L317.777 428.24C317.777 428.24 343.635 419.013 350.358 416.404C357.078 413.796 413.981 410.919 413.981 410.919Z" fill="#0C091E"/>
<path d="M290.542 537.879C290.542 537.879 294.813 542.014 291.928 546.615C291.928 546.615 258.106 552.609 248.923 549.89C248.923 549.89 250.831 545.537 261.17 540.584L260.407 541.17C259.442 541.911 260.008 543.454 261.222 543.386C268.037 542.997 282.137 541.748 290.542 537.879Z" fill="#0C091E"/>
<path d="M349.691 270.925C380.03 265.766 394.313 290.512 393.268 295.711C393.129 296.4 393.779 296.984 394.458 296.8C397.941 295.864 405.635 294.681 410.405 300.658C414.617 305.935 411.469 310.914 408.903 313.648C408.282 314.308 408.804 315.38 409.702 315.267C416.106 314.46 430.02 314.266 432.296 327.301C434.419 339.457 425.959 342.883 420.942 343.85C420.092 344.013 419.894 345.129 420.624 345.592C423.127 347.179 426.028 350.463 424.856 356.939C423.019 367.089 403.118 366.259 400.793 366.126C400.646 366.118 400.507 366.075 400.378 366.001L368.502 347.822C368.254 347.681 368.081 347.435 368.033 347.153L361.597 309.988C361.545 309.688 361.64 309.38 361.851 309.16L341.072 279.834C333.53 278.722 349.334 270.985 349.691 270.925Z" fill="#0C091E"/>
<path d="M373.842 407.999C373.842 407.999 356.56 391.542 348.052 380.641C343.453 374.749 342.009 366.992 344.136 359.827C348.019 346.742 354.922 333.188 355.553 331.079C356.518 327.847 375.897 327.982 375.897 327.982C375.897 327.982 414.031 352.731 429.013 394.654L412.186 399.893C412.186 399.893 402.23 383.189 392.392 372.57C392.392 372.57 409.414 395.057 410.015 404.264L373.842 407.999Z" fill="#3A2C96"/>
<path d="M353.21 313.009C353.412 313.682 358.47 330.449 358.867 330.798C359.261 331.146 369.959 331.72 374.993 328.28L362.504 303.851L353.21 313.009Z" fill="url(#paint28_linear_52_3887)"/>
<path d="M332.933 291.463C332.933 291.463 330.487 301.069 337.251 313.988C344.013 326.908 351.669 326.894 355.855 322.759C360.041 318.623 365.201 311.605 363.975 299.115C362.75 286.624 336.464 279.244 332.933 291.463Z" fill="url(#paint29_linear_52_3887)"/>
<path d="M354.62 299.794C354.62 299.794 343.401 282.64 332.878 296.14L332.689 301.051C332.689 301.051 320.366 299.588 322.523 288.288C324.68 276.988 335.33 269.926 349.045 274.821C362.76 279.715 370.62 284.735 371.504 294.565C372.388 304.394 364.569 302.239 364.569 302.239C364.569 302.239 362.019 295.318 358.391 294.599C354.765 293.88 355.708 299.276 355.708 299.276L354.62 299.794Z" fill="#0C091E"/>
<path d="M357.493 299.564C357.493 299.564 351.674 290.78 357.636 289.47C363.598 288.161 362.674 298.029 362.029 301.679L357.493 299.564Z" fill="url(#paint30_linear_52_3887)"/>
<path d="M338.633 409.219L351.331 396.981L368.898 404.401C368.898 404.401 386.384 407.11 396.391 404.401C406.398 401.692 406.398 401.692 406.398 401.692L429.012 394.652L432.563 404.689C433.465 407.237 432.559 410.067 430.355 411.632C428.399 413.022 426.105 414.551 424.643 415.19C421.664 416.493 351.229 414.289 351.229 414.289L338.633 409.219Z" fill="url(#paint31_linear_52_3887)"/>
<path d="M386.688 414.99C386.632 414.992 386.575 414.994 386.519 414.994L312.859 414.914C311.038 414.912 309.563 413.435 309.565 411.614C309.567 409.793 311.05 408.289 312.867 408.321L386.527 408.401C388.348 408.403 389.822 409.88 389.82 411.701C389.818 413.463 388.43 414.903 386.688 414.99Z" fill="#0C091E"/>
<path d="M246.642 348.112H307.986C312.512 348.112 316.632 350.725 318.561 354.818L346.92 414.952H270.686C267.769 414.952 265.149 413.169 264.077 410.458L242.085 354.812C240.816 351.597 243.185 348.112 246.642 348.112Z" fill="#0C091E"/>
<path d="M289.86 378.945C291.19 383.074 290.207 387.086 287.667 387.904C285.127 388.722 281.988 386.037 280.659 381.908C279.33 377.778 280.313 373.766 282.853 372.948C285.395 372.128 288.531 374.813 289.86 378.945Z" fill="#7D97F4"/>
<path d="M470.665 537.35C470.665 537.35 471.438 541.642 471.742 546.739C471.873 548.91 470.264 550.797 468.098 551.007C460.559 551.738 443.397 553.087 432.44 551.506C430.905 551.285 430.295 549.399 431.431 548.342C435.949 544.132 446.862 535.944 464.821 534.153L470.665 537.35Z" fill="#0C091E"/>
<path d="M474.413 527.673L470.602 537.018C470.08 538.299 468.781 539.094 467.405 538.949C466.473 538.853 465.367 538.673 464.291 538.347C462.14 537.694 460.927 535.414 461.57 533.259L464.446 523.635L474.413 527.673Z" fill="url(#paint32_linear_52_3887)"/>
<path d="M539.585 544.791C539.585 544.791 531.951 551.178 528.978 559.37C528.16 561.624 529.889 563.997 532.286 563.997H547.993C550.291 563.997 552.054 561.928 551.655 559.664C550.654 554.008 547.769 544.815 539.585 544.791Z" fill="#0C091E"/>
<path d="M549.04 536.48C549.04 536.48 547.499 543.304 546.313 547.814C546.097 548.632 545.225 549.081 544.427 548.797C542.05 547.947 540.117 547.572 538.709 547.76C538.058 547.846 537.492 547.306 537.482 546.65L537.335 535.315L549.04 536.48Z" fill="url(#paint33_linear_52_3887)"/>
<path d="M508.445 382.915L462.016 524.559C462.016 524.559 470.921 530.39 475.163 530.149L530.31 416.314C530.31 416.314 539.961 486.455 535.283 536.81L551.079 538.015C551.079 538.015 576.763 409.331 557.309 365.254L508.445 382.915Z" fill="#0C091E"/>
<path d="M530.012 415.091C530.03 415.091 530.05 415.089 530.068 415.087C530.314 415.057 530.489 414.832 530.459 414.586L528.658 400.285C528.628 400.039 528.405 399.868 528.157 399.894C527.911 399.924 527.736 400.15 527.766 400.395L529.569 414.697C529.595 414.924 529.788 415.091 530.012 415.091Z" fill="#3A2C96"/>
<path d="M499.738 258.276C499.738 258.276 537.355 261.616 532.033 288.42C532.033 288.42 552.827 327.551 562.548 373.648C562.864 375.148 561.859 376.611 560.348 376.868L497.704 387.594C495.976 387.89 494.31 386.813 493.871 385.115L478.903 327.267L473.069 354.161L454.536 349.333L470.137 270.301C470.141 270.301 472.316 258.771 499.738 258.276Z" fill="#3A2C96"/>
<path d="M478.585 324.678C478.617 324.678 478.651 324.674 478.684 324.668C478.935 324.614 479.094 324.364 479.04 324.112L473.819 300.135C473.765 299.883 473.519 299.724 473.263 299.778C473.011 299.832 472.852 300.082 472.907 300.334L478.128 324.312C478.178 324.529 478.371 324.678 478.585 324.678Z" fill="#91B3FA"/>
<path d="M482.368 396.028C484.342 394.942 486.653 394.642 488.836 395.186L493.195 396.272C494.121 396.504 495.04 395.865 495.147 394.916L499.657 354.77C505.297 357.449 513.432 357.128 516.115 356.931L505.734 404.258H469.406L482.368 396.028Z" fill="url(#paint34_linear_52_3887)"/>
<path d="M385.846 308.947L386.943 305.297C387.576 303.196 389.127 301.498 391.163 300.68L411.022 292.694C411.022 292.694 411.322 290.148 406.826 288.415C402.331 286.685 403.382 281.649 403.382 281.649C403.382 281.649 409.523 284.451 418.515 288.895C423.658 291.437 426.542 295.923 428.073 299.301L473.072 354.159L467.788 357.789C460.841 362.563 451.285 360.218 447.338 352.769L422.961 306.024C410.722 309.704 398.336 310.407 385.846 308.947Z" fill="url(#paint35_linear_52_3887)"/>
<path d="M487.553 232.685L499.123 265.066C499.123 265.066 488.878 273.075 481.401 270.368L475.572 251.804C475.572 251.804 480.023 229.12 487.553 232.685Z" fill="url(#paint36_linear_52_3887)"/>
<path d="M453.022 221.054C453.022 221.554 464.167 252.604 464.167 252.604L481.762 245.864L475.572 214.864C475.572 214.864 453.022 212.701 453.022 221.054Z" fill="url(#paint37_linear_52_3887)"/>
<path d="M472.486 222.418L477.022 238.482C477.081 238.687 477.111 238.894 477.111 239.11C477.113 240.419 476.789 244.929 472.196 244.315C468.029 243.759 464.218 243.312 461.794 244.454C460.707 244.966 460.185 246.218 460.592 247.35C461.605 250.17 464.006 256.485 466.929 261.654C467.521 262.703 468.822 263.11 469.92 262.611C473.225 261.108 480.104 257.742 485.007 253.738C485.672 253.196 485.99 252.342 485.833 251.5C485.061 247.391 482.765 234.892 482.664 231.311C482.57 227.949 486.342 225.383 488.002 224.418C488.546 224.102 488.935 223.58 489.082 222.968C489.603 220.804 490.045 215.908 483.798 214.828C482.491 214.602 481.639 213.351 481.905 212.05C482.433 209.462 482.263 205.655 477.351 204.251C472.355 202.825 469.213 205.832 467.614 208.137C466.967 209.069 465.758 209.371 464.723 208.908C464.133 208.644 463.422 208.632 462.656 209.279C461.625 210.149 460.054 209.883 459.297 208.767C457.84 206.624 455.194 204.483 450.714 205.933C442.766 208.505 443.144 217.67 446.059 222.651C448.974 227.633 457.431 224.355 461.438 221.054C464.483 218.544 469.118 220.045 471.167 220.909C471.811 221.183 472.295 221.739 472.486 222.418Z" fill="url(#paint38_linear_52_3887)"/>
<path d="M484.256 237.175C484.256 237.175 479.551 228.276 482.663 225.482C485.773 222.688 491.044 223.145 490.903 230.105C490.726 238.758 484.256 237.175 484.256 237.175Z" fill="url(#paint39_linear_52_3887)"/>
<path d="M512.465 357.533C515.033 357.533 516.864 357.338 517.063 357.316L517.398 357.278L531.095 293.415C531.149 293.163 530.988 292.915 530.736 292.861C530.482 292.805 530.237 292.968 530.182 293.22L516.626 356.419C514.588 356.599 503.703 357.322 497.956 353.251L509.822 297.768L507.344 293.101C507.223 292.873 506.942 292.786 506.714 292.907C506.486 293.028 506.4 293.31 506.52 293.538L508.839 297.905L496.918 353.644L497.156 353.823C501.308 356.943 507.997 357.533 512.465 357.533Z" fill="#91B3FA"/>
<path d="M101.832 552.241C101.517 552.241 101.197 552.173 100.889 552.028C99.6783 551.46 99.1184 549.927 99.6401 548.605L149.693 421.605C150.212 420.284 151.616 419.674 152.829 420.242C154.04 420.81 154.6 422.343 154.078 423.664L104.025 550.662C103.638 551.651 102.758 552.241 101.832 552.241Z" fill="#3A2C96"/>
<path d="M158.218 552.241C157.294 552.241 156.414 551.65 156.025 550.663L105.972 423.665C105.45 422.344 106.01 420.811 107.221 420.243C108.432 419.675 109.835 420.285 110.357 421.607L160.41 548.607C160.932 549.928 160.372 551.461 159.161 552.029C158.853 552.172 158.533 552.241 158.218 552.241Z" fill="#3A2C96"/>
<path d="M441.524 552.241C441.21 552.241 440.89 552.173 440.582 552.027C439.371 551.459 438.811 549.927 439.333 548.605L489.386 421.605C489.907 420.284 491.309 419.673 492.522 420.241C493.732 420.81 494.292 422.342 493.771 423.664L443.718 550.662C443.329 551.651 442.449 552.241 441.524 552.241Z" fill="#3A2C96"/>
<path d="M497.91 552.241C496.985 552.241 496.105 551.65 495.716 550.663L445.664 423.665C445.142 422.344 445.702 420.811 446.912 420.243C448.123 419.675 449.527 420.285 450.049 421.607L500.101 548.607C500.623 549.928 500.063 551.461 498.852 552.029C498.544 552.172 498.224 552.241 497.91 552.241Z" fill="#3A2C96"/>
<path d="M434.26 412.638H506.754V405.157H434.26C435.813 405.157 435.813 412.638 434.26 412.638Z" fill="#91B3FA"/>
<path d="M506.074 412.638C506.448 412.638 506.754 412.331 506.754 411.957V405.837C506.754 405.463 506.448 405.157 506.074 405.157H432.73C432.355 405.157 432.049 404.85 432.049 404.476V404.145C432.049 403.771 432.355 403.465 432.73 403.465H510.904C512.632 403.465 514.034 404.867 514.034 406.595V411.377C514.034 413.006 512.713 414.328 511.081 414.328H432.728C432.353 414.328 432.047 414.021 432.047 413.647V413.316C432.047 412.942 432.353 412.636 432.728 412.636H506.074V412.638Z" fill="#0C091E"/>
<path d="M517.264 417.681C517.507 416.845 517.175 415.983 516.359 415.327C515.543 414.67 514.329 414.291 513.046 414.291H78.6712C76.9853 414.291 75.4142 414.861 74.5057 415.804C73.5973 416.747 73.4744 417.931 74.1834 418.946L78.8908 425.704C79.9684 427.251 82.305 428.242 84.8752 428.242H510.067C512.458 428.242 514.512 427.118 514.965 425.561L517.264 417.681Z" fill="#3A2C96"/>
<defs>
<linearGradient id="paint0_linear_52_3887" x1="632.596" y1="728.421" x2="132.144" y2="106.891" gradientUnits="userSpaceOnUse">
<stop stop-color="#DAE3FE"/>
<stop offset="1" stop-color="#E9EFFD"/>
</linearGradient>
<linearGradient id="paint1_linear_52_3887" x1="340.77" y1="183.777" x2="328.859" y2="315.139" gradientUnits="userSpaceOnUse">
<stop stop-color="#53D8FF"/>
<stop offset="1" stop-color="#3840F7"/>
</linearGradient>
<linearGradient id="paint2_linear_52_3887" x1="341.118" y1="183.808" x2="329.207" y2="315.17" gradientUnits="userSpaceOnUse">
<stop stop-color="#53D8FF"/>
<stop offset="1" stop-color="#3840F7"/>
</linearGradient>
<linearGradient id="paint3_linear_52_3887" x1="340.459" y1="183.749" x2="328.548" y2="315.11" gradientUnits="userSpaceOnUse">
<stop stop-color="#53D8FF"/>
<stop offset="1" stop-color="#3840F7"/>
</linearGradient>
<linearGradient id="paint4_linear_52_3887" x1="340.814" y1="183.781" x2="328.903" y2="315.143" gradientUnits="userSpaceOnUse">
<stop stop-color="#53D8FF"/>
<stop offset="1" stop-color="#3840F7"/>
</linearGradient>
<linearGradient id="paint5_linear_52_3887" x1="344.43" y1="90.3645" x2="326.054" y2="214.914" gradientUnits="userSpaceOnUse">
<stop stop-color="#FF928E"/>
<stop offset="1" stop-color="#FE7062"/>
</linearGradient>
<linearGradient id="paint6_linear_52_3887" x1="513.802" y1="-59.3715" x2="431.11" y2="55.99" gradientUnits="userSpaceOnUse">
<stop stop-color="#E1473D"/>
<stop offset="1" stop-color="#E9605A"/>
</linearGradient>
<linearGradient id="paint7_linear_52_3887" x1="502.321" y1="-67.6016" x2="419.628" y2="47.7599" gradientUnits="userSpaceOnUse">
<stop stop-color="#E1473D"/>
<stop offset="1" stop-color="#E9605A"/>
</linearGradient>
<linearGradient id="paint8_linear_52_3887" x1="201.495" y1="526.853" x2="212.29" y2="526.956" gradientUnits="userSpaceOnUse">
<stop stop-color="#FEBBBA"/>
<stop offset="1" stop-color="#FF928E"/>
</linearGradient>
<linearGradient id="paint9_linear_52_3887" x1="162.592" y1="525.929" x2="171.913" y2="526.017" gradientUnits="userSpaceOnUse">
<stop stop-color="#FEBBBA"/>
<stop offset="1" stop-color="#FF928E"/>
</linearGradient>
<linearGradient id="paint10_linear_52_3887" x1="-218.782" y1="-418.775" x2="-123.493" y2="-253.608" gradientUnits="userSpaceOnUse">
<stop stop-color="#FF928E"/>
<stop offset="1" stop-color="#FE7062"/>
</linearGradient>
<linearGradient id="paint11_linear_52_3887" x1="248.606" y1="245.628" x2="303.761" y2="246.152" gradientUnits="userSpaceOnUse">
<stop stop-color="#FEBBBA"/>
<stop offset="1" stop-color="#FF928E"/>
</linearGradient>
<linearGradient id="paint12_linear_52_3887" x1="291.563" y1="236.792" x2="253.754" y2="320.646" gradientUnits="userSpaceOnUse">
<stop stop-color="#FEBBBA"/>
<stop offset="1" stop-color="#FF928E"/>
</linearGradient>
<linearGradient id="paint13_linear_52_3887" x1="303.851" y1="208.862" x2="319.52" y2="185.265" gradientUnits="userSpaceOnUse">
<stop stop-color="#FEBBBA"/>
<stop offset="1" stop-color="#FF928E"/>
</linearGradient>
<linearGradient id="paint14_linear_52_3887" x1="-251.231" y1="-400.057" x2="-155.943" y2="-234.889" gradientUnits="userSpaceOnUse">
<stop stop-color="#FF928E"/>
<stop offset="1" stop-color="#FE7062"/>
</linearGradient>
<linearGradient id="paint15_linear_52_3887" x1="127.174" y1="322.6" x2="196.971" y2="323.264" gradientUnits="userSpaceOnUse">
<stop stop-color="#FEBBBA"/>
<stop offset="1" stop-color="#FF928E"/>
</linearGradient>
<linearGradient id="paint16_linear_52_3887" x1="181.48" y1="248.493" x2="209.076" y2="248.755" gradientUnits="userSpaceOnUse">
<stop stop-color="#FEBBBA"/>
<stop offset="1" stop-color="#FF928E"/>
</linearGradient>
<linearGradient id="paint17_linear_52_3887" x1="215.806" y1="231.262" x2="185.64" y2="212.468" gradientUnits="userSpaceOnUse">
<stop stop-color="#FEBBBA"/>
<stop offset="1" stop-color="#FF928E"/>
</linearGradient>
<linearGradient id="paint18_linear_52_3887" x1="207.771" y1="238.087" x2="180.631" y2="221.178" gradientUnits="userSpaceOnUse">
<stop stop-color="#FEBBBA"/>
<stop offset="1" stop-color="#FF928E"/>
</linearGradient>
<linearGradient id="paint19_linear_52_3887" x1="189.296" y1="320.705" x2="211.117" y2="320.705" gradientUnits="userSpaceOnUse">
<stop stop-color="#FEBBBA"/>
<stop offset="1" stop-color="#FF928E"/>
</linearGradient>
<linearGradient id="paint20_linear_52_3887" x1="109.413" y1="531.545" x2="120.923" y2="531.545" gradientUnits="userSpaceOnUse">
<stop stop-color="#FEBBBA"/>
<stop offset="1" stop-color="#FF928E"/>
</linearGradient>
<linearGradient id="paint21_linear_52_3887" x1="163.93" y1="532.514" x2="177.672" y2="532.514" gradientUnits="userSpaceOnUse">
<stop stop-color="#FEBBBA"/>
<stop offset="1" stop-color="#FF928E"/>
</linearGradient>
<linearGradient id="paint22_linear_52_3887" x1="87.6007" y1="338.874" x2="94.3755" y2="321.79" gradientUnits="userSpaceOnUse">
<stop stop-color="#FEBBBA"/>
<stop offset="1" stop-color="#FF928E"/>
</linearGradient>
<linearGradient id="paint23_linear_52_3887" x1="145.48" y1="405.315" x2="177.221" y2="405.315" gradientUnits="userSpaceOnUse">
<stop stop-color="#FEBBBA"/>
<stop offset="1" stop-color="#FF928E"/>
</linearGradient>
<linearGradient id="paint24_linear_52_3887" x1="108.285" y1="304.13" x2="77.9611" y2="334.375" gradientUnits="userSpaceOnUse">
<stop stop-color="#FEBBBA"/>
<stop offset="1" stop-color="#FF928E"/>
</linearGradient>
<linearGradient id="paint25_linear_52_3887" x1="103.382" y1="299.214" x2="73.0582" y2="329.459" gradientUnits="userSpaceOnUse">
<stop stop-color="#FEBBBA"/>
<stop offset="1" stop-color="#FF928E"/>
</linearGradient>
<linearGradient id="paint26_linear_52_3887" x1="261.773" y1="760.287" x2="346.61" y2="420.935" gradientUnits="userSpaceOnUse">
<stop stop-color="#FEBBBA"/>
<stop offset="1" stop-color="#FF928E"/>
</linearGradient>
<linearGradient id="paint27_linear_52_3887" x1="302.997" y1="545.655" x2="319.964" y2="292.555" gradientUnits="userSpaceOnUse">
<stop stop-color="#FEBBBA"/>
<stop offset="1" stop-color="#FF928E"/>
</linearGradient>
<linearGradient id="paint28_linear_52_3887" x1="369.575" y1="355.77" x2="362.801" y2="312.3" gradientUnits="userSpaceOnUse">
<stop stop-color="#FEBBBA"/>
<stop offset="1" stop-color="#FF928E"/>
</linearGradient>
<linearGradient id="paint29_linear_52_3887" x1="332.742" y1="309.69" x2="383.534" y2="292.556" gradientUnits="userSpaceOnUse">
<stop stop-color="#FEBBBA"/>
<stop offset="1" stop-color="#FF928E"/>
</linearGradient>
<linearGradient id="paint30_linear_52_3887" x1="331.231" y1="305.207" x2="382.022" y2="288.073" gradientUnits="userSpaceOnUse">
<stop stop-color="#FEBBBA"/>
<stop offset="1" stop-color="#FF928E"/>
</linearGradient>
<linearGradient id="paint31_linear_52_3887" x1="397.394" y1="405.127" x2="491.671" y2="405.127" gradientUnits="userSpaceOnUse">
<stop stop-color="#FEBBBA"/>
<stop offset="1" stop-color="#FF928E"/>
</linearGradient>
<linearGradient id="paint32_linear_52_3887" x1="466.555" y1="541.477" x2="469.975" y2="514.739" gradientUnits="userSpaceOnUse">
<stop stop-color="#FEBBBA"/>
<stop offset="1" stop-color="#FF928E"/>
</linearGradient>
<linearGradient id="paint33_linear_52_3887" x1="541.302" y1="550.641" x2="544.635" y2="524.586" gradientUnits="userSpaceOnUse">
<stop stop-color="#FEBBBA"/>
<stop offset="1" stop-color="#FF928E"/>
</linearGradient>
<linearGradient id="paint34_linear_52_3887" x1="516.115" y1="379.515" x2="469.407" y2="379.515" gradientUnits="userSpaceOnUse">
<stop stop-color="#FEBBBA"/>
<stop offset="1" stop-color="#FF928E"/>
</linearGradient>
<linearGradient id="paint35_linear_52_3887" x1="473.072" y1="320.963" x2="385.846" y2="320.963" gradientUnits="userSpaceOnUse">
<stop stop-color="#FEBBBA"/>
<stop offset="1" stop-color="#FF928E"/>
</linearGradient>
<linearGradient id="paint36_linear_52_3887" x1="504.475" y1="272.042" x2="474.118" y2="240.897" gradientUnits="userSpaceOnUse">
<stop stop-color="#FEBBBA"/>
<stop offset="1" stop-color="#FF928E"/>
</linearGradient>
<linearGradient id="paint37_linear_52_3887" x1="460.451" y1="221.273" x2="498.297" y2="271.342" gradientUnits="userSpaceOnUse">
<stop stop-color="#FEBBBA"/>
<stop offset="1" stop-color="#FF928E"/>
</linearGradient>
<linearGradient id="paint38_linear_52_3887" x1="518.144" y1="78.8781" x2="478.213" y2="194.586" gradientUnits="userSpaceOnUse">
<stop stop-color="#E1473D"/>
<stop offset="1" stop-color="#E9605A"/>
</linearGradient>
<linearGradient id="paint39_linear_52_3887" x1="515.882" y1="260.924" x2="485.525" y2="229.779" gradientUnits="userSpaceOnUse">
<stop stop-color="#FEBBBA"/>
<stop offset="1" stop-color="#FF928E"/>
</linearGradient>
</defs>
</svg>
