<svg width="70" height="70" viewBox="0 0 70 70" fill="none" xmlns="http://www.w3.org/2000/svg">
<circle cx="35" cy="35" r="35" fill="#EA4C89"/>
<path d="M42.7135 28.22C41.9704 28.2532 41.2828 28.2865 40.5619 28.3198C40.5619 25.8799 40.5619 23.3956 40.5619 20.878C34.4177 20.878 28.3068 20.878 22.1738 20.878C22.1738 29.6728 22.1738 38.4676 22.1738 47.2847C28.2957 47.2847 34.4067 47.2847 40.5508 47.2847C40.5508 46.9852 40.5508 46.6969 40.5508 46.4529C41.2828 46.5083 41.9704 46.5527 42.658 46.6081C42.6691 46.6303 42.6913 46.6525 42.6913 46.6747C42.6913 48.4713 42.7357 50.2791 42.6913 52.0758C42.658 53.4621 41.5933 54.4381 40.1959 54.4381C34.2957 54.4492 28.3845 54.4492 22.4843 54.4381C21.0536 54.4381 20.0444 53.4177 20 51.976C20 51.8761 20 51.7874 20 51.6876C20 40.3752 20 29.0628 20 17.7505C20 16.9298 20.1774 16.2089 20.7874 15.6433C21.3087 15.1664 21.9409 15 22.6506 15C26.2773 15.0111 29.915 15 33.5416 15C35.6932 15 37.8336 15 39.9852 15C41.6821 15 42.7135 16.0203 42.7135 17.7061C42.7135 21.0555 42.7135 24.4159 42.7135 27.7652C42.7135 27.9094 42.7135 28.0536 42.7135 28.22ZM31.3346 51.7209C31.9889 51.7209 32.6322 51.732 33.2865 51.7209C33.7301 51.7209 33.9852 51.4991 33.9963 51.1331C34.0074 50.756 33.7412 50.512 33.2865 50.512C32 50.5009 30.7135 50.5009 29.427 50.512C28.9723 50.512 28.695 50.756 28.695 51.122C28.695 51.488 28.9723 51.7209 29.4381 51.7209C30.0702 51.732 30.7024 51.7209 31.3346 51.7209ZM31.3789 18.5379C31.8669 18.5379 32.3438 18.549 32.8318 18.5379C33.2754 18.5268 33.5194 18.305 33.5194 17.9279C33.5194 17.5508 33.2865 17.329 32.8318 17.3179C31.8447 17.3068 30.8688 17.3068 29.8817 17.3179C29.4381 17.3179 29.183 17.5397 29.1719 17.9057C29.1608 18.2828 29.4159 18.5268 29.8817 18.5379C30.3808 18.549 30.8799 18.5379 31.3789 18.5379Z" fill="white"/>
<path d="M48.3474 32.7227C48.2365 32.9224 48.1367 33.1664 47.9814 33.3327C47.5045 33.854 47.438 34.3198 47.7485 35.0407C48.048 35.7394 48.414 35.9501 49.0905 35.9723C49.8557 35.9944 49.9999 36.183 49.9999 36.9482C49.9999 37.281 49.9999 37.6137 49.9999 37.9464C49.9999 38.3346 49.8225 38.5786 49.4343 38.6451C49.0018 38.7227 48.4694 38.6895 48.1589 38.9334C47.8705 39.1664 47.8594 39.7098 47.6487 40.0869C47.4491 40.4307 47.4934 40.6525 47.7485 40.9519C48.6469 42.0388 48.6358 42.0499 47.6265 43.0591C47.5045 43.1811 47.3936 43.3031 47.2716 43.414C46.9944 43.658 46.706 43.6913 46.3955 43.4806C46.0295 43.2366 45.6857 42.8151 45.2975 42.7708C44.9315 42.7264 44.5323 43.1257 44.133 43.2255C43.7116 43.3253 43.5896 43.5582 43.5785 43.9464C43.5674 44.1793 43.5341 44.4122 43.5008 44.6451C43.4343 45.1331 43.2458 45.3105 42.7689 45.3216C42.3696 45.3327 41.9703 45.3327 41.56 45.3216C41.1053 45.3105 40.8502 45.1331 40.828 44.6895C40.7947 43.7911 40.462 43.2699 39.5415 42.9926C39.0424 42.8484 38.7319 42.8151 38.3992 43.1811C38.3659 43.2255 38.3105 43.2477 38.2661 43.292C37.4898 43.9131 37.3899 43.902 36.6801 43.1922C36.4805 42.9926 36.2809 42.8041 36.0923 42.6044C35.8262 42.3272 35.804 42.0166 36.0147 41.695C36.2587 41.3401 36.6469 41.0074 36.7023 40.6303C36.7467 40.2754 36.3585 39.8872 36.2698 39.4991C36.17 39.0222 35.8927 38.9113 35.4602 38.878C34.1737 38.7671 34.1515 38.7449 34.1515 37.4584C34.1515 36.2384 34.1626 36.2052 35.3604 36.0499C35.8483 35.9834 36.1922 35.8614 36.2587 35.3068C36.292 35.085 36.4029 34.8521 36.536 34.6636C36.7578 34.353 36.6912 34.1201 36.4361 33.8761C36.2476 33.6765 36.0812 33.4436 35.9149 33.2329C35.682 32.9224 35.682 32.6118 35.9482 32.3346C36.2476 32.0129 36.5692 31.7024 36.8909 31.3919C37.157 31.1368 37.4565 31.1257 37.767 31.3253C38.0554 31.5139 38.3437 31.7135 38.6099 31.9242C38.7873 32.0573 38.9204 32.0795 39.1312 31.9686C39.4861 31.78 39.852 31.6248 40.2402 31.5028C40.4731 31.4251 40.5507 31.3142 40.5618 31.0924C40.584 30.7708 40.6173 30.4603 40.6617 30.1386C40.7171 29.6839 40.95 29.4843 41.4158 29.4732C41.8151 29.4621 42.2143 29.4732 42.6247 29.4732C43.0018 29.4732 43.2568 29.6506 43.3345 30.0388C43.4232 30.4713 43.3788 31.0037 43.6117 31.3142C43.8336 31.6026 44.3881 31.6137 44.7541 31.8244C45.1201 32.0351 45.3641 32.0129 45.6524 31.7246C45.841 31.5249 46.0739 31.3697 46.2957 31.2033C46.5618 31.0037 46.8502 31.0037 47.0942 31.2255C47.4602 31.5582 47.804 31.9242 48.1478 32.2902C48.2476 32.4011 48.2698 32.5453 48.3474 32.7227ZM42.0923 40.0647C43.5563 40.0647 44.7319 38.9002 44.7319 37.4362C44.7319 35.9501 43.5452 34.7523 42.0812 34.7634C40.6395 34.7745 39.4417 35.9612 39.4306 37.414C39.4195 38.8669 40.6173 40.0647 42.0923 40.0647Z" fill="white"/>
<path d="M29.3717 32.6562C28.8283 32.6673 28.5732 32.2348 28.7618 31.7468C29.283 30.4159 29.8154 29.0962 30.3366 27.7764C30.9799 26.1572 31.6231 24.5379 32.2664 22.9187C32.3773 22.6414 32.5104 22.3864 32.8431 22.342C33.3422 22.2865 33.6527 22.7413 33.442 23.2736C33.0316 24.3383 32.5991 25.403 32.1776 26.4788C31.4346 28.3531 30.6804 30.2274 29.9484 32.1017C29.8154 32.4011 29.6712 32.6451 29.3717 32.6562Z" fill="white"/>
<path d="M25.3678 27.5434C26.0222 28.1755 26.6543 28.7855 27.2754 29.3955C27.3752 29.4953 27.475 29.584 27.5638 29.6949C27.7745 29.9722 27.7856 30.2606 27.5416 30.5267C27.3087 30.7818 26.9538 30.804 26.6876 30.5378C25.8225 29.6839 24.9575 28.8188 24.1146 27.9426C23.8373 27.6654 23.8484 27.3327 24.1257 27.0554C24.9686 26.1903 25.8115 25.3363 26.6765 24.4824C26.9538 24.2051 27.3198 24.2162 27.5638 24.4824C27.7967 24.7375 27.7967 25.0924 27.5194 25.3807C26.9316 25.9907 26.3327 26.5785 25.7338 27.1885C25.6229 27.2661 25.5342 27.3659 25.3678 27.5434Z" fill="white"/>
<path d="M37.39 27.5103C36.7246 26.867 36.1479 26.3125 35.5712 25.758C35.4603 25.6471 35.3494 25.5473 35.2496 25.4364C34.9168 25.0925 34.8947 24.7155 35.1608 24.4493C35.4381 24.1942 35.7708 24.2275 36.1146 24.5602C36.7911 25.2367 37.4566 25.9133 38.1331 26.5898C38.2662 26.7229 38.4104 26.856 38.5435 27.0001C38.8429 27.3218 38.854 27.6545 38.5545 27.9539C37.7227 28.8079 36.8799 29.6508 36.037 30.4937C35.7486 30.782 35.4048 30.7709 35.1497 30.5269C34.9057 30.2829 34.8947 29.9169 35.1719 29.6397C35.8817 28.9521 36.5915 28.2755 37.39 27.5103Z" fill="white"/>
</svg>
