<svg width="70" height="70" viewBox="0 0 70 70" fill="none" xmlns="http://www.w3.org/2000/svg">
<circle cx="35" cy="35" r="35" fill="#3AB094"/>
<g clip-path="url(#clip0_375_6)">
<path d="M51.0714 25.132C51.5321 25.132 51.95 25.1213 52.3571 25.132C52.7321 25.1427 52.9678 25.3892 52.9893 25.7749C52.9893 25.8392 52.9893 25.9035 52.9893 25.9785C52.9893 31.9999 52.9893 38.032 52.9893 44.0535C52.9893 44.1606 52.9893 44.257 52.9893 44.3856C40.9785 44.3856 29 44.3856 16.9893 44.3856C16.9893 44.2249 16.9893 44.0856 16.9893 43.9356C16.9893 37.9785 16.9893 32.0213 16.9893 26.0535C16.9893 25.2927 17.1714 25.1213 17.9428 25.1213C18.2535 25.1213 18.5535 25.1213 18.8964 25.1213C18.9071 25.2713 18.9178 25.3999 18.9178 25.5285C18.9178 26.4392 18.9178 27.3499 18.9178 28.2606C18.9178 28.732 19.1643 28.9785 19.6357 28.9785C23.8678 28.9785 28.1 28.9785 32.3321 28.9785C32.8143 28.9785 33.05 28.7213 33.05 28.2177C33.05 27.1999 33.05 26.1927 33.05 25.1535C34.55 25.1535 36.0178 25.1535 37.55 25.1535C37.55 25.282 37.55 25.4213 37.55 25.5606C37.55 26.4285 37.55 27.2963 37.55 28.1749C37.55 28.7535 37.775 28.9892 38.3428 28.9892C38.8893 28.9892 39.4357 28.9892 39.9928 28.9892C40.4857 28.9892 40.7 28.807 40.775 28.3142C40.9357 27.1892 41.0964 26.0642 41.2571 24.9392C41.2785 24.7999 41.3107 24.6606 41.3535 24.457C41.6643 24.4999 41.975 24.4999 42.2643 24.5856C44.825 25.3677 47.375 26.1606 49.925 26.9427C50.7393 27.1892 51.05 26.9642 51.05 26.107C51.0714 25.7963 51.0714 25.4856 51.0714 25.132ZM27.275 43.1213C29.9964 43.1213 32.7071 43.1213 35.4285 43.1213C36.0821 43.1213 36.2857 42.907 36.2857 42.2535C36.2857 38.9749 36.2857 35.6963 36.2857 32.407C36.2857 31.7535 36.0714 31.5499 35.4178 31.5499C29.9964 31.5499 24.575 31.5499 19.1428 31.5499C18.4893 31.5499 18.2857 31.7535 18.2857 32.4177C18.2857 35.6856 18.2857 38.9535 18.2857 42.2213C18.2857 42.9285 18.4785 43.1213 19.1964 43.1213C21.8857 43.1213 24.575 43.1213 27.275 43.1213ZM50.4285 32.8142C50.4285 32.2035 50.4285 31.6356 50.4285 31.057C50.4285 30.4999 50.2035 30.2642 49.6571 30.2642C45.8857 30.2642 42.1035 30.2642 38.3321 30.2642C37.8071 30.2642 37.5714 30.4999 37.5714 31.0249C37.5714 33.5106 37.5714 36.007 37.5714 38.4927C37.5714 39.0177 37.8071 39.2535 38.3321 39.2535C38.7178 39.2642 39.0928 39.2535 39.5 39.2535C39.5 39.8535 39.5 40.3999 39.5 40.9463C39.5 41.6213 39.7035 41.8249 40.3893 41.8249C43.8714 41.8249 47.3535 41.8249 50.825 41.8249C51.5107 41.8249 51.7035 41.6213 51.7035 40.9356C51.7035 38.6106 51.6821 36.2749 51.7143 33.9499C51.725 32.9963 51.4785 32.7499 50.6214 32.8249C50.5785 32.8463 50.525 32.8249 50.4285 32.8142Z" fill="white"/>
<path d="M20.2463 18.7144C24.1035 18.7144 27.9285 18.7144 31.7642 18.7144C31.7642 21.7036 31.7642 24.6608 31.7642 27.6608C27.9392 27.6608 24.1035 27.6608 20.2463 27.6608C20.2463 24.7036 20.2463 21.7251 20.2463 18.7144ZM24.0713 23.1929C24.0713 23.7929 24.0606 24.3929 24.0713 24.9929C24.0821 25.6358 24.5106 25.9251 25.0892 25.6465C26.3106 25.0465 27.5213 24.4358 28.7428 23.8251C29.0106 23.6965 29.2142 23.5036 29.2142 23.1822C29.2142 22.8608 29.0106 22.6786 28.7428 22.5501C27.5321 21.9501 26.3321 21.3394 25.1213 20.7501C24.4999 20.4501 24.0713 20.7286 24.0713 21.4251C24.0713 22.0251 24.0713 22.6144 24.0713 23.1929Z" fill="white"/>
<path d="M49.7856 25.5393C47.3963 24.8 45.0606 24.0821 42.7249 23.3643C42.7249 21.9607 42.7249 20.5786 42.7249 19.175C45.0606 18.4571 47.3963 17.7393 49.7749 17C49.7749 18.0071 49.7749 18.9714 49.7749 19.925C50.6749 20.1714 51.0713 20.5893 51.0713 21.2643C51.0713 21.9286 50.6641 22.3571 49.7856 22.5929C49.7856 23.5571 49.7856 24.5214 49.7856 25.5393Z" fill="white"/>
<path d="M53.0001 45.7251C53.0001 45.9394 53.0108 46.1322 53.0001 46.3144C52.9786 46.7322 52.7429 46.9679 52.3036 46.9894C52.1858 47.0001 52.0679 46.9894 51.9394 46.9894C40.6679 46.9894 29.3965 46.9894 18.1251 46.9894C17.0858 46.9894 16.9144 46.8072 17.0215 45.7251C29.0001 45.7251 40.9787 45.7251 53.0001 45.7251Z" fill="white"/>
<path d="M41.4072 19.3679C41.4072 20.6536 41.4072 21.9072 41.4072 23.1822C40.3464 23.1822 39.3071 23.1822 38.2357 23.1822C38.225 23.0001 38.2143 22.8072 38.2036 22.5715C37.7964 22.5715 37.3893 22.5715 36.9607 22.5715C36.9607 21.6929 36.9607 20.8572 36.9607 20.0001C37.3786 20.0001 37.775 20.0001 38.2036 20.0001C38.2143 19.7858 38.225 19.5929 38.2357 19.3679C39.2857 19.3679 40.3357 19.3679 41.4072 19.3679Z" fill="white"/>
<path d="M40.7644 51.5107C40.7644 51.9286 40.7644 52.325 40.7644 52.7429C36.9179 52.7429 33.0822 52.7429 29.2251 52.7429C29.2251 52.325 29.2251 51.9286 29.2251 51.5107C33.0715 51.5107 36.8965 51.5107 40.7644 51.5107Z" fill="white"/>
<path d="M36.2642 50.1821C35.4285 50.1821 34.6035 50.1821 33.7463 50.1821C33.7463 49.5607 33.7463 48.95 33.7463 48.2964C34.5713 48.2964 35.4071 48.2964 36.2642 48.2964C36.2642 48.9178 36.2642 49.5392 36.2642 50.1821Z" fill="white"/>
<path d="M38.8784 24.5C39.2748 24.5 39.6391 24.5 40.0355 24.5C39.8855 25.5714 39.7355 26.6107 39.5748 27.6821C39.3391 27.6821 39.1141 27.6821 38.8677 27.6821C38.8784 26.6214 38.8784 25.5714 38.8784 24.5Z" fill="white"/>
<path d="M34.9785 33.3821C34.9785 36.2213 34.9785 39.0071 34.9785 41.8142C29.8463 41.8142 24.7356 41.8142 19.5928 41.8142C19.5928 39.0178 19.5928 36.2213 19.5928 33.3713C19.7428 33.4571 19.8606 33.5213 19.9785 33.5963C22.2071 34.9678 24.4463 36.3285 26.6642 37.7321C27.1142 38.0213 27.4678 37.9999 27.9071 37.7213C30.1249 36.3285 32.3642 34.9678 34.5928 33.5963C34.7213 33.5213 34.8285 33.4678 34.9785 33.3821Z" fill="white"/>
<path d="M33.3177 32.8679C31.5606 33.9501 29.8463 34.9572 28.207 36.0501C27.532 36.5001 27.0499 36.5001 26.3856 36.0501C24.7356 34.9572 23.032 33.9608 21.2642 32.8679C25.3034 32.8679 29.257 32.8679 33.3177 32.8679Z" fill="white"/>
<path d="M50.4179 34.1536C50.4179 36.275 50.4179 38.3857 50.4179 40.5178C47.2143 40.5178 44.0214 40.5178 40.8179 40.5178C40.8179 38.3964 40.8179 36.2964 40.8179 34.1536C43.9893 34.1536 47.1822 34.1536 50.4179 34.1536ZM44.6643 36.6714C46.175 36.6714 47.6536 36.6714 49.1107 36.6714C49.1107 36.2321 49.1107 35.8357 49.1107 35.4393C47.6107 35.4393 46.1429 35.4393 44.6643 35.4393C44.6643 35.8464 44.6643 36.2429 44.6643 36.6714ZM45.95 39.2428C47.0322 39.2428 48.0715 39.2428 49.1107 39.2428C49.1107 38.8036 49.1107 38.4071 49.1107 38.0107C48.0393 38.0107 47 38.0107 45.95 38.0107C45.95 38.4179 45.95 38.8143 45.95 39.2428ZM44.6107 39.2536C44.6107 38.8143 44.6107 38.4071 44.6107 38C43.7536 38 42.9286 38 42.0929 38C42.0929 38.4286 42.0929 38.825 42.0929 39.2536C42.9393 39.2536 43.7643 39.2536 44.6107 39.2536ZM43.325 36.6821C43.325 36.2321 43.325 35.8357 43.325 35.4286C42.8964 35.4286 42.5 35.4286 42.0929 35.4286C42.0929 35.8571 42.0929 36.2643 42.0929 36.6821C42.5107 36.6821 42.9072 36.6821 43.325 36.6821Z" fill="white"/>
<path d="M38.8892 31.5715C42.2963 31.5715 45.6927 31.5715 49.1213 31.5715C49.1213 31.9894 49.1213 32.3965 49.1213 32.8465C48.9713 32.8465 48.832 32.8465 48.682 32.8465C45.9392 32.8465 43.1963 32.8465 40.4534 32.8465C39.682 32.8465 39.4999 33.018 39.4999 33.7787C39.4999 35.0322 39.4999 36.2965 39.4999 37.5501C39.4999 37.6787 39.4999 37.8179 39.4999 37.9679C39.2856 37.9679 39.1034 37.9679 38.8892 37.9679C38.8892 35.8465 38.8892 33.7358 38.8892 31.5715Z" fill="white"/>
<path d="M27.1356 23.1928C26.5034 23.5142 25.9677 23.7821 25.3892 24.0607C25.3892 23.4714 25.3892 22.925 25.3892 22.325C25.9463 22.6035 26.5034 22.8821 27.1356 23.1928Z" fill="white"/>
</g>
<defs>
<clipPath id="clip0_375_6">
<rect width="36" height="35.7429" fill="white" transform="translate(17 17)"/>
</clipPath>
</defs>
</svg>
