<svg width="59" height="129" viewBox="0 0 59 129" fill="none" xmlns="http://www.w3.org/2000/svg">
<circle cx="3" cy="3" r="3" fill="#C2BFD8"/>
<circle cx="3" cy="20" r="3" fill="#C2BFD8"/>
<circle cx="3" cy="38" r="3" fill="#C2BFD8"/>
<circle cx="3" cy="55" r="3" fill="#C2BFD8"/>
<circle cx="3" cy="73" r="3" fill="#C2BFD8"/>
<circle cx="3" cy="90" r="3" fill="#C2BFD8"/>
<circle cx="3" cy="108" r="3" fill="#C2BFD8"/>
<circle cx="3" cy="126" r="3" fill="#C2BFD8"/>
<circle cx="20" cy="3" r="3" fill="#C2BFD8"/>
<circle cx="20" cy="20" r="3" fill="#C2BFD8"/>
<circle cx="20" cy="38" r="3" fill="#C2BFD8"/>
<circle cx="20" cy="55" r="3" fill="#C2BFD8"/>
<circle cx="20" cy="73" r="3" fill="#C2BFD8"/>
<circle cx="20" cy="90" r="3" fill="#C2BFD8"/>
<circle cx="20" cy="108" r="3" fill="#C2BFD8"/>
<circle cx="20" cy="126" r="3" fill="#C2BFD8"/>
<circle cx="38" cy="3" r="3" fill="#C2BFD8"/>
<circle cx="38" cy="20" r="3" fill="#C2BFD8"/>
<circle cx="38" cy="38" r="3" fill="#C2BFD8"/>
<circle cx="38" cy="55" r="3" fill="#C2BFD8"/>
<circle cx="38" cy="73" r="3" fill="#C2BFD8"/>
<circle cx="38" cy="90" r="3" fill="#C2BFD8"/>
<circle cx="38" cy="108" r="3" fill="#C2BFD8"/>
<circle cx="38" cy="126" r="3" fill="#C2BFD8"/>
<circle cx="56" cy="3" r="3" fill="#C2BFD8"/>
<circle cx="56" cy="20" r="3" fill="#C2BFD8"/>
<circle cx="56" cy="38" r="3" fill="#C2BFD8"/>
<circle cx="56" cy="55" r="3" fill="#C2BFD8"/>
<circle cx="56" cy="73" r="3" fill="#C2BFD8"/>
<circle cx="56" cy="90" r="3" fill="#C2BFD8"/>
<circle cx="56" cy="108" r="3" fill="#C2BFD8"/>
<circle cx="56" cy="126" r="3" fill="#C2BFD8"/>
</svg>
