<svg width="129" height="59" viewBox="0 0 129 59" fill="none" xmlns="http://www.w3.org/2000/svg">
<circle cx="3" cy="56" r="3" transform="rotate(-90 3 56)" fill="#C2BFD8"/>
<circle cx="20" cy="56" r="3" transform="rotate(-90 20 56)" fill="#C2BFD8"/>
<circle cx="38" cy="56" r="3" transform="rotate(-90 38 56)" fill="#C2BFD8"/>
<circle cx="55" cy="56" r="3" transform="rotate(-90 55 56)" fill="#C2BFD8"/>
<circle cx="73" cy="56" r="3" transform="rotate(-90 73 56)" fill="#C2BFD8"/>
<circle cx="90" cy="56" r="3" transform="rotate(-90 90 56)" fill="#C2BFD8"/>
<circle cx="108" cy="56" r="3" transform="rotate(-90 108 56)" fill="#C2BFD8"/>
<circle cx="126" cy="56" r="3" transform="rotate(-90 126 56)" fill="#C2BFD8"/>
<circle cx="3" cy="39" r="3" transform="rotate(-90 3 39)" fill="#C2BFD8"/>
<circle cx="20" cy="39" r="3" transform="rotate(-90 20 39)" fill="#C2BFD8"/>
<circle cx="38" cy="39" r="3" transform="rotate(-90 38 39)" fill="#C2BFD8"/>
<circle cx="55" cy="39" r="3" transform="rotate(-90 55 39)" fill="#C2BFD8"/>
<circle cx="73" cy="39" r="3" transform="rotate(-90 73 39)" fill="#C2BFD8"/>
<circle cx="90" cy="39" r="3" transform="rotate(-90 90 39)" fill="#C2BFD8"/>
<circle cx="108" cy="39" r="3" transform="rotate(-90 108 39)" fill="#C2BFD8"/>
<circle cx="126" cy="39" r="3" transform="rotate(-90 126 39)" fill="#C2BFD8"/>
<circle cx="3" cy="21" r="3" transform="rotate(-90 3 21)" fill="#C2BFD8"/>
<circle cx="20" cy="21" r="3" transform="rotate(-90 20 21)" fill="#C2BFD8"/>
<circle cx="38" cy="21" r="3" transform="rotate(-90 38 21)" fill="#C2BFD8"/>
<circle cx="55" cy="21" r="3" transform="rotate(-90 55 21)" fill="#C2BFD8"/>
<circle cx="73" cy="21" r="3" transform="rotate(-90 73 21)" fill="#C2BFD8"/>
<circle cx="90" cy="21" r="3" transform="rotate(-90 90 21)" fill="#C2BFD8"/>
<circle cx="108" cy="21" r="3" transform="rotate(-90 108 21)" fill="#C2BFD8"/>
<circle cx="126" cy="21" r="3" transform="rotate(-90 126 21)" fill="#C2BFD8"/>
<circle cx="3" cy="3" r="3" transform="rotate(-90 3 3)" fill="#C2BFD8"/>
<circle cx="20" cy="3" r="3" transform="rotate(-90 20 3)" fill="#C2BFD8"/>
<circle cx="38" cy="3" r="3" transform="rotate(-90 38 3)" fill="#C2BFD8"/>
<circle cx="55" cy="3" r="3" transform="rotate(-90 55 3)" fill="#C2BFD8"/>
<circle cx="73" cy="3" r="3" transform="rotate(-90 73 3)" fill="#C2BFD8"/>
<circle cx="90" cy="3" r="3" transform="rotate(-90 90 3)" fill="#C2BFD8"/>
<circle cx="108" cy="3" r="3" transform="rotate(-90 108 3)" fill="#C2BFD8"/>
<circle cx="126" cy="3" r="3" transform="rotate(-90 126 3)" fill="#C2BFD8"/>
</svg>
