<svg width="70" height="70" viewBox="0 0 70 70" fill="none" xmlns="http://www.w3.org/2000/svg">
<circle cx="35" cy="35" r="35" fill="#3578FF"/>
<g clip-path="url(#clip0_375_3)">
<path d="M17 41.6822C17 41.5107 17 41.3607 17 41.2107C17 33.1214 17 25.0321 17 16.9536C17 16.1714 17.1714 16 17.975 16C29.3214 16 40.6786 16 52.0357 16C52.8286 16 53 16.1714 53 16.9643C53 25.0536 53 33.1429 53 41.2214C53 41.3714 53 41.5107 53 41.6822C41 41.6822 29.0214 41.6822 17 41.6822ZM40.1214 40.4286C43.2714 40.4286 46.4107 40.4286 49.5607 40.4286C50.9321 40.4286 51.7143 39.6572 51.7143 38.2964C51.7143 34.7929 51.7143 31.2786 51.7143 27.775C51.7143 26.4143 50.9321 25.6429 49.5607 25.6429C46.8821 25.6429 44.2036 25.6429 41.525 25.6429C41.1929 25.6429 40.9357 25.5464 40.7107 25.3C40.2071 24.775 39.6821 24.2821 39.1786 23.7571C38.7179 23.275 38.1714 23.05 37.4964 23.05C35.2357 23.0607 32.975 23.05 30.7143 23.05C29.3536 23.05 28.5714 23.8321 28.5714 25.1929C28.5714 29.5429 28.5714 33.8929 28.5714 38.2429C28.5714 39.6357 29.3429 40.4072 30.725 40.4072C33.8643 40.4286 36.9929 40.4286 40.1214 40.4286ZM19.5714 29.725C19.5714 29.2 19.5607 28.6964 19.5821 28.1929C19.5821 28.0857 19.7214 27.9464 19.8179 27.9036C20.45 27.6143 21.0929 27.3571 21.725 27.0679C21.875 26.9929 22.025 26.8429 22.0893 26.6929C22.3464 26.125 22.5929 25.5464 22.8071 24.9464C22.8714 24.7643 22.8714 24.5286 22.8071 24.3464C22.5821 23.7143 22.325 23.1036 22.0679 22.4821C21.9821 22.2893 21.9821 22.15 22.1536 21.9893C22.4536 21.7214 22.7107 21.4107 23.0214 21.1536C23.1179 21.0786 23.3107 21.0357 23.4286 21.0679C23.8143 21.1857 24.2 21.3143 24.5429 21.5071C25.3036 21.9464 25.9893 21.8393 26.7929 21.5071C27.6179 21.1643 28.1964 20.7464 28.4429 19.8571C28.5607 19.4179 28.7107 18.8393 29.0429 18.625C29.375 18.4107 29.9536 18.5821 30.4143 18.55C30.6607 18.5393 30.7679 18.6357 30.8536 18.85C31.1 19.4714 31.3571 20.0821 31.6464 20.6929C31.7214 20.8536 31.8821 21.0143 32.0429 21.0893C32.6214 21.3571 33.2214 21.6036 33.8214 21.8286C33.9607 21.8821 34.1643 21.8821 34.3036 21.8286C34.9571 21.5821 35.6 21.325 36.2429 21.0571C36.4464 20.9714 36.575 20.9929 36.725 21.1643C37.0464 21.5393 37.3893 21.8929 37.7214 22.2464C38.075 21.8821 38.3643 21.5929 38.675 21.2929C38.1071 20.725 37.55 20.1571 36.9607 19.6C36.8857 19.525 36.6929 19.5143 36.5857 19.5571C36.0821 19.7393 35.5679 19.9107 35.0964 20.1571C34.4 20.5214 33.7357 20.575 33.0821 20.1357C32.9 20.0179 32.6964 19.8464 32.6107 19.6536C32.2893 18.9679 31.9893 18.2607 31.7107 17.5536C31.625 17.3286 31.4964 17.2643 31.2607 17.2643C30.3393 17.275 29.4179 17.275 28.4857 17.2643C28.2393 17.2643 28.1 17.3286 28.0036 17.5643C27.8107 18.0679 27.5429 18.5393 27.3929 19.0429C27.1786 19.7821 26.7286 20.2107 26 20.4143C25.7429 20.4893 25.5286 20.5107 25.2821 20.4036C24.5964 20.1143 23.8893 19.8464 23.2036 19.5571C23 19.4714 22.8607 19.4607 22.6786 19.6429C22.0143 20.35 21.3393 21.025 20.6536 21.6786C20.4929 21.8393 20.4821 21.9679 20.5679 22.1607C20.7821 22.6536 20.9214 23.1786 21.1786 23.6393C21.5536 24.325 21.5643 24.9786 21.1464 25.6214C21.0286 25.8036 20.8571 26.0071 20.6643 26.0929C19.9786 26.4143 19.2714 26.7143 18.5643 26.9929C18.3393 27.0786 18.275 27.2071 18.275 27.4429C18.2857 28.375 18.2857 29.3179 18.275 30.25C18.275 30.4964 18.3607 30.6036 18.575 30.6893C19.0679 30.8821 19.55 31.15 20.0536 31.3C20.7929 31.5143 21.2214 31.9643 21.425 32.6929C21.5 32.95 21.5214 33.1643 21.4143 33.4107C21.1143 34.1072 20.8464 34.825 20.5571 35.5322C20.4714 35.7357 20.5036 35.8643 20.6643 36.0143C21.35 36.6786 22.0143 37.3536 22.6786 38.0286C22.8393 38.1893 22.9679 38.2 23.1607 38.125C23.8893 37.825 24.6179 37.525 25.3571 37.2572C25.5179 37.1929 25.7429 37.2036 25.9143 37.2572C26.2893 37.375 26.6429 37.5464 27.0286 37.6964C27.2 37.2786 27.35 36.9143 27.5107 36.5286C27.2643 36.4214 27.0286 36.3572 26.8357 36.2286C26.0536 35.7464 25.2929 35.7357 24.4786 36.1964C24.0821 36.4214 23.5679 36.7214 23.1929 36.6357C22.8071 36.55 22.5179 36.025 22.175 35.7143C21.9929 35.5536 21.9821 35.4036 22.0786 35.1893C22.3464 34.5679 22.6036 33.925 22.8393 33.2929C22.8929 33.1429 22.9036 32.95 22.85 32.8107C22.6143 32.2 22.3679 31.5893 22.1 31C22.0357 30.85 21.875 30.7 21.725 30.6357C21.0179 30.325 20.3 30.0357 19.5714 29.725ZM27.0179 23.1357C25.475 23.7464 23.3214 25.9107 23.4286 29.125C23.5143 31.4179 25.2393 34.0643 27.0179 34.5571C27.1893 34.2036 27.3714 33.85 27.5536 33.475C25.7429 32.4464 24.7143 30.925 24.7143 28.8464C24.7143 26.7679 25.7429 25.2464 27.5536 24.2286C27.3714 23.8429 27.1893 23.4893 27.0179 23.1357Z" fill="white"/>
<path d="M17.0429 43.0107C29.0214 43.0107 40.9893 43.0107 52.9893 43.0107C52.9893 43.6857 53.0107 44.35 52.9786 45.0143C52.9679 45.325 52.7321 45.5072 52.4214 45.5608C52.2821 45.5822 52.1321 45.5715 51.9821 45.5715C40.6571 45.5715 29.3321 45.5715 18.0071 45.5715C17.1607 45.5715 17 45.4108 17 44.5643C17 44.0822 17 43.6 17.0107 43.1179C17.0107 43.0965 17.0214 43.075 17.0429 43.0107Z" fill="white"/>
<path d="M42.6822 53.275C37.55 53.275 32.45 53.275 27.3179 53.275C27.3179 52.8679 27.3179 52.4607 27.3179 52.0107C28.4429 52.0107 29.5679 52.0107 30.7143 52.0107C31.1536 50.5322 31.5929 49.0857 32.0214 47.65C32.2572 46.8571 32.2572 46.8572 33.0714 46.8572C34.4857 46.8572 35.9107 46.8679 37.325 46.8464C37.625 46.8464 37.7643 46.9214 37.85 47.2214C38.2679 48.6893 38.7179 50.1357 39.1572 51.6036C39.2 51.7321 39.2429 51.85 39.2857 52C40.4214 52 41.5357 52 42.6714 52C42.6822 52.4393 42.6822 52.8571 42.6822 53.275Z" fill="white"/>
<path d="M40.1429 39.1429C37.025 39.1429 33.9071 39.1429 30.7786 39.1429C30.0393 39.1429 29.8464 38.9607 29.8464 38.2215C29.8464 33.8929 29.8464 29.575 29.8464 25.2465C29.8464 24.5607 30.0393 24.3572 30.725 24.3572C32.975 24.3572 35.225 24.3465 37.475 24.3679C37.7321 24.3679 38.0536 24.5072 38.2464 24.6786C38.8143 25.1822 39.3393 25.7393 39.875 26.2857C40.3036 26.7143 40.8071 26.9286 41.4179 26.9179C44.1179 26.9072 46.8286 26.9179 49.5286 26.9179C50.2143 26.9179 50.4071 27.1215 50.4071 27.8072C50.4071 31.2893 50.4071 34.7715 50.4071 38.2536C50.4071 38.9393 50.2036 39.1429 49.5286 39.1429C46.4107 39.1429 43.2821 39.1429 40.1429 39.1429ZM32.3107 32.6822C33.5 33.8715 34.7107 35.0822 35.8679 36.2393C36.1143 36.0143 36.4143 35.7465 36.7571 35.4465C35.8357 34.525 34.925 33.625 33.9714 32.6715C34.8929 31.75 35.8036 30.85 36.6929 29.9607C36.4143 29.6607 36.1357 29.3715 35.8893 29.1036C34.6571 30.325 33.4571 31.5357 32.3107 32.6822ZM48.0179 32.7357C46.8179 31.5357 45.6179 30.325 44.4071 29.1143C44.15 29.3715 43.8714 29.65 43.5286 29.9929C44.45 30.9143 45.3607 31.825 46.3143 32.7786C45.3929 33.6893 44.4929 34.5786 43.6143 35.4572C43.9036 35.7572 44.1821 36.0465 44.4393 36.325C45.65 35.1143 46.85 33.9143 48.0179 32.7357ZM39.4143 36.2393C40.4964 34.3 41.5571 32.3822 42.6286 30.4536C42.2321 30.2393 41.8786 30.0357 41.5036 29.8322C40.4214 31.7822 39.3714 33.6786 38.2893 35.6072C38.675 35.8215 39.0179 36.0143 39.4143 36.2393Z" fill="white"/>
</g>
<defs>
<clipPath id="clip0_375_3">
<rect width="36" height="37.275" fill="white" transform="translate(17 16)"/>
</clipPath>
</defs>
</svg>
