<svg width="645" height="676" viewBox="0 0 645 676" fill="none" xmlns="http://www.w3.org/2000/svg">
<path fill-rule="evenodd" clip-rule="evenodd" d="M238.631 77.5441C287.506 85.6371 334.764 41.8376 383.195 52.2599C433.359 63.0551 472.562 100.951 510.07 135.957C551.2 174.343 591.071 215.162 613.171 266.891C637.011 322.692 651.853 384.501 641.821 444.343C631.633 505.113 601.414 563.59 556.379 605.659C512.85 646.322 453.664 670.224 394.325 675.542C340.157 680.396 291.855 645.307 238.631 634.134C196.227 625.232 149.221 637.553 111.536 616.176C74.2221 595.009 61.2936 548.427 32.1145 516.985C0.434479 482.849 -48.3367 464.449 -68.3111 422.383C-89.0781 378.648 -79.5566 327.899 -80.6525 279.499C-82.0104 219.527 -103.905 154.744 -75.5685 101.867C-47.3947 49.2942 9.5216 4.8399 69.0053 0.235132C131.747 -4.62188 176.547 67.264 238.631 77.5441Z" fill="#F2F6FF"/>
</svg>
