<svg width="70" height="70" viewBox="0 0 70 70" fill="none" xmlns="http://www.w3.org/2000/svg">
<circle cx="35" cy="35" r="35" fill="#6A88F7"/>
<g clip-path="url(#clip0_375_5)">
<path d="M43.0802 16C43.6175 16.1653 44.1052 16.405 44.4111 16.9176C44.4772 17.025 44.5268 17.149 44.6177 17.3143C44.4359 17.3143 44.3119 17.3143 44.1796 17.3143C42.5181 17.3143 40.8565 17.3143 39.195 17.3143C38.3023 17.3143 38.1535 17.4631 38.1287 18.3559C38.1287 18.4386 38.1121 18.5212 38.1039 18.6204C34.1443 18.6204 30.193 18.6204 26.2582 18.6204C26.1012 17.273 26.4732 16.6613 27.8206 16C32.9126 16 37.9964 16 43.0802 16Z" fill="white"/>
<path d="M53.9999 30.1768C53.8924 30.3338 53.8098 30.5074 53.6858 30.6562C50.7678 33.971 47.8415 37.2858 44.9152 40.6006C44.8491 40.675 44.7912 40.7494 44.7499 40.8072C43.9729 40.0219 43.2124 39.2614 42.4436 38.4927C42.5676 38.3769 42.7081 38.2529 42.8487 38.1289C46.0808 35.2771 49.3129 32.4252 52.545 29.5733C53.1319 29.0525 53.6114 29.1435 53.9999 29.8296C53.9999 29.937 53.9999 30.0528 53.9999 30.1768Z" fill="white"/>
<path d="M44.7501 26.5726C44.7501 27.0355 44.7501 27.4406 44.7501 27.8539C44.7501 30.0197 44.7501 32.1937 44.7583 34.3595C44.7583 34.5992 44.6839 34.7563 44.5021 34.9133C43.4523 35.8226 42.419 36.7485 41.3774 37.6578C41.2699 37.7569 41.1129 37.8313 40.9724 37.8479C38.5173 38.1785 36.8475 40.0467 36.8061 42.5266C36.7979 42.9151 36.8144 43.2954 36.7979 43.6839C36.7731 44.2625 36.5168 44.7172 36.0374 45.0478C35.9382 45.114 35.7977 45.1636 35.7481 45.2545C35.6406 45.4529 35.4835 45.7091 35.5331 45.891C35.5827 46.0894 35.8473 46.2382 36.0291 46.387C36.0787 46.4283 36.1696 46.42 36.2358 46.42C37.8394 46.4118 39.4431 46.4366 41.0468 46.387C42.5512 46.3374 43.725 45.6099 44.6013 44.3948C44.6261 44.3535 44.6591 44.3204 44.7253 44.2295C44.7253 45.4198 44.7253 46.5606 44.7253 47.7179C40.3441 47.7179 35.963 47.7179 31.5322 47.7179C31.5322 47.3459 31.5322 46.9822 31.5322 46.6102C31.5322 46.1638 31.5322 45.7174 31.5322 45.271C31.5322 44.6593 31.2925 44.4279 30.6725 44.4196C29.3334 44.4196 27.9943 44.4196 26.6634 44.4196C26.5477 44.4196 26.4237 44.4196 26.2749 44.4196C26.2749 43.0226 26.2749 41.6421 26.2749 40.2368C26.6964 40.303 27.1098 40.3691 27.5644 40.4435C27.5644 41.1048 27.5644 41.7496 27.5644 42.4191C28.0108 42.4191 28.4241 42.4191 28.8788 42.4191C28.8788 41.7744 28.8788 41.1296 28.8788 40.4766C33.4748 39.7574 36.1118 37.1204 36.8392 32.5244C37.1451 32.5244 37.4674 32.5244 37.7898 32.5244C38.1122 32.5244 38.4346 32.5244 38.7901 32.5244C38.7901 32.078 38.7901 31.6647 38.7901 31.2018C38.137 31.2018 37.4757 31.2018 36.8475 31.2018C36.1035 26.6222 33.4748 23.9853 28.8953 23.2496C28.8953 22.6213 28.8953 21.9766 28.8953 21.2987C28.4406 21.2987 28.0273 21.2987 27.5727 21.2987C27.5727 21.96 27.5727 22.6131 27.5727 23.2744C27.118 23.3488 26.7047 23.4149 26.2666 23.481C26.2666 22.3237 26.2666 21.1665 26.2666 19.9844C30.2096 19.9844 34.1527 19.9844 38.1536 19.9844C38.1536 20.1166 38.1536 20.2572 38.1536 20.3977C38.1536 22.1419 38.1536 23.8943 38.1536 25.6385C38.1536 26.3577 38.3519 26.5561 39.0794 26.5561C40.8236 26.5561 42.576 26.5561 44.3202 26.5561C44.4359 26.5726 44.5682 26.5726 44.7501 26.5726Z" fill="white"/>
<path d="M27.5396 24.6548C27.5396 25.0681 27.5396 25.4649 27.5396 25.8865C27.9859 25.8865 28.3993 25.8865 28.8622 25.8865C28.8622 25.4979 28.8622 25.0929 28.8622 24.6961C31.7554 24.7374 35.1528 27.3992 35.4256 31.1934C35.0206 31.1934 34.6238 31.1934 34.2022 31.1934C34.2022 31.6564 34.2022 32.0697 34.2022 32.5243C34.6073 32.5243 34.9958 32.5243 35.3843 32.5243C35.5909 33.8387 34.1443 36.6409 32.8631 37.4097C32.8631 35.4754 32.0364 34.0205 30.3749 33.0534C32.0447 31.4828 31.7223 29.3005 30.5154 28.1432C29.259 26.9363 27.2502 26.9115 25.9607 28.1184C24.7455 29.2591 24.3818 31.4497 26.0682 33.0534C24.4149 34.0122 23.5965 35.4589 23.5883 37.3766C22.3648 36.6575 21.0257 34.2685 21.034 32.5326C21.439 32.5326 21.8358 32.5326 22.2491 32.5326C22.2491 32.0697 22.2491 31.6564 22.2491 31.21C21.8358 31.21 21.439 31.21 21.0505 31.21C21.067 28.4904 23.5635 24.9937 27.5396 24.6548Z" fill="white"/>
<path d="M52.6691 18.6782C52.6691 20.8688 52.6691 23.0346 52.6691 25.2251C48.2797 25.2251 43.8903 25.2251 39.4844 25.2251C39.4844 23.0511 39.4844 20.8771 39.4844 18.6782C43.8738 18.6782 48.2632 18.6782 52.6691 18.6782ZM40.7905 23.9191C44.3119 23.9191 47.8168 23.9191 51.33 23.9191C51.33 23.4809 51.33 23.0676 51.33 22.6378C47.8085 22.6378 44.3036 22.6378 40.7905 22.6378C40.7905 23.0594 40.7905 23.4727 40.7905 23.9191ZM44.7583 21.2573C46.9736 21.2573 49.156 21.2573 51.3383 21.2573C51.3383 20.8192 51.3383 20.4141 51.3383 19.9926C49.1394 19.9926 46.9571 19.9926 44.7583 19.9926C44.7583 20.4224 44.7583 20.8275 44.7583 21.2573ZM43.4109 19.9926C42.5181 19.9926 41.6667 19.9926 40.7987 19.9926C40.7987 20.4307 40.7987 20.844 40.7987 21.2656C41.6832 21.2656 42.5346 21.2656 43.4109 21.2656C43.4109 20.8357 43.4109 20.4307 43.4109 19.9926Z" fill="white"/>
<path d="M31.5157 49.0735C35.9382 49.0735 40.3193 49.0735 44.6922 49.0735C44.6922 49.8753 44.7666 50.6689 44.6757 51.4459C44.5765 52.3056 43.8325 52.9091 42.9645 53.0082C42.8488 53.0248 42.7248 53.0248 42.6008 53.0248C37.856 53.0248 33.1111 53.0248 28.3662 53.0248C27.2751 53.0248 26.465 52.3965 26.2749 51.4129C26.2583 51.3137 26.2501 51.2062 26.2335 51.0491C26.3906 51.0491 26.5146 51.0491 26.6468 51.0491C27.9612 51.0491 29.2755 51.0491 30.5816 51.0491C31.309 51.0491 31.5074 50.8425 31.5074 50.1316C31.5157 49.7927 31.5157 49.4537 31.5157 49.0735ZM36.1283 50.4044C35.6984 50.4044 35.2851 50.4044 34.847 50.4044C34.847 50.8425 34.847 51.2558 34.847 51.6939C35.2769 51.6939 35.6902 51.6939 36.1283 51.6939C36.1283 51.2558 36.1283 50.8425 36.1283 50.4044Z" fill="white"/>
<path d="M30.1848 45.7751C30.1848 47.0978 30.1848 48.3873 30.1848 49.6934C25.7871 49.6934 21.4059 49.6934 17 49.6934C17 48.3956 17 47.0978 17 45.7751C21.3811 45.7751 25.7706 45.7751 30.1848 45.7751ZM22.9352 48.3708C24.9357 48.3708 26.8948 48.3708 28.8456 48.3708C28.8456 47.9327 28.8456 47.5193 28.8456 47.1143C26.8534 47.1143 24.9026 47.1143 22.9352 47.1143C22.9352 47.5441 22.9352 47.9492 22.9352 48.3708ZM18.3061 48.3708C19.4303 48.3708 20.5049 48.3708 21.5713 48.3708C21.5713 47.9327 21.5713 47.5111 21.5713 47.1143C20.4636 47.1143 19.389 47.1143 18.3061 47.1143C18.3061 47.5524 18.3061 47.9492 18.3061 48.3708Z" fill="white"/>
<path d="M28.8788 39.0711C28.8788 38.6496 28.8788 38.2611 28.8788 37.8477C28.4242 37.8477 28.0108 37.8477 27.5479 37.8477C27.5479 38.2611 27.5479 38.6661 27.5479 39.0877C26.6386 39.0298 25.8285 38.7818 25.0598 38.4098C25.0019 38.3768 24.9275 38.2859 24.9275 38.228C24.9192 37.3022 24.8614 36.3846 25.3574 35.5249C26.0435 34.3346 27.3991 33.6815 28.8292 33.9212C30.1187 34.1362 31.2512 35.2356 31.4496 36.5251C31.5323 37.0707 31.5075 37.6245 31.5158 38.1784C31.5158 38.2611 31.4331 38.3685 31.3587 38.4181C30.7801 38.757 29.5814 39.0711 28.8788 39.0711Z" fill="white"/>
<path d="M37.7981 45.0148C38.3023 44.1138 38.0874 43.1053 38.1618 42.1299C38.2775 40.6502 39.5588 39.3193 41.0302 39.1871C41.1294 39.1788 41.2617 39.2367 41.3361 39.3111C42.204 40.1625 43.0637 41.0222 43.9152 41.8984C43.9978 41.9811 44.0474 42.1547 44.0309 42.2704C43.8738 43.6096 42.8571 44.7999 41.4601 44.9818C40.2615 45.1306 39.038 45.0148 37.7981 45.0148Z" fill="white"/>
<path d="M22.2491 18.6782C22.2491 19.9843 22.2491 21.2656 22.2491 22.5799C20.5049 22.5799 18.769 22.5799 17 22.5799C17 21.2904 17 20.0008 17 18.6782C18.7359 18.6782 20.4718 18.6782 22.2491 18.6782ZM18.3143 19.9926C18.3143 20.4389 18.3143 20.844 18.3143 21.2573C19.1988 21.2573 20.0668 21.2573 20.9348 21.2573C20.9348 20.8192 20.9348 20.4141 20.9348 19.9926C20.0503 19.9926 19.1906 19.9926 18.3143 19.9926Z" fill="white"/>
<path d="M28.2339 28.5731C29.3251 28.5813 30.2178 29.4823 30.2013 30.5652C30.1847 31.6481 29.2755 32.5409 28.2008 32.5243C27.1097 32.5078 26.2252 31.615 26.2335 30.5322C26.25 29.441 27.1427 28.5648 28.2339 28.5731Z" fill="white"/>
</g>
<defs>
<clipPath id="clip0_375_5">
<rect width="37" height="37.0248" fill="white" transform="translate(17 16)"/>
</clipPath>
</defs>
</svg>
