<svg width="70" height="70" viewBox="0 0 70 70" fill="none" xmlns="http://www.w3.org/2000/svg">
<circle cx="35" cy="35" r="35" fill="#2EACFC"/>
<path d="M21.9674 52.9615C21.9674 50.3862 21.9674 47.8419 21.9674 45.2976C21.9674 43.7772 21.9674 42.2465 21.9674 40.7261C21.9674 39.516 22.7431 38.73 23.9429 38.73C31.3068 38.73 38.6708 38.73 46.0451 38.73C47.2345 38.73 48.0309 39.5057 48.0309 40.6847C48.0309 44.677 48.0309 48.6693 48.0309 52.6615C48.0309 52.765 48.0309 52.858 48.0309 52.9718C39.3224 52.9615 30.6552 52.9615 21.9674 52.9615ZM34.9992 46.1664C33.6236 46.1664 32.5169 47.2834 32.5169 48.6589C32.5169 50.0138 33.6236 51.1308 34.9785 51.1308C36.354 51.1412 37.4711 50.0345 37.4814 48.6589C37.4917 47.2937 36.3747 46.1664 34.9992 46.1664ZM31.7516 44.4391C31.0483 43.7565 30.3863 43.1049 29.6727 42.4223C30.3553 41.7397 31.0172 41.0778 31.6792 40.4262C31.3896 40.1262 31.1207 39.8366 30.8311 39.547C29.9933 40.3848 29.1556 41.1915 28.3488 42.0293C28.0799 42.3085 28.1006 42.6292 28.3902 42.9291C28.7522 43.3014 29.1245 43.6634 29.4865 44.0254C29.9313 44.4702 30.3656 44.9252 30.8207 45.3803C31.131 45.0597 31.3999 44.7804 31.7516 44.4391ZM40.398 42.4844C39.674 43.198 39.0121 43.8599 38.3709 44.4908C38.6191 44.7597 38.888 45.0493 39.1672 45.3596C39.9533 44.5736 40.729 43.7979 41.5047 43.0222C41.9391 42.5878 41.9391 42.2982 41.515 41.8741C40.8014 41.1605 40.0877 40.4469 39.3741 39.7436C39.3017 39.6712 39.2293 39.6194 39.1983 39.5988C38.888 39.878 38.5984 40.1366 38.2881 40.4158C38.9707 41.0881 39.643 41.75 40.398 42.4844ZM37.3573 40.3331C37.0056 40.0745 36.685 39.8366 36.3644 39.5988C35.0922 41.295 33.8821 42.9084 32.6514 44.5529C32.9927 44.8115 33.303 45.0493 33.6443 45.2976C34.8854 43.6324 36.1058 42.0086 37.3573 40.3331Z" fill="white"/>
<path d="M43.0458 25.3155C42.7562 23.3814 41.4944 21.9748 40.5015 20.4234C40.2533 20.0304 39.8913 19.9994 39.5086 20.2993C38.9915 20.7027 38.4847 21.1267 37.9572 21.5301C37.0574 22.223 36.0335 22.5747 34.8958 22.585C33.5512 22.5954 32.3308 22.9884 31.2241 23.7331C29.8692 24.6536 28.4937 25.5534 27.0871 26.4946C26.7147 25.7189 26.3114 24.9638 25.9907 24.1778C25.8873 23.9192 25.908 23.5572 25.9804 23.2677C26.5286 21.3439 26.0218 20.2062 24.1394 19.3064C24.3566 19.1926 24.5221 19.0996 24.6979 19.0168C27.4594 17.6826 30.376 17 33.4478 17C35.1543 17 36.8609 17 38.5674 17C42.3011 17.0103 44.7523 20.4855 43.5215 24.0123C43.3767 24.4467 43.2009 24.8811 43.0458 25.3155Z" fill="white"/>
<path d="M28.1833 29.4319C28.6074 29.4319 28.9901 29.4319 29.4141 29.4319C29.4141 29.9697 29.4141 30.4972 29.4141 31.0247C29.4141 32.4209 30.1381 33.1449 31.5447 33.1449C31.8447 33.1449 32.1342 33.1449 32.4342 33.1449C33.5719 33.1346 34.3579 32.3589 34.3683 31.2212C34.3683 31.0557 34.3683 30.8902 34.3683 30.6937C34.7716 30.6937 35.1646 30.6937 35.6094 30.6937C35.6094 30.8902 35.6094 31.0971 35.6094 31.2936C35.6301 32.3278 36.4264 33.1242 37.4607 33.1449C37.8848 33.1552 38.3088 33.1552 38.7432 33.1449C39.7568 33.1139 40.5428 32.3278 40.5635 31.3039C40.5739 30.6937 40.5635 30.0938 40.5635 29.4526C40.9669 29.4526 41.3599 29.4526 41.8357 29.4526C41.7426 30.2903 41.6909 31.1281 41.5461 31.9452C41.2358 33.7965 40.5945 35.5341 39.6844 37.1682C39.5603 37.3957 39.4258 37.4992 39.1466 37.4992C36.3644 37.4888 33.5926 37.4992 30.8104 37.4785C30.6552 37.4785 30.4277 37.4061 30.3657 37.2923C28.9797 34.8721 28.2557 32.2658 28.1833 29.4319Z" fill="white"/>
<path d="M41.7529 28.1701C40.0567 28.1701 38.3295 28.1701 36.6126 28.1701C35.7645 28.1701 35.63 28.3045 35.6197 29.1526C35.6197 29.2147 35.6197 29.2767 35.6197 29.3802C35.2163 29.3802 34.8233 29.3802 34.3786 29.3802C34.3786 29.225 34.3786 29.0699 34.3786 28.9044C34.3682 28.3976 34.151 28.1701 33.6339 28.1701C31.9687 28.1701 30.3036 28.1701 28.6281 28.1701C28.4936 28.1701 28.3488 28.1701 28.1626 28.1701C28.1626 27.9012 28.142 27.6529 28.173 27.4151C28.1833 27.322 28.2661 27.2082 28.3385 27.1462C29.6416 26.267 30.9552 25.3879 32.279 24.5295C32.972 24.0847 33.758 23.8262 34.5854 23.8365C36.3747 23.8469 37.9158 23.247 39.2603 22.0679C39.4258 21.9231 39.6016 21.799 39.7671 21.6646C41.4426 23.5262 42.1563 25.6568 41.7529 28.1701Z" fill="white"/>
<path d="M20.716 44.4495C20.716 47.3247 20.716 50.1276 20.716 52.9718C19.4852 52.9718 18.2648 52.9718 17.0236 52.9718C17.003 50.9343 16.8168 48.8968 17.9545 47.0558C18.6268 45.9491 19.5059 45.0804 20.716 44.4495Z" fill="white"/>
<path d="M52.9954 52.9924C51.8474 52.9924 50.7614 52.9924 49.6754 52.9924C49.5617 52.9924 49.4479 52.9924 49.3031 52.9924C49.3031 50.1585 49.3031 47.335 49.3031 44.4597C50.0374 44.8217 50.658 45.3078 51.1958 45.8973C52.3645 47.2005 52.9747 48.7312 52.9954 50.4791C53.0058 51.3066 52.9954 52.1236 52.9954 52.9924Z" fill="white"/>
<path d="M30.6552 29.4319C31.493 29.4319 32.2894 29.4319 33.1271 29.4319C33.1271 30.0938 33.1582 30.7454 33.1168 31.397C33.0961 31.7073 32.8479 31.8831 32.5169 31.8934C32.1032 31.9038 31.6895 31.9038 31.2758 31.8934C30.9035 31.8831 30.6656 31.6452 30.6552 31.2832C30.6449 30.673 30.6552 30.0731 30.6552 29.4319Z" fill="white"/>
<path d="M39.3431 29.4421C39.3431 30.0627 39.3534 30.6729 39.3431 31.2728C39.3327 31.6451 39.0948 31.8727 38.7329 31.8933C38.3191 31.914 37.9054 31.914 37.4917 31.8933C37.1091 31.883 36.8712 31.6451 36.8712 31.2521C36.8608 30.6626 36.8712 30.073 36.8712 29.4525C37.6779 29.4421 38.4846 29.4421 39.3431 29.4421Z" fill="white"/>
<path d="M26.901 29.4215C26.9837 30.3213 27.0664 31.1901 27.1595 32.0589C27.1388 32.0899 27.1182 32.1106 27.0975 32.1416C26.6631 31.7383 26.1459 31.4073 25.8253 30.9315C25.3599 30.2386 25.9908 29.4008 26.901 29.4215Z" fill="white"/>
<path d="M42.8286 32.1624C42.9217 31.2005 43.0044 30.3214 43.0872 29.4526C43.5629 29.3699 43.956 29.5561 44.1732 29.9594C44.3904 30.3628 44.349 30.8592 44.0077 31.1695C43.656 31.5212 43.263 31.8108 42.8286 32.1624Z" fill="white"/>
<path d="M36.2403 48.6589C36.2299 49.3415 35.6714 49.8897 34.9992 49.8794C34.3062 49.8794 33.7477 49.3002 33.7684 48.6072C33.7891 47.9349 34.3579 47.3868 35.0302 47.3971C35.6921 47.4178 36.2506 47.9866 36.2403 48.6589Z" fill="white"/>
</svg>
