<svg width="70" height="70" viewBox="0 0 70 70" fill="none" xmlns="http://www.w3.org/2000/svg">
<circle cx="35" cy="35" r="35" fill="#F67741"/>
<g clip-path="url(#clip0_375_4)">
<path d="M17 22.1643C29.0214 22.1643 40.9893 22.1643 52.9786 22.1643C52.9786 24.9286 52.9786 27.6822 52.9786 30.5107C51.95 29.6964 50.7607 29.8679 49.6036 29.8679C47.15 29.8572 44.7071 29.8679 42.2536 29.8679C40.2179 29.8679 38.8571 31.2286 38.8571 33.275C38.8571 37.1 38.8571 40.9357 38.8571 44.7607C38.8571 44.9214 38.8571 45.0822 38.8571 45.2964C38.6964 45.2964 38.5571 45.2964 38.4179 45.2964C31.5929 45.2964 24.7571 45.2964 17.9321 45.2964C17.1929 45.2964 17 45.1143 17 44.375C17 37.1107 17 29.8572 17 22.5929C17 22.4643 17 22.3357 17 22.1643ZM27.9286 26C25.0143 26 22.0893 26 19.175 26C18.4893 26 18.2964 26.2036 18.2964 26.8786C18.2964 31.4322 18.2964 35.9857 18.2964 40.5393C18.2964 41.225 18.5 41.4286 19.175 41.4286C25.0143 41.4286 30.8536 41.4286 36.6929 41.4286C37.3786 41.4286 37.5821 41.225 37.5821 40.5393C37.5821 35.9857 37.5821 31.4322 37.5821 26.8786C37.5821 26.1929 37.3786 26 36.6929 26C33.7679 26 30.8429 26 27.9286 26Z" fill="white"/>
<path d="M52.9679 49.1323C48.6929 49.1323 44.4393 49.1323 40.1643 49.1323C40.1643 44.4287 40.1643 39.7573 40.1643 35.043C44.4179 35.043 48.6822 35.043 52.9679 35.043C52.9679 39.7144 52.9679 44.4073 52.9679 49.1323ZM48.5 37.6037C48.4679 37.2715 48.3179 37.0465 48.0179 36.9608C47.7072 36.8751 47.4607 36.993 47.3 37.2608C47.225 37.4001 47.1822 37.5608 47.1393 37.7108C46.6036 39.5858 46.0679 41.4608 45.5322 43.3358C45.2429 44.343 44.9536 45.3394 44.675 46.3465C44.5679 46.7323 44.7393 47.0751 45.0929 47.1823C45.4357 47.2894 45.7679 47.0965 45.9072 46.7215C45.9393 46.6251 45.9714 46.518 45.9929 46.4108C46.7857 43.6251 47.5893 40.8394 48.3822 38.043C48.4357 37.893 48.4679 37.743 48.5 37.6037ZM42.3286 42.0608C43.0357 41.3644 43.7107 40.7001 44.3643 40.0358C44.6964 39.693 44.7179 39.3287 44.4393 39.0501C44.1607 38.7823 43.8072 38.793 43.475 39.1144C42.6607 39.918 41.8464 40.7323 41.0322 41.5573C40.6786 41.9215 40.6893 42.2323 41.0429 42.6073C41.4393 43.0144 41.8357 43.4001 42.2322 43.7965C42.6714 44.2358 43.0893 44.6751 43.5393 45.093C43.8179 45.3608 44.1929 45.3394 44.4393 45.093C44.6857 44.8465 44.6964 44.4823 44.45 44.193C44.3643 44.0858 44.2679 44.0001 44.1714 43.9037C43.5822 43.3144 42.9714 42.7037 42.3286 42.0608ZM50.825 42.0823C50.0857 42.8108 49.4 43.4858 48.725 44.1715C48.4357 44.4715 48.4464 44.8358 48.7143 45.1037C48.9714 45.3501 49.3357 45.3715 49.6143 45.093C50.4714 44.2465 51.3286 43.4001 52.1643 42.543C52.4214 42.2751 52.4536 41.943 52.1964 41.6751C51.3286 40.7858 50.45 39.9073 49.5607 39.0394C49.3036 38.793 48.9929 38.8251 48.725 39.0608C48.4679 39.2858 48.4464 39.6394 48.6714 39.9287C48.7572 40.0358 48.8536 40.1215 48.95 40.218C49.55 40.818 50.1607 41.4287 50.825 42.0823Z" fill="white"/>
<path d="M17 20.8358C17 19.743 16.9893 18.6716 17.0107 17.6001C17.0214 17.2466 17.2571 17.043 17.6 17.0001C17.7179 16.9894 17.8464 17.0001 17.9643 17.0001C29.3214 17.0001 40.6678 17.0001 52.025 17.0001C52.8393 17.0001 53 17.1608 53 17.9966C53 18.9287 53 19.8716 53 20.8358C41.0107 20.8358 29.0321 20.8358 17 20.8358ZM39.7786 19.5716C43.4321 19.5716 47.0857 19.5716 50.75 19.5716C50.8786 19.5716 51.0178 19.5823 51.1464 19.5608C51.4893 19.4966 51.7036 19.2823 51.7036 18.9287C51.7036 18.5751 51.4893 18.3608 51.1464 18.2966C51.0286 18.2751 50.9107 18.2858 50.7821 18.2858C43.475 18.2858 36.1571 18.2858 28.85 18.2858C28.7321 18.2858 28.6036 18.2751 28.4857 18.2966C28.1428 18.3608 27.9286 18.5751 27.9286 18.9287C27.9286 19.2823 28.1428 19.4966 28.4857 19.5608C28.6143 19.5823 28.7536 19.5716 28.8821 19.5716C32.525 19.5716 36.1464 19.5716 39.7786 19.5716ZM19.25 18.2858C19.1536 18.2858 19.0571 18.2858 18.9714 18.2858C18.5536 18.3073 18.2857 18.5537 18.2857 18.918C18.2857 19.2823 18.5536 19.5394 18.9607 19.5608C19.1107 19.5716 19.25 19.5608 19.4 19.5608C19.9036 19.5608 20.2036 19.3251 20.2036 18.918C20.2036 18.5216 19.9143 18.2751 19.4107 18.2751C19.3571 18.2858 19.3036 18.2858 19.25 18.2858ZM21.8107 19.5716C21.9071 19.5716 22.0036 19.5716 22.0893 19.5716C22.4964 19.5501 22.775 19.3037 22.775 18.9394C22.775 18.5751 22.5071 18.3073 22.1 18.2858C21.9393 18.2751 21.7786 18.2858 21.6178 18.2858C21.1357 18.2966 20.8571 18.5323 20.8464 18.918C20.8357 19.3037 21.125 19.5608 21.5964 19.5716C21.6821 19.5716 21.7464 19.5716 21.8107 19.5716ZM24.3821 19.5716C24.4786 19.5716 24.575 19.5716 24.6607 19.5716C25.0786 19.5501 25.3464 19.3037 25.3571 18.9501C25.3678 18.5751 25.0893 18.3073 24.65 18.2966C24.4786 18.2858 24.2964 18.2858 24.125 18.2966C23.7071 18.3073 23.4393 18.5537 23.4286 18.918C23.4178 19.293 23.6964 19.5608 24.1357 19.5716C24.2214 19.5716 24.2964 19.5716 24.3821 19.5716Z" fill="white"/>
<path d="M40.1215 33.6931C40.1536 33.3181 40.1429 32.9645 40.2179 32.6324C40.4107 31.7645 41.15 31.1645 42.0393 31.1538C45.0607 31.1431 48.0929 31.1431 51.1143 31.1538C52.1429 31.1538 52.9572 31.9895 53 33.0181C53.0107 33.2324 53 33.4466 53 33.6824C48.7143 33.6931 44.45 33.6931 40.1215 33.6931ZM46.5607 33.0716C46.7643 33.0716 46.9572 33.0716 47.1607 33.0716C47.1822 33.0716 47.2143 33.0716 47.2357 33.0716C47.5893 33.0288 47.8465 32.7824 47.8465 32.4502C47.8572 32.0966 47.6 31.8181 47.225 31.7966C46.7857 31.7752 46.3357 31.7752 45.8965 31.7966C45.5322 31.8074 45.2857 32.0859 45.2857 32.4181C45.275 32.7716 45.5322 33.0395 45.9072 33.0716C46.1215 33.0824 46.3465 33.0716 46.5607 33.0716Z" fill="white"/>
<path d="M52.9679 50.4609C53.1072 51.8217 52.55 52.7217 51.4357 52.9574C51.2429 53.0002 51.0393 53.0002 50.8357 53.0002C48.0607 53.0002 45.2857 52.9574 42.5214 53.0217C41.0429 53.0538 39.95 52.1859 40.1536 50.4609C44.4179 50.4609 48.6822 50.4609 52.9679 50.4609ZM46.5607 52.3574C46.7857 52.3574 47.0214 52.3681 47.2464 52.3574C47.6 52.3359 47.8572 52.0681 47.8572 51.7359C47.8679 51.3824 47.6107 51.1038 47.2357 51.0824C46.7964 51.0609 46.3464 51.0609 45.9072 51.0824C45.5429 51.0931 45.2964 51.3717 45.2964 51.7038C45.2857 52.0574 45.5429 52.3252 45.9179 52.3574C46.1214 52.3681 46.3464 52.3574 46.5607 52.3574Z" fill="white"/>
<path d="M19.5822 38.5036C19.5822 34.7 19.5822 31.025 19.5822 27.3179C25.1429 27.3179 30.6822 27.3179 36.2643 27.3179C36.2643 31.0786 36.2643 34.85 36.2643 38.675C36.1465 38.525 36.0607 38.4179 35.975 38.3C35.0107 36.9286 34.0572 35.5572 33.0929 34.1857C32.6429 33.5429 32.2143 33.5429 31.7536 34.1964C31.175 35.0107 30.6072 35.8357 30.0072 36.6929C29.9107 36.5536 29.8357 36.4464 29.7714 36.3393C28.5393 34.3679 27.3072 32.3964 26.0643 30.425C25.6036 29.6964 25.1 29.6964 24.6393 30.425C23.0536 32.9643 21.4679 35.5036 19.8714 38.0429C19.8072 38.1714 19.7214 38.2893 19.5822 38.5036ZM32.4286 30.4893C32.4286 29.4286 31.55 28.5607 30.4679 28.5714C29.4286 28.5822 28.5607 29.4607 28.5714 30.5107C28.5822 31.5822 29.4607 32.4393 30.5215 32.4286C31.5715 32.4179 32.4286 31.5393 32.4286 30.4893Z" fill="white"/>
<path d="M25.3572 31.7214C27.1357 34.5607 28.8607 37.325 30.6179 40.1321C27.0929 40.1321 23.6322 40.1321 20.0964 40.1321C21.8536 37.3143 23.5893 34.55 25.3572 31.7214Z" fill="white"/>
<path d="M35.6965 40.1429C34.5179 40.1429 33.4358 40.1536 32.3643 40.1322C32.2465 40.1322 32.0965 40.0357 32.0322 39.9286C31.6358 39.3286 31.2608 38.7072 30.8858 38.0964C30.8322 38.0107 30.7893 37.85 30.8322 37.7857C31.3465 37.025 31.8715 36.275 32.4393 35.4714C33.5215 37.0464 34.5822 38.5572 35.6965 40.1429Z" fill="white"/>
<path d="M30.4999 31.143C30.1464 31.143 29.8678 30.843 29.8678 30.5001C29.8678 30.1465 30.1571 29.8572 30.5107 29.868C30.8642 29.868 31.1535 30.168 31.1428 30.5108C31.1321 30.8537 30.8428 31.143 30.4999 31.143Z" fill="white"/>
</g>
<defs>
<clipPath id="clip0_375_4">
<rect width="36" height="36.0214" fill="white" transform="translate(17 17)"/>
</clipPath>
</defs>
</svg>
