<svg width="28" height="30" viewBox="0 0 28 30" fill="none" xmlns="http://www.w3.org/2000/svg">
<path d="M16.461 30H2.62987C1.16883 30 0 28.8312 0 27.3701V2.62987C0 1.16883 1.16883 0 2.62987 0H16.461C17.9221 0 19.0909 1.16883 19.0909 2.62987V3.8961H18.1169V2.62987C18.1169 1.75325 17.3377 0.974026 16.461 0.974026H2.62987C1.75325 0.974026 0.974026 1.75325 0.974026 2.62987V27.3701C0.974026 28.2468 1.75325 29.026 2.62987 29.026H16.461C17.3377 29.026 18.1169 28.2468 18.1169 27.3701V24.3507H19.0909V27.3701C19.0909 28.8312 17.9221 30 16.461 30Z" fill="#3A2C96"/>
<path d="M11.8831 3.99351H7.20777C5.84413 3.99351 4.77271 2.92208 4.77271 1.55844V0H14.3182V1.55844C14.3182 2.92208 13.2467 3.99351 11.8831 3.99351ZM5.74673 0.974026V1.55844C5.74673 2.33766 6.42855 3.01948 7.20777 3.01948H11.8831C12.6623 3.01948 13.3441 2.33766 13.3441 1.55844V0.974026H5.74673Z" fill="#3A2C96"/>
<path d="M13.8312 30H4.96753V27.6624C4.96753 26.2987 6.03896 25.2273 7.40259 25.2273H11.3961C12.7597 25.2273 13.8312 26.2987 13.8312 27.6624V30ZM5.94156 29.026H12.8571V27.6624C12.8571 26.8831 12.1753 26.2013 11.3961 26.2013H7.40259C6.62337 26.2013 5.94156 26.8831 5.94156 27.6624V29.026Z" fill="#3A2C96"/>
<path d="M9.44799 24.0586C7.98695 24.0586 6.81812 22.8897 6.81812 21.4287C6.81812 19.9677 7.98695 18.7988 9.44799 18.7988C10.909 18.7988 12.0779 19.9677 12.0779 21.4287C12.0779 22.8897 10.8116 24.0586 9.44799 24.0586ZM9.44799 19.8703C8.57136 19.8703 7.79214 20.6495 7.79214 21.5261C7.79214 22.4027 8.57136 23.1819 9.44799 23.1819C10.3246 23.1819 11.1038 22.4027 11.1038 21.5261C11.1038 20.6495 10.3246 19.8703 9.44799 19.8703Z" fill="#3A2C96"/>
<path d="M27.4676 12.857C27.4676 13.7337 27.3702 14.5129 27.078 15.1947C26.7858 15.8765 26.4936 16.4609 26.0066 16.8505C25.5196 17.2401 25.0326 17.4349 24.3507 17.4349C23.8637 17.4349 23.3767 17.2401 23.0845 16.9479C22.6949 16.6557 22.5001 16.2661 22.5001 15.7791H22.4027C22.2079 16.2661 21.8183 16.6557 21.4287 16.9479C21.0391 17.2401 20.4546 17.3375 19.8702 17.3375C18.9936 17.3375 18.3118 17.0453 17.8248 16.4609C17.3378 15.8765 17.0455 14.9999 17.0455 14.0259C17.0455 12.857 17.4352 11.883 18.117 11.1038C18.7988 10.3246 19.7728 9.93495 20.8442 9.93495C21.2339 9.93495 21.7209 9.93495 22.2079 10.0324C22.6949 10.1298 23.1819 10.2272 23.5715 10.3246L23.3767 14.5129V14.7077C23.3767 15.7791 23.7663 16.2661 24.5455 16.2661C25.13 16.2661 25.5196 15.9739 25.9092 15.2921C26.2014 14.6103 26.3962 13.8311 26.3962 12.857C26.3962 11.7856 26.2014 10.8116 25.7144 10.0324C25.2274 9.25313 24.6429 8.57131 23.8637 8.1817C23.0845 7.79209 22.1105 7.49989 21.0391 7.49989C19.6754 7.49989 18.604 7.79209 17.63 8.27911C16.6559 8.86352 15.8767 9.64274 15.3897 10.6168C14.9027 11.5908 14.6105 12.7596 14.6105 14.1233C14.6105 15.9739 15.0975 17.3375 16.0715 18.3116C17.0455 19.2856 18.4092 19.7726 20.1624 19.7726C21.4287 19.7726 22.6949 19.4804 24.0585 18.9934V20.1622C22.8897 20.6492 21.6235 20.9414 20.1624 20.9414C18.0196 20.9414 16.3637 20.357 15.1949 19.1882C14.0261 18.0194 13.4417 16.3635 13.4417 14.2207C13.4417 12.6622 13.7339 11.2986 14.4157 10.1298C15.0975 8.96092 15.9741 7.9869 17.1429 7.30508C18.3118 6.62326 19.6754 6.33105 21.1365 6.33105C22.4027 6.33105 23.5715 6.62326 24.5455 7.11028C25.5196 7.69469 26.2988 8.37651 26.8832 9.35054C27.1754 10.422 27.4676 11.5908 27.4676 12.857ZM18.2144 14.0259C18.2144 15.4869 18.7988 16.2661 19.9676 16.2661C21.2339 16.2661 21.8183 15.2921 22.0131 13.4414L22.1105 11.1038C21.7209 11.0064 21.2339 10.909 20.7468 10.909C19.9676 10.909 19.3832 11.2012 18.8962 11.6882C18.5066 12.37 18.2144 13.0518 18.2144 14.0259Z" fill="#3A2C96"/>
</svg>
