<svg width="70" height="70" viewBox="0 0 70 70" fill="none" xmlns="http://www.w3.org/2000/svg">
<g clip-path="url(#clip0_15_651)">
<path d="M69.2891 55.092C69.0422 57.3441 67.2181 59.1035 64.9576 59.2618C64.7705 59.2751 64.5849 59.2882 64.3991 59.3003C63.0208 59.3938 61.9492 60.5384 61.9492 61.9202V67.1434C61.9492 68.9005 59.9381 69.8976 58.5405 68.8334C55.99 66.8906 52.5969 64.0009 50.5151 61.0044C50.0225 60.2949 49.2088 59.8814 48.3446 59.8862C41.9348 59.9186 35.525 59.7125 29.1152 59.2618C27.3282 59.1371 25.8109 58.0141 25.1349 56.4345C24.9552 56.0198 24.8352 55.5715 24.7837 55.103C23.8345 46.4316 23.8345 37.759 24.7837 29.0862C25.0306 26.8365 26.856 25.0854 29.1128 24.9272C38.6615 24.2572 48.2091 24.1231 57.7567 24.5245C60.1561 24.624 62.5569 24.7581 64.9563 24.9272C67.2144 25.0854 69.0409 26.8365 69.2878 29.0862C70.2372 37.7551 70.2372 46.423 69.2891 55.092Z" fill="#78D0B1"/>
<path d="M27.2288 28.8478C26.2566 37.7266 26.2566 46.6063 27.2288 55.4833C27.2815 55.9639 27.4044 56.4222 27.5883 56.8474C28.0586 57.947 28.9273 58.8305 30.0104 59.3231C29.7119 59.3037 29.4135 59.2833 29.1149 59.2621C27.3277 59.1374 25.8102 58.0145 25.1347 56.4343C24.9545 56.0194 24.8343 55.5712 24.7835 55.1027C23.8336 46.4319 23.8336 37.759 24.7835 29.0862C25.0303 26.8369 26.8553 25.0857 29.112 24.9278C29.5528 24.8973 29.9936 24.8668 30.4353 24.8391C28.7166 25.4304 27.4349 26.97 27.2288 28.8478Z" fill="#66B49D"/>
<path d="M41.7749 51.8544C41.7776 53.2677 43.6329 54.4119 45.0462 54.4119H55.9845C57.1217 54.4119 58.0438 53.4899 58.0438 52.3519C58.0438 51.7833 57.8139 51.2678 57.4412 50.8952C57.0685 50.5226 56.5531 50.292 55.9845 50.292H56.7239C57.8611 50.292 58.7838 49.3707 58.7838 48.2321C58.7838 47.6628 58.554 47.1486 58.1799 46.7753C57.8079 46.4026 57.293 46.1728 56.7237 46.1728H57.4638C58.5871 46.1728 59.5005 45.2726 59.5224 44.154C59.5456 42.9982 58.5731 42.0529 57.4172 42.0529H56.7236C57.8608 42.0529 58.7835 41.1309 58.7835 39.9923C58.7835 39.423 58.5537 38.9088 58.1797 38.5356C57.8076 38.1629 57.2928 37.933 56.7235 37.933H50.9299C50.9217 37.92 50.9191 37.9161 50.9109 37.9031L53.1701 33.0903C53.8112 31.7259 53.224 30.1003 51.8596 29.4593C51.485 29.2832 51.0904 29.2003 50.7017 29.2003C49.676 29.2003 48.6936 29.7809 48.2286 30.7706L47.2627 32.8286C46.692 34.0437 45.778 35.0707 44.6207 35.7495C43.8567 36.1972 43.2204 36.8802 42.8317 37.7543C42.5666 38.3508 42.4478 38.9793 42.459 39.5964L41.7749 51.8544Z" fill="#FFDDCE"/>
<path d="M52.7042 30.0762C52.6113 30.0662 52.5183 30.0616 52.4252 30.0616C51.3995 30.0616 50.4171 30.6422 49.9521 31.6319L48.9862 33.69C48.4155 34.905 47.5015 35.932 46.3442 36.6108C45.5802 37.0586 42.832 37.7541 42.7305 42.9602C42.7225 43.3668 42.5757 43.7421 42.4681 44.1167L42.4595 39.5962C42.4481 38.9791 42.5671 38.3507 42.8322 37.7542C43.2207 36.88 43.8572 36.1971 44.6211 35.7494C45.7783 35.0704 46.6924 34.0435 47.2631 32.8285L48.229 30.7705C48.694 29.7806 49.6765 29.2001 50.7021 29.2001C51.0907 29.2001 51.4854 29.2831 51.86 29.4592C52.1887 29.6133 52.4723 29.8252 52.7042 30.0762Z" fill="#FFCBBE"/>
<path d="M58.0438 52.3519C58.0438 53.4899 57.1217 54.4119 55.9845 54.4119H44.7606C43.5727 54.4119 42.4715 53.8379 41.7898 52.8946H55.9844C56.8539 52.8946 57.5972 52.3559 57.8995 51.5933C57.9002 51.594 57.9002 51.5953 57.9016 51.5959C57.9016 51.5959 57.9009 51.5966 57.9016 51.5966C57.9933 51.8305 58.0438 52.0856 58.0438 52.3519Z" fill="#FFCBBE"/>
<path d="M58.6383 47.4733C58.7313 47.7082 58.783 47.9641 58.783 48.2318C58.783 49.3703 57.8611 50.2922 56.7235 50.2922H55.9342C55.5151 50.2922 55.1755 49.9525 55.1755 49.5335C55.1755 49.1145 55.5151 48.7748 55.9342 48.7748H56.7235C57.5933 48.775 58.3363 48.2359 58.6383 47.4733Z" fill="#FFCBBE"/>
<path d="M59.3783 43.3535C59.4713 43.5884 59.523 43.8444 59.523 44.112C59.523 45.2505 58.6011 46.1724 57.4635 46.1724H56.6742C56.2551 46.1724 55.9155 45.8328 55.9155 45.4137C55.9155 44.9947 56.2551 44.6551 56.6742 44.6551H57.4635C58.3331 44.6551 59.0763 44.116 59.3783 43.3535Z" fill="#FFCBBE"/>
<path d="M58.6393 39.2336C58.7323 39.4685 58.784 39.7244 58.784 39.9921C58.784 41.1306 57.8621 42.0525 56.7244 42.0525H55.9352C55.5161 42.0525 55.1765 41.7129 55.1765 41.2938C55.1765 40.8748 55.5161 40.5352 55.9352 40.5352H56.7244C57.5941 40.5353 58.3373 39.9961 58.6393 39.2336Z" fill="#FFCBBE"/>
<path d="M36.0525 39.5962V52.442C36.0525 53.3329 36.7748 54.0552 37.6656 54.0552H40.8464C41.7373 54.0552 42.4595 53.3329 42.4595 52.442V39.5962C42.4595 38.7053 41.7373 37.9831 40.8464 37.9831H37.6656C36.7748 37.9831 36.0525 38.7052 36.0525 39.5962Z" fill="#F1F4F6"/>
<path d="M36.0521 48.3958V52.4425C36.0521 53.3333 36.7748 54.0552 37.6657 54.0552H40.8463C41.7372 54.0552 42.459 53.3333 42.459 52.4425V48.3958C42.459 49.2867 41.7372 50.0095 40.8463 50.0095H37.6657C36.7748 50.0094 36.0521 49.2867 36.0521 48.3958Z" fill="#D0E2E7"/>
<path d="M0.684082 30.3388C0.921426 32.5043 2.67553 34.1962 4.84922 34.3484C5.029 34.3611 5.2077 34.3737 5.38625 34.3853C6.7116 34.4751 7.74191 35.5758 7.74191 36.9046V41.9271C7.74191 43.6167 9.6758 44.5755 11.0196 43.5522C13.4721 41.684 16.7347 38.9054 18.7367 36.0241C19.2104 35.3419 19.9929 34.9442 20.8238 34.9489C26.9874 34.98 33.1508 34.7818 39.3144 34.3484C41.0327 34.2285 42.4917 33.1487 43.1418 31.6296C43.3146 31.2308 43.4299 30.7999 43.4795 30.3492C44.3922 22.011 44.3922 13.6716 43.4795 5.33216C43.242 3.16899 41.4868 1.48517 39.3167 1.333C30.1347 0.688915 20.954 0.559853 11.7732 0.94581C9.46594 1.04151 7.15744 1.17058 4.85018 1.333C2.67895 1.48517 0.922656 3.16899 0.685176 5.33229C-0.227559 13.6682 -0.227559 22.003 0.684082 30.3388Z" fill="#F9DA41"/>
<path d="M3.03635 5.10302C2.10161 13.6407 2.10161 22.1792 3.03635 30.7151C3.08708 31.1772 3.2052 31.6178 3.38198 32.0266C3.83424 33.084 4.66959 33.9336 5.71098 34.4072C5.42401 34.3886 5.1369 34.3689 4.84993 34.3485C3.13137 34.2286 1.67231 33.149 1.02276 31.6295C0.849536 31.2305 0.734009 30.7994 0.685064 30.349C-0.228354 22.0113 -0.228354 13.6717 0.685064 5.33216C0.922271 3.16927 2.67733 1.48544 4.84733 1.33341C5.27116 1.30416 5.69512 1.27476 6.11977 1.2481C4.46698 1.81699 3.23446 3.29738 3.03635 5.10302Z" fill="#EDC932"/>
<path d="M29.489 17.2009C30.7854 17.2009 31.8399 15.4485 31.8399 13.2945C31.8399 11.1405 30.7854 9.3882 29.489 9.3882C28.1928 9.3882 27.1383 11.1405 27.1383 13.2945C27.1383 15.4485 28.1928 17.2009 29.489 17.2009Z" fill="#21386B"/>
<path d="M14.6752 17.2009C15.9716 17.2009 17.0261 15.4485 17.0261 13.2945C17.0261 11.1405 15.9716 9.3882 14.6752 9.3882C13.379 9.3882 12.3245 11.1405 12.3245 13.2945C12.3245 15.4485 13.379 17.2009 14.6752 17.2009Z" fill="#21386B"/>
<path d="M30.1791 20.0724C29.641 19.8461 29.0219 20.0978 28.7952 20.6354C27.6538 23.3429 25.0186 25.0924 22.0821 25.0924C19.1453 25.0924 16.5102 23.3429 15.3688 20.6354C15.1422 20.0978 14.5223 19.8461 13.9849 20.0724C13.4473 20.299 13.1952 20.9185 13.4219 21.4561C14.8943 24.9484 18.2936 27.2051 22.0819 27.2051C25.8701 27.2051 29.2694 24.9484 30.7418 21.4561C30.9688 20.9185 30.7167 20.299 30.1791 20.0724Z" fill="#21386B"/>
</g>
<defs>
<clipPath id="clip0_15_651">
<rect width="70" height="70" fill="white"/>
</clipPath>
</defs>
</svg>
