<svg width="70" height="70" viewBox="0 0 70 70" fill="none" xmlns="http://www.w3.org/2000/svg">
<path d="M49 49.0752H56V61.9131H49V49.0752Z" fill="#D6AA49"/>
<path d="M7.20505 50.2236H6.99997C3.71872 50.1006 1.13474 47.3936 1.16208 44.1123V5.88574C1.16208 4.60059 2.21481 3.56152 3.49997 3.54785H20.0293C20.6445 3.54785 21.2461 3.79395 21.6836 4.23145L24.9785 7.52637C25.416 7.96387 26.0175 8.20996 26.6328 8.20996H40.8379C42.123 8.20996 43.1621 9.2627 43.1758 10.5479V15.21L12.8379 50.21L7.20505 50.2236Z" fill="#2783EC"/>
<path d="M54.8379 17.5479V50.21H7.20508C10.3496 50.1006 12.8379 47.5166 12.8242 44.3721V17.5479C12.8242 16.2627 13.877 15.2236 15.1621 15.21H52.5C53.7852 15.2236 54.8242 16.2627 54.8379 17.5479Z" fill="#439AF6"/>
<path d="M18.6621 19.8857H32.6621C33.3047 19.8857 33.8242 20.4053 33.8242 21.0479V28.0479C33.8242 28.6904 33.3047 29.21 32.6621 29.21H18.6621C18.0195 29.21 17.5 28.6904 17.5 28.0479V21.0479C17.5 20.4053 18.0195 19.8857 18.6621 19.8857Z" fill="#F0F2F5"/>
<path d="M47.838 59.5752H57.1758C59.7598 59.5752 61.838 61.667 61.838 64.2373V65.3994C61.838 66.042 61.3184 66.5615 60.6758 66.5615H44.338C43.6954 66.5615 43.1758 66.042 43.1758 65.3994V64.2373C43.1622 61.6533 45.254 59.5752 47.838 59.5752Z" fill="#FCCB55"/>
<path d="M44.3379 45.5752C43.0527 45.0146 41.8906 44.1807 40.9609 43.1279C37.8984 40.0654 36.1758 35.9092 36.1758 31.5752C36.1758 30.9326 36.6953 30.4131 37.3379 30.4131H67.6758C68.3184 30.4131 68.8379 30.9326 68.8379 31.5752C68.8379 35.9092 67.1152 40.0654 64.0527 43.1279C63.1094 44.1807 61.9609 45.0146 60.6758 45.5752H44.3379Z" fill="#FFD880"/>
<path d="M44.3379 26.8994H60.6758C61.3184 26.8994 61.8379 27.4189 61.8379 28.0615V43.2236C61.8379 48.3779 57.6543 52.5615 52.5 52.5615C47.3457 52.5615 43.1621 48.3779 43.1621 43.2236V28.0752C43.1621 27.4326 43.6953 26.8994 44.3379 26.8994Z" fill="#FCCB55"/>
<path d="M31.5 35.0478H18.6621C18.0195 35.0478 17.5 34.5283 17.5 33.8857C17.5 33.2432 18.0195 32.7236 18.6621 32.7236H31.5C32.1426 32.7236 32.6621 33.2432 32.6621 33.8857C32.6621 34.5283 32.1426 35.0478 31.5 35.0478Z" fill="#1F61A3"/>
<path d="M26.8379 39.7236H18.6758C18.0332 39.7236 17.5137 39.2041 17.5137 38.5615C17.5137 37.9189 18.0332 37.3994 18.6758 37.3994H26.8379C27.4805 37.3994 28 37.9189 28 38.5615C28 39.2041 27.4805 39.7236 26.8379 39.7236Z" fill="#1F61A3"/>
<path d="M47.8379 33.8994C47.1953 33.8994 46.6758 33.3799 46.6758 32.7373V31.5752C46.6758 30.9326 47.1953 30.4131 47.8379 30.4131C48.4805 30.4131 49 30.9326 49 31.5752V32.7373C49 33.3799 48.4805 33.8994 47.8379 33.8994Z" fill="#FFE7B3"/>
<path d="M52.5 49.0752C49.2734 49.0752 46.6758 46.4639 46.6621 43.2373V37.3994C46.6621 36.7568 47.1816 36.2373 47.8242 36.2373C48.4668 36.2373 48.9863 36.7568 48.9863 37.3994V43.2373C48.9863 45.165 50.5586 46.7373 52.4863 46.7373C53.1289 46.7373 53.6484 47.2568 53.6484 47.8994C53.6484 48.542 53.1426 49.0752 52.5 49.0752Z" fill="#FFE7B3"/>
</svg>
