<svg width="70" height="71" viewBox="0 0 70 71" fill="none" xmlns="http://www.w3.org/2000/svg">
<path d="M9.57078 70.0402C6.37991 70.0402 3.19087 70.0402 0 70.0402C0 68.6813 0 67.3206 0 65.969C2.59361 65.7881 4.42192 63.8283 4.25206 61.2457C4.17169 60.0201 4.23014 58.7854 4.2411 57.5543C4.25936 55.5142 4.92237 53.6968 6.30502 52.2009C6.76347 51.7041 6.83653 51.2311 6.80731 50.6137C6.62283 46.6995 6.39269 42.7854 6.32511 38.8676C6.18082 30.4786 6.40548 22.0968 7.25662 13.7443C7.58904 10.4822 7.96712 7.22011 8.91142 4.06577C9.20731 3.07764 9.62374 2.0749 10.2119 1.23837C11.3662 -0.412771 13.4502 -0.401813 14.6594 1.20549C15.116 1.81189 15.5306 2.52604 15.7041 3.25298C16.2776 5.63837 16.7489 8.0475 17.2201 10.4566C17.3991 11.3699 17.4758 12.305 17.6128 13.3242C17.9507 13.0466 18.1772 12.8603 18.4037 12.6722C21.695 9.95435 25.3005 7.76988 29.295 6.25024C34.3763 4.31782 39.5927 3.54522 44.979 4.60275C56.9187 6.94431 66.8621 16.8238 69.3169 28.7525C69.6037 30.1498 69.7753 31.5726 70 32.9845C70 34.3069 70 35.6274 70 36.9498C69.9598 37.169 69.916 37.3881 69.8795 37.6073C69.5836 39.3315 69.421 41.0922 68.9717 42.7763C64.7763 58.4749 49.3516 68.1973 33.39 65.242C31.5598 64.9041 30.1717 63.8977 29.2658 62.2685C28.431 60.769 28.3269 59.1836 28.6356 57.5032C29.2895 53.9452 28.5315 50.7964 25.6822 48.3617C24.0932 47.0027 22.1991 46.2338 20.1991 45.7023C19.6183 45.547 19.0283 45.4283 18.4073 45.284C18.2849 47.3644 18.1534 49.3388 18.0676 51.3169C18.0584 51.5379 18.2594 51.8064 18.4274 51.9927C19.7662 53.463 20.5388 55.1817 20.6283 57.1653C20.8731 62.5352 17.4283 67.5982 12.3361 69.3461C11.4411 69.6512 10.4932 69.8119 9.57078 70.0402ZM18.5735 40.979C20.495 41.5763 22.3616 42.0256 24.126 42.7324C27.8027 44.2064 30.6119 46.663 32.0767 50.4438C33.1105 53.1142 33.1671 55.8594 32.6137 58.6448C32.3416 60.0128 33.021 61.0137 34.3525 61.2493C37.2457 61.7626 40.1553 61.8484 43.0594 61.3845C49.9927 60.2776 55.7242 57.0137 60.0639 51.4995C65.2548 44.9023 67.0557 37.4247 65.2055 29.2018C63.7315 22.6539 60.1443 17.3973 54.789 13.4009C48.9571 9.05024 42.4548 7.25298 35.2219 8.77079C28.5973 10.1607 23.0813 13.5544 18.3543 18.3123C18.168 18.4986 18.0822 18.8749 18.095 19.1562C18.1954 21.547 18.3288 23.9343 18.4566 26.3233C18.4639 26.4658 18.5005 26.6064 18.5297 26.7909C21.4868 23.7187 25.2037 24.3361 27.2511 26.1133C29.6292 28.1772 30.1096 31.6475 28.3562 34.2155C27.2329 35.8594 25.6493 36.7708 23.6731 36.9206C21.7132 37.0703 20.0584 36.3123 18.5772 34.8475C18.5735 37.0411 18.5735 39.0649 18.5735 40.979ZM12.4384 7.13974C10.6119 17.0411 10.4073 27.0338 10.3817 37.0502C11.7991 37.0502 13.1105 37.0502 14.5041 37.0502C14.4639 27.0119 14.2758 17.0247 12.4384 7.13974ZM7.24201 65.8795C12.232 66.4329 16.5443 62.5918 16.5425 57.684C16.5425 55.3589 14.7525 53.516 12.4804 53.4977C10.1973 53.4795 8.37626 55.2822 8.34338 57.6037C8.32877 58.6959 8.31233 59.79 8.34703 60.8822C8.4 62.6174 8.16986 64.2849 7.24201 65.8795ZM14.0932 49.5087C14.2046 46.7215 14.316 43.9817 14.4256 41.2347C13.0429 41.2347 11.7808 41.2347 10.6119 41.2347C10.6119 42.6502 10.5845 44.0164 10.6192 45.3808C10.6539 46.758 10.7489 48.1315 10.8183 49.5105C11.4155 49.4667 11.9142 49.4009 12.411 49.4009C12.9315 49.4009 13.4521 49.4648 14.0932 49.5087ZM23.2639 28.7452C22.1425 28.747 21.2128 29.6548 21.2037 30.7598C21.1945 31.8703 22.1132 32.8201 23.2091 32.8365C24.3543 32.853 25.3059 31.916 25.2931 30.7799C25.2822 29.6475 24.3799 28.7434 23.2639 28.7452ZM54.9443 45.4265C51.569 45.4283 48.8128 42.6813 48.8055 39.3059C48.7982 35.8886 51.5635 33.1087 54.9553 33.1251C58.3379 33.1416 61.0904 35.8831 61.1032 39.2512C61.1142 42.6594 58.3562 45.4247 54.9443 45.4265ZM54.937 41.3242C56.0566 41.3242 56.99 40.411 56.9973 39.3096C57.0046 38.1991 56.0877 37.2493 54.9918 37.2311C53.8447 37.2128 52.8986 38.1461 52.9078 39.2859C52.9187 40.4164 53.821 41.3242 54.937 41.3242ZM34.8146 25.3297C31.4466 25.3224 28.7068 22.5626 28.7105 19.1781C28.7142 15.8009 31.4667 13.0338 34.8274 13.0283C38.2338 13.0228 41.0119 15.7936 41.0082 19.1891C41.0027 22.59 38.232 25.337 34.8146 25.3297ZM34.8146 17.1324C33.7114 17.147 32.8073 18.084 32.8128 19.2055C32.8183 20.347 33.7699 21.253 34.9297 21.2238C36.0311 21.1964 36.9279 20.2411 36.9041 19.1251C36.8804 18.0292 35.9233 17.1178 34.8146 17.1324ZM44.5607 23.3936C44.5717 20.0219 47.3333 17.2731 50.705 17.2749C54.0986 17.2767 56.8822 20.0749 56.8603 23.4649C56.8384 26.8694 54.0585 29.5964 50.6338 29.5708C47.2585 29.547 44.5479 26.7909 44.5607 23.3936ZM48.6648 23.4301C48.6667 24.568 49.5507 25.4594 50.6868 25.4667C51.8411 25.474 52.7781 24.5352 52.7562 23.3954C52.7342 22.2904 51.7881 21.3662 50.6868 21.379C49.5653 21.39 48.663 22.305 48.6648 23.4301ZM43.3863 44.7379C46.7635 44.7489 49.4977 47.5032 49.4922 50.8859C49.4868 54.2922 46.705 57.0612 43.3096 57.0393C39.9434 57.0174 37.1927 54.2466 37.1945 50.8804C37.1982 47.4795 39.9726 44.727 43.3863 44.7379ZM45.39 50.8603C45.3863 49.7443 44.4731 48.8457 43.3425 48.8438C42.232 48.8402 41.3151 49.7516 41.3005 50.8731C41.2858 51.9964 42.2521 52.9498 43.3881 52.9352C44.4877 52.9206 45.3936 51.9817 45.39 50.8603Z" fill="#3578FF"/>
</svg>
