<svg width="50" height="50" viewBox="0 0 50 50" fill="none" xmlns="http://www.w3.org/2000/svg">
<circle cx="25" cy="25" r="25" fill="url(#paint0_linear_15_965)"/>
<path d="M22.4688 22.4688C23.1771 21.7604 24.0312 21.4062 25.0312 21.4062C26.0312 21.4062 26.875 21.7604 27.5625 22.4688C28.2708 23.1562 28.625 24 28.625 25C28.625 26 28.2708 26.8542 27.5625 27.5625C26.875 28.25 26.0312 28.5938 25.0312 28.5938C24.0312 28.5938 23.1771 28.25 22.4688 27.5625C21.7812 26.8542 21.4375 26 21.4375 25C21.4375 24 21.7812 23.1562 22.4688 22.4688ZM23.375 26.6562C23.8333 27.1146 24.3854 27.3438 25.0312 27.3438C25.6771 27.3438 26.2292 27.1146 26.6875 26.6562C27.1458 26.1979 27.375 25.6458 27.375 25C27.375 24.3542 27.1458 23.8021 26.6875 23.3438C26.2292 22.8854 25.6771 22.6562 25.0312 22.6562C24.3854 22.6562 23.8333 22.8854 23.375 23.3438C22.9167 23.8021 22.6875 24.3542 22.6875 25C22.6875 25.6458 22.9167 26.1979 23.375 26.6562ZM29.3438 20.6875C29.5104 20.8333 29.5938 21.0208 29.5938 21.25C29.5938 21.4792 29.5104 21.6771 29.3438 21.8438C29.1979 22.0104 29.0104 22.0938 28.7812 22.0938C28.5521 22.0938 28.3542 22.0104 28.1875 21.8438C28.0208 21.6771 27.9375 21.4792 27.9375 21.25C27.9375 21.0208 28.0208 20.8333 28.1875 20.6875C28.3542 20.5208 28.5521 20.4375 28.7812 20.4375C29.0104 20.4375 29.1979 20.5208 29.3438 20.6875ZM32 22.125C32.0208 22.6875 32.0312 23.6458 32.0312 25C32.0312 26.3542 32.0208 27.3125 32 27.875C31.9375 29.1458 31.5521 30.1354 30.8438 30.8438C30.1562 31.5312 29.1771 31.8958 27.9062 31.9375C27.3438 31.9792 26.3854 32 25.0312 32C23.6771 32 22.7188 31.9792 22.1562 31.9375C20.8854 31.875 19.8958 31.5 19.1875 30.8125C18.5 30.125 18.1354 29.1458 18.0938 27.875C18.0521 27.3125 18.0312 26.3542 18.0312 25C18.0312 23.6458 18.0521 22.6771 18.0938 22.0938C18.1562 20.8438 18.5312 19.875 19.2188 19.1875C19.9062 18.4792 20.8854 18.0938 22.1562 18.0312C22.7188 18.0104 23.6771 18 25.0312 18C26.3854 18 27.3438 18.0104 27.9062 18.0312C29.1771 18.0938 30.1562 18.4792 30.8438 19.1875C31.5521 19.875 31.9375 20.8542 32 22.125ZM30.5 29.125C30.5625 28.9583 30.6146 28.75 30.6562 28.5C30.6979 28.2292 30.7292 27.9167 30.75 27.5625C30.7708 27.1875 30.7812 26.8854 30.7812 26.6562C30.7812 26.4271 30.7812 26.1042 30.7812 25.6875C30.7812 25.2708 30.7812 25.0417 30.7812 25C30.7812 24.9375 30.7812 24.7083 30.7812 24.3125C30.7812 23.8958 30.7812 23.5729 30.7812 23.3438C30.7812 23.1146 30.7708 22.8229 30.75 22.4688C30.7292 22.0938 30.6979 21.7812 30.6562 21.5312C30.6146 21.2604 30.5625 21.0417 30.5 20.875C30.25 20.2292 29.8021 19.7812 29.1562 19.5312C28.9896 19.4688 28.7708 19.4167 28.5 19.375C28.25 19.3333 27.9375 19.3021 27.5625 19.2812C27.2083 19.2604 26.9167 19.25 26.6875 19.25C26.4792 19.25 26.1562 19.25 25.7188 19.25C25.3021 19.25 25.0729 19.25 25.0312 19.25C24.9896 19.25 24.7604 19.25 24.3438 19.25C23.9271 19.25 23.6042 19.25 23.375 19.25C23.1458 19.25 22.8438 19.2604 22.4688 19.2812C22.1146 19.3021 21.8021 19.3333 21.5312 19.375C21.2812 19.4167 21.0729 19.4688 20.9062 19.5312C20.2604 19.7812 19.8125 20.2292 19.5625 20.875C19.5 21.0417 19.4479 21.2604 19.4062 21.5312C19.3646 21.7812 19.3333 22.0938 19.3125 22.4688C19.2917 22.8229 19.2812 23.1146 19.2812 23.3438C19.2812 23.5521 19.2812 23.875 19.2812 24.3125C19.2812 24.7292 19.2812 24.9583 19.2812 25C19.2812 25.0417 19.2812 25.2708 19.2812 25.6875C19.2812 26.1042 19.2812 26.4271 19.2812 26.6562C19.2812 26.8854 19.2917 27.1875 19.3125 27.5625C19.3333 27.9167 19.3646 28.2292 19.4062 28.5C19.4479 28.75 19.5 28.9583 19.5625 29.125C19.8333 29.7708 20.2812 30.2188 20.9062 30.4688C21.0729 30.5312 21.2812 30.5833 21.5312 30.625C21.8021 30.6667 22.1146 30.6979 22.4688 30.7188C22.8438 30.7396 23.1354 30.75 23.3438 30.75C23.5729 30.75 23.8958 30.75 24.3125 30.75C24.75 30.75 24.9896 30.75 25.0312 30.75C25.0938 30.75 25.3229 30.75 25.7188 30.75C26.1354 30.75 26.4583 30.75 26.6875 30.75C26.9167 30.75 27.2083 30.7396 27.5625 30.7188C27.9375 30.6979 28.25 30.6667 28.5 30.625C28.7708 30.5833 28.9896 30.5312 29.1562 30.4688C29.8021 30.1979 30.25 29.75 30.5 29.125Z" fill="white"/>
<defs>
<linearGradient id="paint0_linear_15_965" x1="25" y1="0" x2="25" y2="50" gradientUnits="userSpaceOnUse">
<stop stop-color="#F30004"/>
<stop offset="1" stop-color="#BA00B1"/>
</linearGradient>
</defs>
</svg>
