<svg width="50" height="50" viewBox="0 0 50 50" fill="none" xmlns="http://www.w3.org/2000/svg">
<circle cx="25" cy="25" r="25" fill="#2867B2"/>
<path d="M19.5156 33H16.2461V22.4883H19.5156V33ZM19.2344 20.4844C18.8594 20.8594 18.4141 21.0469 17.8984 21.0469C17.3828 21.0469 16.9375 20.8594 16.5625 20.4844C16.1875 20.1094 16 19.6641 16 19.1484C16 18.6328 16.1875 18.1875 16.5625 17.8125C16.9375 17.4375 17.3828 17.25 17.8984 17.25C18.4141 17.25 18.8594 17.4375 19.2344 17.8125C19.6094 18.1875 19.7969 18.6328 19.7969 19.1484C19.7969 19.6641 19.6094 20.1094 19.2344 20.4844ZM31.75 33H28.4805V27.8672C28.4805 27.4688 28.4688 27.1523 28.4453 26.918C28.4219 26.6602 28.3633 26.3789 28.2695 26.0742C28.1758 25.7461 28 25.5 27.7422 25.3359C27.5078 25.1719 27.1914 25.0898 26.793 25.0898C26.0195 25.0898 25.4922 25.3359 25.2109 25.8281C24.9531 26.3203 24.8242 26.9766 24.8242 27.7969V33H21.5547V22.4883H24.7188V23.9297H24.7539C24.9883 23.4609 25.375 23.0625 25.9141 22.7344C26.4531 22.3828 27.0977 22.207 27.8477 22.207C28.6445 22.207 29.3008 22.3359 29.8164 22.5938C30.3555 22.8281 30.7539 23.1914 31.0117 23.6836C31.293 24.1523 31.4805 24.668 31.5742 25.2305C31.6914 25.793 31.75 26.4609 31.75 27.2344V33Z" fill="white"/>
</svg>
