<svg width="26" height="32" viewBox="0 0 26 32" fill="none" xmlns="http://www.w3.org/2000/svg">
<path d="M12.7752 1C6.24532 1 1 6.24532 1 12.7752C1 21.7672 11.7047 30.331 12.1329 30.7591C12.5611 31.0803 13.0963 31.0803 13.4175 30.7591C13.8457 30.438 24.5504 21.7672 24.5504 12.7752C24.5504 6.24532 19.3051 1 12.7752 1ZM12.7752 17.8064C9.99197 17.8064 7.74398 15.5584 7.74398 12.7752C7.74398 9.99197 9.99197 7.74398 12.7752 7.74398C15.5584 7.74398 17.8064 9.99197 17.8064 12.7752C17.8064 15.5584 15.5584 17.8064 12.7752 17.8064Z" stroke="#3A2C96" stroke-miterlimit="10"/>
</svg>
