<svg width="86" height="87" viewBox="0 0 86 87" fill="none" xmlns="http://www.w3.org/2000/svg">
<path d="M4.9042 0C5.13566 0.0950001 5.36366 0.196909 5.59684 0.286728C7.47266 1.007 8.55221 2.9381 8.17394 4.90546C7.80257 6.83656 6.12711 8.24601 4.16493 8.27365C2.17165 8.30301 0.43056 6.83137 0.06265 4.80873C-0.282805 2.90873 0.82956 0.986274 2.67947 0.283273C2.91438 0.193455 3.14411 0.0950001 3.37729 0C3.88511 0 4.39466 0 4.9042 0ZM5.48457 4.15755C5.49493 3.42691 4.89902 2.79646 4.17184 2.77055C3.43256 2.74291 2.75202 3.4131 2.76584 4.15582C2.77793 4.88819 3.38938 5.4841 4.13038 5.4841C4.87311 5.4841 5.4742 4.89683 5.48457 4.15755Z" fill="#EA4C89"/>
<path d="M62.5019 67.7266C63.7697 69.4193 63.7663 71.245 62.3879 73.0811C63.2222 74.2004 63.6454 75.4112 63.2947 76.8138C62.8595 78.5532 61.4051 79.8745 59.6139 79.9194C56.6758 79.992 53.7343 79.9574 50.7945 79.9678C50.4594 79.9695 50.1243 79.9678 49.7201 79.9678C49.6648 80.6673 49.6303 81.3047 49.5629 81.9386C49.2572 84.7852 46.8563 86.9218 44.0391 86.8665C41.1649 86.8095 38.8469 84.5831 38.6534 81.6899C38.5377 79.9678 38.5377 79.9678 36.7914 79.9678C35.1229 79.9678 33.4543 79.9954 31.7875 79.9471C31.4144 79.9367 30.9653 79.7519 30.6924 79.4962C29.5801 78.453 28.5282 77.3441 27.4382 76.2749C27.25 76.0901 26.9822 75.8655 26.7508 75.8621C23.3912 75.8362 20.0334 75.8431 16.5737 75.8431C16.5737 77.218 16.5737 78.5307 16.5737 79.9039C13.3247 79.9039 10.1758 79.9039 6.96484 79.9039C6.96484 70.7804 6.96484 61.6621 6.96484 52.4091C7.24294 52.4091 7.54003 52.4091 7.83712 52.4091C10.0135 52.4091 12.1916 52.3953 14.3679 52.4195C14.8723 52.4247 15.1383 52.2554 15.4475 51.8322C16.66 50.1723 17.0176 48.5607 15.8465 46.6694C15.4354 46.0061 15.1297 45.5138 14.3489 45.2876C12.86 44.854 11.4005 44.3186 9.92885 43.8228C9.84939 43.7969 9.77858 43.7503 9.64903 43.6864C9.64903 43.4566 9.64903 43.2045 9.64903 42.9523C9.64903 38.2299 9.66457 33.5093 9.63176 28.7886C9.62657 28.1271 9.85458 27.8542 10.4557 27.6728C11.9135 27.2323 13.3644 26.7591 14.7929 26.2288C15.1279 26.1044 15.4268 25.7417 15.6254 25.4153C15.8707 25.0111 15.9208 24.4843 16.1799 24.0939C16.9105 22.9988 16.8207 22.0091 16.1246 20.9105C15.4786 19.8897 15.0364 18.7428 14.4612 17.6736C14.2246 17.2314 14.2488 16.9516 14.6201 16.5837C18.054 13.181 21.4722 9.76095 24.8767 6.32886C25.2135 5.98858 25.4605 5.93849 25.8889 6.16304C27.3139 6.91095 28.7492 7.63986 30.2105 8.31004C30.5335 8.45859 30.9982 8.41713 31.3643 8.32731C31.8238 8.21504 32.2314 7.88859 32.6909 7.78495C33.957 7.49649 34.6116 6.7434 34.8983 5.47558C35.1713 4.26994 35.6722 3.11785 36.0366 1.93121C36.1662 1.51321 36.3631 1.35776 36.8122 1.35948C41.6744 1.37503 46.5384 1.37848 51.4007 1.35603C51.8999 1.3543 52.0865 1.5443 52.2246 1.97785C52.7135 3.50994 53.2092 5.04204 53.7619 6.55167C53.8776 6.86777 54.2076 7.15104 54.5081 7.33931C54.8605 7.5604 55.332 7.59495 55.674 7.8264C56.928 8.67622 58.0784 8.51731 59.3117 7.72277C60.2547 7.11477 61.3274 6.71058 62.324 6.18031C62.7247 5.96613 62.9838 5.94022 63.3431 6.30295C66.7648 9.7575 70.2056 13.1948 73.6584 16.6182C74.0194 16.9758 73.9883 17.2504 73.7828 17.6494C73.0573 19.0537 72.3267 20.458 71.6738 21.8968C71.5149 22.2457 71.5788 22.7362 71.653 23.1404C71.7169 23.4911 72.0192 23.7968 72.0797 24.1474C72.3664 25.7676 73.4459 26.4343 74.9349 26.7729C75.9747 27.0095 76.9679 27.45 77.9939 27.7609C78.4067 27.8853 78.5898 28.0632 78.588 28.5226C78.5725 33.4143 78.5725 38.3042 78.5898 43.1958C78.5915 43.6605 78.3946 43.8263 77.9939 43.9541C76.4618 44.4446 74.9297 44.9386 73.42 45.4914C73.1039 45.6071 72.8155 45.9336 72.6272 46.2341C72.4061 46.5865 72.3802 47.0649 72.1436 47.4C71.2333 48.6937 71.4993 49.8804 72.2818 51.1206C72.7913 51.9289 73.1143 52.853 73.6049 53.6752C74.0177 54.3644 73.9589 54.8135 73.3579 55.3956C71.3249 57.3595 69.3229 59.3579 67.3832 61.4134C65.5868 63.3169 63.2688 64.8144 62.5019 67.7266ZM70.722 54.1157C69.9793 52.6319 69.2452 51.2328 68.5871 49.7992C68.4368 49.4727 68.4299 48.9822 68.5595 48.6437C69.1519 47.0908 69.7945 45.5536 70.4733 44.037C70.6098 43.7296 70.9431 43.4169 71.2575 43.2995C72.5512 42.8158 73.8674 42.3806 75.1905 41.9798C75.6793 41.8313 75.8486 41.6154 75.8451 41.0955C75.821 37.5891 75.8227 34.0844 75.8434 30.5781C75.8469 30.0996 75.7 29.8803 75.2458 29.7403C73.8985 29.3223 72.5547 28.8853 71.2333 28.3913C70.9207 28.2739 70.5994 27.9509 70.4612 27.6417C69.7945 26.1493 69.1588 24.6397 68.5819 23.1111C68.4455 22.7483 68.442 22.2284 68.5975 21.8795C69.1727 20.591 69.8618 19.356 70.4508 18.0743C70.5528 17.8515 70.4871 17.4007 70.3213 17.2297C67.8254 14.6871 65.2949 12.1809 62.7887 9.64868C62.4691 9.32568 62.2187 9.31013 61.8352 9.5105C60.5829 10.1617 59.3065 10.7645 58.0542 11.4174C57.6448 11.6316 57.3287 11.642 56.8866 11.4433C55.3717 10.7576 53.8155 10.1634 52.2955 9.48977C52.007 9.36195 51.6944 9.07177 51.5873 8.78331C51.0881 7.43431 50.6425 6.06458 50.2124 4.68967C50.0811 4.27167 49.8842 4.11276 49.4385 4.11449C45.9045 4.13003 42.3705 4.13349 38.8365 4.11103C38.3443 4.10758 38.1404 4.28894 38.0005 4.73113C37.5773 6.07667 37.1438 7.42222 36.6481 8.74186C36.5323 9.04931 36.2007 9.36022 35.8915 9.49841C34.3992 10.1669 32.8705 10.7541 31.3764 11.4209C30.9567 11.6074 30.6423 11.6713 30.2122 11.4416C28.941 10.7662 27.6524 10.122 26.3449 9.52086C26.1221 9.41895 25.6678 9.47941 25.4985 9.64522C22.956 12.1411 20.4359 14.6595 17.9434 17.2038C17.762 17.3886 17.693 17.8774 17.8035 18.121C18.3994 19.432 19.0886 20.6981 19.6914 22.0056C19.8192 22.2837 19.8192 22.7052 19.7052 22.9953C19.0903 24.5706 18.4426 26.1338 17.7586 27.6814C17.6308 27.9699 17.332 28.2739 17.0435 28.381C15.7204 28.8698 14.3783 29.3103 13.031 29.7283C12.5509 29.8768 12.3712 30.1013 12.3747 30.6213C12.3989 34.0983 12.4006 37.577 12.3729 41.054C12.3678 41.6154 12.5699 41.8347 13.0811 41.9902C14.4042 42.3909 15.7187 42.8262 17.0107 43.3133C17.3199 43.4307 17.629 43.7658 17.769 44.0767C18.1714 44.9766 18.339 46.0147 18.871 46.8162C19.9989 48.5158 19.9073 49.9996 18.7051 51.6232C17.9313 52.6682 17.4218 53.9084 16.7706 55.1037C20.6898 55.1037 24.4881 55.1037 28.3468 55.1037C15.6548 44.4256 17.6826 27.1149 26.4295 18.4284C35.2231 9.69704 49.3332 8.33941 59.5587 16.4714C64.2948 20.2369 67.3711 25.1285 68.4317 31.0721C70.1417 40.6567 67.1172 48.6868 59.7504 55.1866C61.4707 55.5528 62.6021 56.4216 63.1773 57.9537C63.7559 59.4927 63.2101 60.8589 62.4829 62.1458C65.2155 59.4875 67.9411 56.8292 70.722 54.1157ZM49.6527 49.642C50.8428 49.642 51.912 49.6524 52.9812 49.6317C53.1591 49.6282 53.3491 49.5056 53.508 49.4002C59.4464 45.481 62.1634 37.4423 59.8367 30.6886C56.2837 20.3751 44.5417 16.1778 35.2559 21.902C25.8284 27.7125 24.9596 41.6085 33.5943 48.54C34.1003 48.9459 34.6133 49.5297 35.1868 49.6213C36.2784 49.794 37.4184 49.6714 38.6189 49.6714C38.6189 47.685 38.6465 45.8524 38.5964 44.0215C38.5861 43.6242 38.3892 43.1406 38.1145 42.8538C36.6101 41.282 35.04 39.7706 33.5286 38.204C33.2868 37.9535 33.1089 37.5321 33.102 37.1866C33.064 34.9809 33.0294 32.7734 33.1089 30.5712C33.14 29.6903 33.3023 28.7385 33.6858 27.9561C35.0987 25.0819 37.6913 24.4532 41.3722 24.9385C41.3722 25.2373 41.3722 25.5448 41.3722 25.8505C41.3722 27.887 41.3808 29.9234 41.3687 31.9582C41.3635 32.7303 41.7021 33.1016 42.4845 33.093C43.5865 33.0792 44.6903 33.0809 45.794 33.093C46.5419 33.1016 46.8701 32.732 46.8666 32.0031C46.8597 30.2775 46.8649 28.5537 46.8649 26.8282C46.8649 26.1856 46.8649 25.5431 46.8649 24.8038C47.7527 24.8038 48.5369 24.7917 49.3194 24.8055C52.8516 24.866 55.123 27.165 55.142 30.7024C55.1541 32.8235 55.1714 34.9446 55.1213 37.064C55.1109 37.4855 54.9054 37.9985 54.6152 38.3025C53.1522 39.838 51.627 41.3131 50.1398 42.8245C49.9343 43.0335 49.6804 43.3236 49.6752 43.5793C49.6355 45.557 49.6527 47.533 49.6527 49.642ZM38.574 77.2128C38.574 71.4333 38.574 65.7696 38.574 60.1059C38.5101 60.054 38.4444 60.0005 38.3805 59.9487C37.4184 60.9816 36.4563 62.0145 35.6462 62.885C34.8638 62.1959 34.2161 61.6241 33.5476 61.0368C35.439 59.1438 37.2854 57.2748 39.1647 55.4405C39.3685 55.2418 39.7658 55.1676 40.075 55.1641C42.9302 55.1434 45.7836 55.152 48.6388 55.152C50.3056 55.152 51.9742 55.171 53.641 55.1434C54.7136 55.1244 55.3925 54.2366 55.0556 53.3401C54.7914 52.6354 54.2248 52.4074 53.5063 52.4074C47.9945 52.4143 42.4828 52.4022 36.9728 52.4298C36.6308 52.4316 36.2145 52.6319 35.9641 52.8755C34.4406 54.3488 32.9759 55.8827 31.4386 57.3422C31.1156 57.6479 30.575 57.8759 30.1311 57.8811C25.9476 57.9208 21.7659 57.9053 17.5824 57.9053C17.2784 57.9053 16.9744 57.9053 16.622 57.9053C16.622 63.0059 16.622 68.0116 16.622 73.0984C16.9917 73.0984 17.2974 73.0984 17.6031 73.0984C20.8815 73.0984 24.1599 73.0794 27.4382 73.1209C27.8562 73.1261 28.3589 73.3506 28.6715 73.6391C29.7718 74.6547 30.7961 75.7515 31.8722 76.7931C32.076 76.99 32.3834 77.1921 32.6477 77.1972C34.5926 77.2283 36.541 77.2128 38.574 77.2128ZM33.1158 51.7355C22.7988 44.2339 22.835 30.9615 29.3693 23.4358C36.4322 15.3003 48.3625 14.226 56.4357 21.0159C60.367 24.3219 62.7247 28.5468 63.2654 33.6699C63.9857 40.4805 61.5847 46.1184 56.6033 50.5868C57.0783 51.4246 57.5153 52.1984 57.9506 52.967C65.0065 47.7679 68.0068 37.2229 64.9685 28.6401C61.7264 19.4821 52.6392 12.8804 41.918 13.9168C32.8239 14.796 24.7281 21.3993 22.5742 31.1705C20.5395 40.4028 24.8266 49.3052 31.2313 53.6286C31.8428 53.0171 32.4542 52.4022 33.1158 51.7355ZM38.6189 27.7004C37.0281 27.6123 35.8984 28.723 35.8535 30.4261C35.8017 32.3451 35.8259 34.2675 35.8535 36.1883C35.857 36.4612 36.0107 36.7928 36.2042 36.9915C37.5221 38.3491 38.859 39.6895 40.2183 41.0039C40.4325 41.2112 40.7987 41.3597 41.0958 41.3649C43.1012 41.396 45.1065 41.3995 47.1119 41.3632C47.4349 41.358 47.8287 41.1922 48.0619 40.9676C49.404 39.6756 50.7133 38.3474 52.0208 37.0174C52.1866 36.8481 52.3801 36.6028 52.3818 36.3904C52.3974 34.2451 52.4578 32.0929 52.3335 29.9545C52.2505 28.5192 50.9465 27.5433 49.6475 27.7523C49.6475 28.9527 49.5301 30.1773 49.6752 31.3709C49.8807 33.055 49.3625 34.347 47.9945 35.2884C47.6094 35.5526 47.1257 35.791 46.6732 35.8152C45.3777 35.886 44.065 35.7392 42.7799 35.867C41.3221 36.0121 40.265 35.5613 39.3323 34.4403C38.8469 33.8564 38.5774 33.3434 38.6016 32.5783C38.6552 30.9512 38.6189 29.3223 38.6189 27.7004ZM9.70085 55.1918C9.70085 62.5517 9.70085 69.8494 9.70085 77.1662C11.0654 77.1662 12.3781 77.1662 13.7133 77.1662C13.7133 69.8218 13.7133 62.5258 13.7133 55.1918C12.366 55.1918 11.0758 55.1918 9.70085 55.1918ZM41.3722 57.9571C41.3722 58.3561 41.3722 58.6653 41.3722 58.9745C41.3722 64.5691 41.3722 70.1638 41.3722 75.7584C41.3722 77.6239 41.3566 79.4876 41.3808 81.3531C41.3981 82.6537 42.1874 83.6745 43.3672 83.9941C44.4847 84.2981 45.4382 83.9958 46.1999 83.1408C47.0653 82.1701 46.8804 80.9817 46.8079 79.8331C46.801 79.726 46.5747 79.6189 46.4348 79.5342C44.0356 78.092 43.4708 75.8362 44.8837 73.4681C44.9994 73.2729 44.9943 72.8791 44.8716 72.6856C43.8767 71.1103 43.875 69.5644 44.863 67.9857C44.9856 67.7888 45.0115 67.3898 44.8924 67.2049C43.8698 65.6038 43.8612 64.0319 44.8941 62.4377C44.9977 62.2788 45.0944 61.9679 45.0167 61.8608C44.1583 60.6914 43.932 59.4098 44.3224 57.9588C43.3119 57.9571 42.3964 57.9571 41.3722 57.9571ZM53.7896 60.6845C53.7896 60.6828 53.7896 60.681 53.7896 60.681C55.5686 60.681 57.3495 60.7069 59.1286 60.6707C60.0699 60.6517 60.6537 60.0765 60.6572 59.3027C60.6607 58.5306 60.0699 57.9848 59.1424 57.9105C58.9731 57.8967 58.8038 57.9053 58.6346 57.9053C55.3856 57.9053 52.1383 57.9018 48.8893 57.9088C48.5542 57.9088 48.2053 57.926 47.8857 58.0141C47.0549 58.2438 46.6628 59.1455 47.048 59.902C47.3745 60.5446 47.9738 60.681 48.6233 60.6828C50.3436 60.6879 52.0657 60.6845 53.7896 60.6845ZM53.7516 71.7149C55.3614 71.7149 56.9712 71.7166 58.581 71.7131C58.8349 71.7131 59.0906 71.7131 59.341 71.6838C60.1183 71.5905 60.5795 71.1535 60.6417 70.3693C60.6987 69.6456 60.1684 69.0946 59.3445 68.9633C59.1787 68.9374 59.0077 68.9357 58.8384 68.9357C55.4495 68.934 52.0588 68.9322 48.6699 68.9391C48.3918 68.9391 48.1034 68.9771 47.8356 69.0549C47.2155 69.238 46.9029 69.7147 46.9081 70.3244C46.9133 70.967 47.238 71.4661 47.9134 71.6164C48.2398 71.689 48.5835 71.708 48.9204 71.7114C50.5319 71.7201 52.1417 71.7149 53.7516 71.7149ZM53.7878 63.4447C52.0364 63.4447 50.2866 63.436 48.5352 63.4481C47.5299 63.455 46.9271 63.9629 46.9046 64.7781C46.8822 65.6245 47.5109 66.1772 48.5525 66.179C52.026 66.1876 55.4996 66.1859 58.9731 66.179C60.0302 66.1772 60.6555 65.6469 60.6486 64.8023C60.6417 63.9594 60.0216 63.4516 58.9558 63.4464C57.232 63.4378 55.5099 63.4447 53.7878 63.4447ZM53.7325 77.2145C55.484 77.2145 57.2337 77.2214 58.9852 77.2111C60.0319 77.2042 60.6641 76.6635 60.6486 75.8206C60.6347 75.0053 60.025 74.4785 59.0267 74.4768C55.5255 74.4681 52.0243 74.4681 48.5214 74.4768C47.5247 74.4802 46.9167 75.0071 46.9029 75.8223C46.8891 76.667 47.5178 77.2059 48.5645 77.2111C50.2884 77.2214 52.0105 77.2145 53.7325 77.2145ZM41.4171 49.5988C43.2376 49.5988 45.0012 49.5988 46.8062 49.5988C46.8062 47.7645 46.8062 45.9802 46.8062 44.1631C44.9856 44.1631 43.2238 44.1631 41.4171 44.1631C41.4171 45.9698 41.4171 47.7351 41.4171 49.5988Z" fill="#EA4C89"/>
<path d="M85.4868 82.7521C85.4765 85.0218 83.5627 86.901 81.2947 86.8682C79.0562 86.8354 77.2011 84.9509 77.2132 82.7228C77.2253 80.4946 79.089 78.6257 81.3241 78.5997C83.5765 78.5738 85.4972 80.4894 85.4868 82.7521ZM81.3224 81.3928C80.5745 81.4083 79.9958 82.0025 80.0027 82.7487C80.0097 83.481 80.6211 84.1029 81.3431 84.1098C82.0841 84.1167 82.7457 83.4309 82.7128 82.6882C82.68 81.9472 82.0686 81.3772 81.3224 81.3928Z" fill="#EA4C89"/>
<path d="M5.44143 28.9267C4.55879 28.9267 3.72279 28.9267 2.81079 28.9267C2.81079 28.0544 2.81079 27.1977 2.81079 26.2632C3.64679 26.2632 4.50525 26.2632 5.44143 26.2632C5.44143 27.1027 5.44143 27.9594 5.44143 28.9267Z" fill="#EA4C89"/>
<path d="M79.9699 57.9451C80.9303 57.9451 81.7663 57.9451 82.6749 57.9451C82.6749 58.826 82.6749 59.6828 82.6749 60.6794C81.9131 60.6794 81.1341 60.7001 80.3569 60.6604C80.2204 60.6535 79.9959 60.3927 79.9872 60.239C79.9475 59.51 79.9699 58.7794 79.9699 57.9451Z" fill="#EA4C89"/>
<path d="M5.4432 22.0317C4.56229 22.0317 3.7211 22.0317 2.80737 22.0317C2.80737 21.1663 2.80737 20.313 2.80737 19.3872C3.65374 19.3872 4.51047 19.3872 5.4432 19.3872C5.4432 20.2232 5.4432 21.0782 5.4432 22.0317Z" fill="#EA4C89"/>
<path d="M80.02 64.8486C80.9579 64.8486 81.7974 64.8486 82.6921 64.8486C82.6921 65.7398 82.6921 66.5966 82.6921 67.5034C81.7957 67.5034 80.9372 67.5034 80.02 67.5034C80.02 66.6242 80.02 65.764 80.02 64.8486Z" fill="#EA4C89"/>
<path d="M2.79346 12.4366C3.72273 12.4366 4.56046 12.4366 5.45692 12.4366C5.45692 13.3279 5.45692 14.1864 5.45692 15.1018C4.56737 15.1018 3.70891 15.1018 2.79346 15.1018C2.79346 14.2209 2.79346 13.3659 2.79346 12.4366Z" fill="#EA4C89"/>
<path d="M80.0183 71.7664C80.9286 71.7664 81.787 71.7664 82.6939 71.7664C82.6939 72.6732 82.6939 73.5282 82.6939 74.4281C81.7836 74.4281 80.9269 74.4281 80.0183 74.4281C80.0183 73.5247 80.0183 72.6663 80.0183 71.7664Z" fill="#EA4C89"/>
</svg>
