<svg width="50" height="50" viewBox="0 0 50 50" fill="none" xmlns="http://www.w3.org/2000/svg">
<circle cx="25" cy="25" r="25" fill="#E81B23"/>
<path d="M25.375 17.1875C26.8958 17.1875 28.2083 17.6667 29.3125 18.625C30.4375 19.5833 31 20.8229 31 22.3438C31 23.3646 30.8333 24.3333 30.5 25.25C30.1875 26.1458 29.6458 26.9062 28.875 27.5312C28.125 28.1562 27.2292 28.4688 26.1875 28.4688C25.7708 28.4688 25.3542 28.375 24.9375 28.1875C24.5208 27.9792 24.2188 27.6979 24.0312 27.3438C23.9688 27.5938 23.875 27.9479 23.75 28.4062C23.6458 28.8646 23.5729 29.1667 23.5312 29.3125C23.5104 29.4375 23.4479 29.6562 23.3438 29.9688C23.2604 30.2812 23.1771 30.5104 23.0938 30.6562C23.0312 30.7812 22.9271 30.9688 22.7812 31.2188C22.6562 31.4688 22.5104 31.7083 22.3438 31.9375C22.1979 32.1667 22.0104 32.4375 21.7812 32.75C21.7188 32.7917 21.6771 32.8125 21.6562 32.8125C21.6562 32.8125 21.625 32.7812 21.5625 32.7188C21.4792 31.7188 21.4375 31.125 21.4375 30.9375C21.4375 30.375 21.5 29.7396 21.625 29.0312C21.7708 28.3021 21.9792 27.3958 22.25 26.3125C22.5417 25.2292 22.7083 24.5938 22.75 24.4062C22.5417 24.0104 22.4375 23.4792 22.4375 22.8125C22.4375 21.8125 22.8229 21.1458 23.5938 20.8125C24.2188 20.5417 24.7188 20.6354 25.0938 21.0938C25.2812 21.3438 25.375 21.6562 25.375 22.0312C25.375 22.4271 25.2396 23.0208 24.9688 23.8125C24.6979 24.5833 24.5625 25.1667 24.5625 25.5625C24.5625 25.9583 24.6979 26.2917 24.9688 26.5625C25.2604 26.8125 25.6042 26.9375 26 26.9375C26.5 26.9375 26.9479 26.7708 27.3438 26.4375C27.7396 26.1042 28.0312 25.6771 28.2188 25.1562C28.4271 24.6354 28.5729 24.125 28.6562 23.625C28.7604 23.1042 28.8125 22.6146 28.8125 22.1562C28.8125 21.0729 28.4688 20.2292 27.7812 19.625C27.1146 19.0208 26.2292 18.7188 25.125 18.7188C23.875 18.7188 22.8333 19.125 22 19.9375C21.1667 20.75 20.75 21.7812 20.75 23.0312C20.75 23.5104 20.8646 23.9792 21.0938 24.4375C21.3438 24.8958 21.4688 25.1354 21.4688 25.1562C21.4688 25.3229 21.4167 25.5521 21.3125 25.8438C21.2292 26.1146 21.125 26.25 21 26.25C20.5625 26.25 20.1146 25.9271 19.6562 25.2812C19.2188 24.6354 19 23.8125 19 22.8125C19 21.1458 19.6354 19.7917 20.9062 18.75C22.1979 17.7083 23.6875 17.1875 25.375 17.1875Z" fill="white"/>
</svg>
