<svg width="72" height="73" viewBox="0 0 72 73" fill="none" xmlns="http://www.w3.org/2000/svg">
<mask id="path-1-outside-1_15_733" maskUnits="userSpaceOnUse" x="0" y="0" width="72" height="73" fill="black">
<rect fill="white" width="72" height="73"/>
<path d="M36.4106 1C36.5869 1.13014 36.7547 1.27739 36.9431 1.38869C40.9122 3.7123 44.8779 6.03762 48.8591 8.33896C49.2101 8.54273 49.6639 8.6643 50.0697 8.6643C56.5148 8.68485 62.9617 8.678 69.4068 8.678C70.715 8.678 70.9992 8.96738 70.9992 10.2944C70.9992 11.4126 71.0009 12.5307 70.9992 13.6488C70.9975 14.8115 70.6945 15.1197 69.5592 15.1248C68.9719 15.1283 68.3845 15.1248 67.7167 15.1248C67.7167 15.4759 67.7167 15.7635 67.7167 16.0529C67.7167 29.837 67.7167 43.6211 67.7167 57.4052C67.7167 58.8025 67.4462 59.0679 66.0284 59.0679C56.6672 59.0679 47.306 59.0679 37.9448 59.0679C37.676 59.0679 37.4054 59.0679 37.0818 59.0679C37.0818 62.412 37.0818 65.7048 37.0818 69.078C38.0407 69.078 38.9927 69.0883 39.9431 69.0746C40.5184 69.066 41.0681 69.114 41.3163 69.727C41.5629 70.3349 41.1999 70.7544 40.7872 71.1345C37.5972 71.1345 34.4072 71.1345 31.2171 71.1345C30.8045 70.7527 30.4397 70.3349 30.688 69.727C30.938 69.114 31.486 69.066 32.0613 69.0746C33.0116 69.09 33.962 69.078 34.9209 69.078C34.9209 65.7048 34.9209 62.412 34.9209 59.0679C34.5955 59.0679 34.3267 59.0679 34.0561 59.0679C24.6932 59.0679 15.3303 59.0679 5.96912 59.0679C4.55476 59.0679 4.28764 58.8025 4.28764 57.3966C4.28764 43.6108 4.28764 29.825 4.28764 16.0392C4.28764 15.7516 4.28764 15.4639 4.28764 15.1231C3.60785 15.1231 3.01881 15.0957 2.4332 15.13C1.80307 15.1711 1.31678 14.9844 1 14.4245C1 12.7345 1 11.0461 1 9.35607C1.35959 8.79615 1.88526 8.66773 2.52224 8.66944C8.99135 8.68314 15.4605 8.68314 21.9296 8.6643C22.3354 8.66259 22.7891 8.54273 23.1402 8.33896C27.1213 6.03933 31.0887 3.7123 35.0578 1.38869C35.2462 1.27911 35.4123 1.13014 35.5904 1C35.8626 1 36.1366 1 36.4106 1ZM65.626 56.9737C65.626 43.0252 65.626 29.1127 65.626 15.1248C64.0712 15.1248 62.5524 15.1248 61.0319 15.1248C60.1894 15.1248 59.3453 15.1385 58.5028 15.1146C57.8847 15.0974 57.4874 14.707 57.4617 14.1591C57.4343 13.6009 57.7922 13.1848 58.4001 13.0923C58.6227 13.0581 58.8538 13.0701 59.0816 13.0701C62.1124 13.0684 65.1431 13.0701 68.1722 13.0701C68.4137 13.0701 68.6551 13.0701 68.8914 13.0701C68.8914 12.2413 68.8914 11.5033 68.8914 10.7773C46.9276 10.7773 25.0186 10.7773 3.10443 10.7773C3.10443 11.5581 3.10443 12.2961 3.10443 13.0667C3.45032 13.0667 3.74483 13.0667 4.03935 13.0667C20.3765 13.0667 36.7119 13.0666 53.0491 13.0701C53.3864 13.0701 53.8059 13.0187 54.0422 13.1899C54.347 13.4125 54.6433 13.8184 54.6912 14.1779C54.758 14.6694 54.3813 15.017 53.8676 15.0975C53.6005 15.1403 53.3214 15.1231 53.0491 15.1231C37.7838 15.1248 22.5169 15.1231 7.25164 15.1231C6.96398 15.1231 6.67631 15.1231 6.3835 15.1231C6.3835 29.1281 6.3835 43.0406 6.3835 56.972C26.1487 56.9737 45.8694 56.9737 65.626 56.9737ZM45.1862 8.64889C45.0098 8.51019 44.9482 8.45026 44.8762 8.40745C42.0458 6.75336 39.2205 5.09242 36.3729 3.46573C36.164 3.34586 35.753 3.38354 35.5304 3.51196C32.7856 5.08557 30.0562 6.68829 27.3251 8.28588C27.1812 8.36978 27.0477 8.47081 26.7823 8.64889C32.9808 8.64889 39.0081 8.64889 45.1862 8.64889ZM55.8367 26.2412C55.597 26.2412 55.359 26.2412 55.1193 26.2412C51.1108 26.2412 47.1005 26.2069 43.092 26.2668C42.1383 26.2805 41.1092 26.4415 40.2547 26.8388C38.0989 27.8405 37.1623 29.6812 37.1674 32.0373C37.1743 35.3918 37.1743 38.7479 37.164 42.1023C37.1623 42.5783 37.1434 43.0697 37.027 43.5269C36.6195 45.1211 35.289 46.0286 33.4003 46.0303C27.1812 46.0355 20.9621 46.032 14.743 46.0338C14.4707 46.0338 14.1951 46.0303 13.9245 46.0646C13.392 46.1314 13.1112 46.4927 13.0786 46.9892C13.0444 47.4909 13.2978 47.8711 13.8098 48.0063C14.0273 48.0646 14.2584 48.0851 14.4844 48.0851C20.8166 48.0885 27.1504 48.1091 33.4825 48.0646C34.3678 48.0577 35.325 47.8813 36.1178 47.5081C38.2958 46.4807 39.2273 44.6194 39.2222 42.2444C39.2153 38.9123 39.2153 35.5801 39.2256 32.2479C39.2273 31.7719 39.2376 31.2805 39.3523 30.8233C39.7496 29.2463 41.0681 28.3131 42.8968 28.3079C47.0663 28.2959 51.234 28.3045 55.4035 28.3062C55.5525 28.3062 55.7015 28.3268 56.0148 28.349C55.7083 28.6042 55.5268 28.7617 55.3402 28.9124C54.5576 29.5408 53.7631 30.1521 52.996 30.7976C52.3162 31.3712 52.3693 32.3524 53.1244 32.5613C53.4926 32.664 54.0508 32.5356 54.3624 32.2993C56.0679 31.0031 57.7271 29.6469 59.3915 28.2994C60.2391 27.6127 60.2425 26.9706 59.3949 26.2823C57.7305 24.933 56.0542 23.5991 54.383 22.2583C54.3128 22.2018 54.2391 22.1453 54.1621 22.0974C53.6364 21.7703 53.0868 21.8303 52.7477 22.2515C52.4104 22.671 52.4532 23.2532 52.8813 23.671C53.1416 23.9244 53.4412 24.1384 53.7237 24.3679C54.4412 24.9467 55.1604 25.5254 55.8778 26.1042C55.8658 26.147 55.8521 26.1932 55.8367 26.2412ZM51.3933 50.2238C50.1553 51.4686 49.0286 52.597 47.907 53.7289C47.282 54.3607 46.544 54.722 45.6416 54.6347C44.5766 54.5302 43.7889 53.984 43.4019 52.9823C42.9978 51.9378 43.1776 50.9464 43.9567 50.1279C44.9482 49.0885 45.9738 48.0834 46.9961 47.0748C47.1724 46.9019 47.4036 46.7855 47.6741 46.5954C46.4088 45.3317 45.2444 44.2427 44.1759 43.068C43.7547 42.604 43.3917 41.979 43.2667 41.3728C43.0252 40.1999 43.628 39.1657 44.6416 38.6503C45.669 38.1297 46.8694 38.2804 47.7358 39.1229C48.9276 40.2821 50.0782 41.4824 51.282 42.7033C51.4721 42.5389 51.6279 42.4208 51.7649 42.2838C52.782 41.2701 53.782 40.2393 54.8128 39.2376C55.9891 38.0938 57.6638 38.0681 58.7237 39.1451C59.7887 40.229 59.7528 41.8146 58.5987 43.003C57.472 44.1622 56.3128 45.2889 55.0919 46.5046C55.9446 47.3488 56.7631 48.157 57.5799 48.9687C57.9514 49.3385 58.3316 49.7015 58.6877 50.0851C59.7391 51.2186 59.7511 52.7974 58.7288 53.8453C57.6963 54.9035 56.0508 54.9309 54.9224 53.8556C53.883 52.8659 52.8847 51.8316 51.8727 50.8111C51.7169 50.6536 51.5868 50.4618 51.3933 50.2238ZM45.8677 52.6758C46.1108 52.496 46.3454 52.3625 46.532 52.1792C47.8265 50.8967 49.1074 49.5988 50.4036 48.3163C51.0919 47.6348 51.5885 47.6399 52.2786 48.318C52.9943 49.02 53.6963 49.7358 54.4052 50.4447C55.0011 51.0406 55.5987 51.6364 56.1929 52.234C56.508 52.5508 56.8641 52.7922 57.2477 52.395C57.6329 51.9943 57.3607 51.6467 57.0473 51.3402C56.8675 51.1656 56.6929 50.9858 56.5165 50.8077C55.3898 49.6793 54.2563 48.556 53.1364 47.4207C52.4806 46.7546 52.4755 46.2581 53.1227 45.5937C53.9326 44.7615 54.7614 43.9465 55.5833 43.1228C56.0987 42.6074 56.6124 42.0903 57.1278 41.5749C57.4138 41.2889 57.5833 40.9568 57.2597 40.6194C56.9172 40.2616 56.561 40.4071 56.2494 40.7153C56.1364 40.8266 56.0234 40.9396 55.9104 41.0526C54.7511 42.2136 53.5936 43.3763 52.4327 44.5355C51.5611 45.4071 51.1279 45.4088 50.2683 44.5492C49.0115 43.2924 47.7563 42.0338 46.5029 40.7735C46.1861 40.4551 45.8249 40.2205 45.4464 40.6092C45.0663 41.0013 45.3249 41.3591 45.6399 41.6674C45.7375 41.7633 45.8334 41.8591 45.931 41.9567C47.1382 43.1674 48.3505 44.3711 49.5508 45.5886C50.1998 46.2461 50.2032 46.7546 49.556 47.4122C48.4858 48.5012 47.3985 49.5731 46.3214 50.6553C46.0166 50.9618 45.6793 51.2477 45.4327 51.597C45.3129 51.7649 45.3026 52.0765 45.366 52.2854C45.4105 52.4344 45.6588 52.5234 45.8677 52.6758ZM22.8371 37.0852C17.445 37.0715 13.053 32.6743 13.0495 27.2891C13.0461 21.8902 17.5272 17.4193 22.8919 17.4656C28.2891 17.5118 32.6486 21.9227 32.6247 27.3114C32.6041 32.7274 28.224 37.1006 22.8371 37.0852ZM22.7703 35.0287C27.0014 35.1075 30.5134 31.6572 30.575 27.361C30.6367 23.1093 27.2086 19.5974 22.9261 19.5203C18.7207 19.445 15.1694 22.9347 15.1026 27.2052C15.0375 31.438 18.4793 34.9483 22.7703 35.0287Z"/>
</mask>
<path d="M36.4106 1C36.5869 1.13014 36.7547 1.27739 36.9431 1.38869C40.9122 3.7123 44.8779 6.03762 48.8591 8.33896C49.2101 8.54273 49.6639 8.6643 50.0697 8.6643C56.5148 8.68485 62.9617 8.678 69.4068 8.678C70.715 8.678 70.9992 8.96738 70.9992 10.2944C70.9992 11.4126 71.0009 12.5307 70.9992 13.6488C70.9975 14.8115 70.6945 15.1197 69.5592 15.1248C68.9719 15.1283 68.3845 15.1248 67.7167 15.1248C67.7167 15.4759 67.7167 15.7635 67.7167 16.0529C67.7167 29.837 67.7167 43.6211 67.7167 57.4052C67.7167 58.8025 67.4462 59.0679 66.0284 59.0679C56.6672 59.0679 47.306 59.0679 37.9448 59.0679C37.676 59.0679 37.4054 59.0679 37.0818 59.0679C37.0818 62.412 37.0818 65.7048 37.0818 69.078C38.0407 69.078 38.9927 69.0883 39.9431 69.0746C40.5184 69.066 41.0681 69.114 41.3163 69.727C41.5629 70.3349 41.1999 70.7544 40.7872 71.1345C37.5972 71.1345 34.4072 71.1345 31.2171 71.1345C30.8045 70.7527 30.4397 70.3349 30.688 69.727C30.938 69.114 31.486 69.066 32.0613 69.0746C33.0116 69.09 33.962 69.078 34.9209 69.078C34.9209 65.7048 34.9209 62.412 34.9209 59.0679C34.5955 59.0679 34.3267 59.0679 34.0561 59.0679C24.6932 59.0679 15.3303 59.0679 5.96912 59.0679C4.55476 59.0679 4.28764 58.8025 4.28764 57.3966C4.28764 43.6108 4.28764 29.825 4.28764 16.0392C4.28764 15.7516 4.28764 15.4639 4.28764 15.1231C3.60785 15.1231 3.01881 15.0957 2.4332 15.13C1.80307 15.1711 1.31678 14.9844 1 14.4245C1 12.7345 1 11.0461 1 9.35607C1.35959 8.79615 1.88526 8.66773 2.52224 8.66944C8.99135 8.68314 15.4605 8.68314 21.9296 8.6643C22.3354 8.66259 22.7891 8.54273 23.1402 8.33896C27.1213 6.03933 31.0887 3.7123 35.0578 1.38869C35.2462 1.27911 35.4123 1.13014 35.5904 1C35.8626 1 36.1366 1 36.4106 1ZM65.626 56.9737C65.626 43.0252 65.626 29.1127 65.626 15.1248C64.0712 15.1248 62.5524 15.1248 61.0319 15.1248C60.1894 15.1248 59.3453 15.1385 58.5028 15.1146C57.8847 15.0974 57.4874 14.707 57.4617 14.1591C57.4343 13.6009 57.7922 13.1848 58.4001 13.0923C58.6227 13.0581 58.8538 13.0701 59.0816 13.0701C62.1124 13.0684 65.1431 13.0701 68.1722 13.0701C68.4137 13.0701 68.6551 13.0701 68.8914 13.0701C68.8914 12.2413 68.8914 11.5033 68.8914 10.7773C46.9276 10.7773 25.0186 10.7773 3.10443 10.7773C3.10443 11.5581 3.10443 12.2961 3.10443 13.0667C3.45032 13.0667 3.74483 13.0667 4.03935 13.0667C20.3765 13.0667 36.7119 13.0666 53.0491 13.0701C53.3864 13.0701 53.8059 13.0187 54.0422 13.1899C54.347 13.4125 54.6433 13.8184 54.6912 14.1779C54.758 14.6694 54.3813 15.017 53.8676 15.0975C53.6005 15.1403 53.3214 15.1231 53.0491 15.1231C37.7838 15.1248 22.5169 15.1231 7.25164 15.1231C6.96398 15.1231 6.67631 15.1231 6.3835 15.1231C6.3835 29.1281 6.3835 43.0406 6.3835 56.972C26.1487 56.9737 45.8694 56.9737 65.626 56.9737ZM45.1862 8.64889C45.0098 8.51019 44.9482 8.45026 44.8762 8.40745C42.0458 6.75336 39.2205 5.09242 36.3729 3.46573C36.164 3.34586 35.753 3.38354 35.5304 3.51196C32.7856 5.08557 30.0562 6.68829 27.3251 8.28588C27.1812 8.36978 27.0477 8.47081 26.7823 8.64889C32.9808 8.64889 39.0081 8.64889 45.1862 8.64889ZM55.8367 26.2412C55.597 26.2412 55.359 26.2412 55.1193 26.2412C51.1108 26.2412 47.1005 26.2069 43.092 26.2668C42.1383 26.2805 41.1092 26.4415 40.2547 26.8388C38.0989 27.8405 37.1623 29.6812 37.1674 32.0373C37.1743 35.3918 37.1743 38.7479 37.164 42.1023C37.1623 42.5783 37.1434 43.0697 37.027 43.5269C36.6195 45.1211 35.289 46.0286 33.4003 46.0303C27.1812 46.0355 20.9621 46.032 14.743 46.0338C14.4707 46.0338 14.1951 46.0303 13.9245 46.0646C13.392 46.1314 13.1112 46.4927 13.0786 46.9892C13.0444 47.4909 13.2978 47.8711 13.8098 48.0063C14.0273 48.0646 14.2584 48.0851 14.4844 48.0851C20.8166 48.0885 27.1504 48.1091 33.4825 48.0646C34.3678 48.0577 35.325 47.8813 36.1178 47.5081C38.2958 46.4807 39.2273 44.6194 39.2222 42.2444C39.2153 38.9123 39.2153 35.5801 39.2256 32.2479C39.2273 31.7719 39.2376 31.2805 39.3523 30.8233C39.7496 29.2463 41.0681 28.3131 42.8968 28.3079C47.0663 28.2959 51.234 28.3045 55.4035 28.3062C55.5525 28.3062 55.7015 28.3268 56.0148 28.349C55.7083 28.6042 55.5268 28.7617 55.3402 28.9124C54.5576 29.5408 53.7631 30.1521 52.996 30.7976C52.3162 31.3712 52.3693 32.3524 53.1244 32.5613C53.4926 32.664 54.0508 32.5356 54.3624 32.2993C56.0679 31.0031 57.7271 29.6469 59.3915 28.2994C60.2391 27.6127 60.2425 26.9706 59.3949 26.2823C57.7305 24.933 56.0542 23.5991 54.383 22.2583C54.3128 22.2018 54.2391 22.1453 54.1621 22.0974C53.6364 21.7703 53.0868 21.8303 52.7477 22.2515C52.4104 22.671 52.4532 23.2532 52.8813 23.671C53.1416 23.9244 53.4412 24.1384 53.7237 24.3679C54.4412 24.9467 55.1604 25.5254 55.8778 26.1042C55.8658 26.147 55.8521 26.1932 55.8367 26.2412ZM51.3933 50.2238C50.1553 51.4686 49.0286 52.597 47.907 53.7289C47.282 54.3607 46.544 54.722 45.6416 54.6347C44.5766 54.5302 43.7889 53.984 43.4019 52.9823C42.9978 51.9378 43.1776 50.9464 43.9567 50.1279C44.9482 49.0885 45.9738 48.0834 46.9961 47.0748C47.1724 46.9019 47.4036 46.7855 47.6741 46.5954C46.4088 45.3317 45.2444 44.2427 44.1759 43.068C43.7547 42.604 43.3917 41.979 43.2667 41.3728C43.0252 40.1999 43.628 39.1657 44.6416 38.6503C45.669 38.1297 46.8694 38.2804 47.7358 39.1229C48.9276 40.2821 50.0782 41.4824 51.282 42.7033C51.4721 42.5389 51.6279 42.4208 51.7649 42.2838C52.782 41.2701 53.782 40.2393 54.8128 39.2376C55.9891 38.0938 57.6638 38.0681 58.7237 39.1451C59.7887 40.229 59.7528 41.8146 58.5987 43.003C57.472 44.1622 56.3128 45.2889 55.0919 46.5046C55.9446 47.3488 56.7631 48.157 57.5799 48.9687C57.9514 49.3385 58.3316 49.7015 58.6877 50.0851C59.7391 51.2186 59.7511 52.7974 58.7288 53.8453C57.6963 54.9035 56.0508 54.9309 54.9224 53.8556C53.883 52.8659 52.8847 51.8316 51.8727 50.8111C51.7169 50.6536 51.5868 50.4618 51.3933 50.2238ZM45.8677 52.6758C46.1108 52.496 46.3454 52.3625 46.532 52.1792C47.8265 50.8967 49.1074 49.5988 50.4036 48.3163C51.0919 47.6348 51.5885 47.6399 52.2786 48.318C52.9943 49.02 53.6963 49.7358 54.4052 50.4447C55.0011 51.0406 55.5987 51.6364 56.1929 52.234C56.508 52.5508 56.8641 52.7922 57.2477 52.395C57.6329 51.9943 57.3607 51.6467 57.0473 51.3402C56.8675 51.1656 56.6929 50.9858 56.5165 50.8077C55.3898 49.6793 54.2563 48.556 53.1364 47.4207C52.4806 46.7546 52.4755 46.2581 53.1227 45.5937C53.9326 44.7615 54.7614 43.9465 55.5833 43.1228C56.0987 42.6074 56.6124 42.0903 57.1278 41.5749C57.4138 41.2889 57.5833 40.9568 57.2597 40.6194C56.9172 40.2616 56.561 40.4071 56.2494 40.7153C56.1364 40.8266 56.0234 40.9396 55.9104 41.0526C54.7511 42.2136 53.5936 43.3763 52.4327 44.5355C51.5611 45.4071 51.1279 45.4088 50.2683 44.5492C49.0115 43.2924 47.7563 42.0338 46.5029 40.7735C46.1861 40.4551 45.8249 40.2205 45.4464 40.6092C45.0663 41.0013 45.3249 41.3591 45.6399 41.6674C45.7375 41.7633 45.8334 41.8591 45.931 41.9567C47.1382 43.1674 48.3505 44.3711 49.5508 45.5886C50.1998 46.2461 50.2032 46.7546 49.556 47.4122C48.4858 48.5012 47.3985 49.5731 46.3214 50.6553C46.0166 50.9618 45.6793 51.2477 45.4327 51.597C45.3129 51.7649 45.3026 52.0765 45.366 52.2854C45.4105 52.4344 45.6588 52.5234 45.8677 52.6758ZM22.8371 37.0852C17.445 37.0715 13.053 32.6743 13.0495 27.2891C13.0461 21.8902 17.5272 17.4193 22.8919 17.4656C28.2891 17.5118 32.6486 21.9227 32.6247 27.3114C32.6041 32.7274 28.224 37.1006 22.8371 37.0852ZM22.7703 35.0287C27.0014 35.1075 30.5134 31.6572 30.575 27.361C30.6367 23.1093 27.2086 19.5974 22.9261 19.5203C18.7207 19.445 15.1694 22.9347 15.1026 27.2052C15.0375 31.438 18.4793 34.9483 22.7703 35.0287Z" fill="#2EACFC"/>
<path d="M36.4106 1C36.5869 1.13014 36.7547 1.27739 36.9431 1.38869C40.9122 3.7123 44.8779 6.03762 48.8591 8.33896C49.2101 8.54273 49.6639 8.6643 50.0697 8.6643C56.5148 8.68485 62.9617 8.678 69.4068 8.678C70.715 8.678 70.9992 8.96738 70.9992 10.2944C70.9992 11.4126 71.0009 12.5307 70.9992 13.6488C70.9975 14.8115 70.6945 15.1197 69.5592 15.1248C68.9719 15.1283 68.3845 15.1248 67.7167 15.1248C67.7167 15.4759 67.7167 15.7635 67.7167 16.0529C67.7167 29.837 67.7167 43.6211 67.7167 57.4052C67.7167 58.8025 67.4462 59.0679 66.0284 59.0679C56.6672 59.0679 47.306 59.0679 37.9448 59.0679C37.676 59.0679 37.4054 59.0679 37.0818 59.0679C37.0818 62.412 37.0818 65.7048 37.0818 69.078C38.0407 69.078 38.9927 69.0883 39.9431 69.0746C40.5184 69.066 41.0681 69.114 41.3163 69.727C41.5629 70.3349 41.1999 70.7544 40.7872 71.1345C37.5972 71.1345 34.4072 71.1345 31.2171 71.1345C30.8045 70.7527 30.4397 70.3349 30.688 69.727C30.938 69.114 31.486 69.066 32.0613 69.0746C33.0116 69.09 33.962 69.078 34.9209 69.078C34.9209 65.7048 34.9209 62.412 34.9209 59.0679C34.5955 59.0679 34.3267 59.0679 34.0561 59.0679C24.6932 59.0679 15.3303 59.0679 5.96912 59.0679C4.55476 59.0679 4.28764 58.8025 4.28764 57.3966C4.28764 43.6108 4.28764 29.825 4.28764 16.0392C4.28764 15.7516 4.28764 15.4639 4.28764 15.1231C3.60785 15.1231 3.01881 15.0957 2.4332 15.13C1.80307 15.1711 1.31678 14.9844 1 14.4245C1 12.7345 1 11.0461 1 9.35607C1.35959 8.79615 1.88526 8.66773 2.52224 8.66944C8.99135 8.68314 15.4605 8.68314 21.9296 8.6643C22.3354 8.66259 22.7891 8.54273 23.1402 8.33896C27.1213 6.03933 31.0887 3.7123 35.0578 1.38869C35.2462 1.27911 35.4123 1.13014 35.5904 1C35.8626 1 36.1366 1 36.4106 1ZM65.626 56.9737C65.626 43.0252 65.626 29.1127 65.626 15.1248C64.0712 15.1248 62.5524 15.1248 61.0319 15.1248C60.1894 15.1248 59.3453 15.1385 58.5028 15.1146C57.8847 15.0974 57.4874 14.707 57.4617 14.1591C57.4343 13.6009 57.7922 13.1848 58.4001 13.0923C58.6227 13.0581 58.8538 13.0701 59.0816 13.0701C62.1124 13.0684 65.1431 13.0701 68.1722 13.0701C68.4137 13.0701 68.6551 13.0701 68.8914 13.0701C68.8914 12.2413 68.8914 11.5033 68.8914 10.7773C46.9276 10.7773 25.0186 10.7773 3.10443 10.7773C3.10443 11.5581 3.10443 12.2961 3.10443 13.0667C3.45032 13.0667 3.74483 13.0667 4.03935 13.0667C20.3765 13.0667 36.7119 13.0666 53.0491 13.0701C53.3864 13.0701 53.8059 13.0187 54.0422 13.1899C54.347 13.4125 54.6433 13.8184 54.6912 14.1779C54.758 14.6694 54.3813 15.017 53.8676 15.0975C53.6005 15.1403 53.3214 15.1231 53.0491 15.1231C37.7838 15.1248 22.5169 15.1231 7.25164 15.1231C6.96398 15.1231 6.67631 15.1231 6.3835 15.1231C6.3835 29.1281 6.3835 43.0406 6.3835 56.972C26.1487 56.9737 45.8694 56.9737 65.626 56.9737ZM45.1862 8.64889C45.0098 8.51019 44.9482 8.45026 44.8762 8.40745C42.0458 6.75336 39.2205 5.09242 36.3729 3.46573C36.164 3.34586 35.753 3.38354 35.5304 3.51196C32.7856 5.08557 30.0562 6.68829 27.3251 8.28588C27.1812 8.36978 27.0477 8.47081 26.7823 8.64889C32.9808 8.64889 39.0081 8.64889 45.1862 8.64889ZM55.8367 26.2412C55.597 26.2412 55.359 26.2412 55.1193 26.2412C51.1108 26.2412 47.1005 26.2069 43.092 26.2668C42.1383 26.2805 41.1092 26.4415 40.2547 26.8388C38.0989 27.8405 37.1623 29.6812 37.1674 32.0373C37.1743 35.3918 37.1743 38.7479 37.164 42.1023C37.1623 42.5783 37.1434 43.0697 37.027 43.5269C36.6195 45.1211 35.289 46.0286 33.4003 46.0303C27.1812 46.0355 20.9621 46.032 14.743 46.0338C14.4707 46.0338 14.1951 46.0303 13.9245 46.0646C13.392 46.1314 13.1112 46.4927 13.0786 46.9892C13.0444 47.4909 13.2978 47.8711 13.8098 48.0063C14.0273 48.0646 14.2584 48.0851 14.4844 48.0851C20.8166 48.0885 27.1504 48.1091 33.4825 48.0646C34.3678 48.0577 35.325 47.8813 36.1178 47.5081C38.2958 46.4807 39.2273 44.6194 39.2222 42.2444C39.2153 38.9123 39.2153 35.5801 39.2256 32.2479C39.2273 31.7719 39.2376 31.2805 39.3523 30.8233C39.7496 29.2463 41.0681 28.3131 42.8968 28.3079C47.0663 28.2959 51.234 28.3045 55.4035 28.3062C55.5525 28.3062 55.7015 28.3268 56.0148 28.349C55.7083 28.6042 55.5268 28.7617 55.3402 28.9124C54.5576 29.5408 53.7631 30.1521 52.996 30.7976C52.3162 31.3712 52.3693 32.3524 53.1244 32.5613C53.4926 32.664 54.0508 32.5356 54.3624 32.2993C56.0679 31.0031 57.7271 29.6469 59.3915 28.2994C60.2391 27.6127 60.2425 26.9706 59.3949 26.2823C57.7305 24.933 56.0542 23.5991 54.383 22.2583C54.3128 22.2018 54.2391 22.1453 54.1621 22.0974C53.6364 21.7703 53.0868 21.8303 52.7477 22.2515C52.4104 22.671 52.4532 23.2532 52.8813 23.671C53.1416 23.9244 53.4412 24.1384 53.7237 24.3679C54.4412 24.9467 55.1604 25.5254 55.8778 26.1042C55.8658 26.147 55.8521 26.1932 55.8367 26.2412ZM51.3933 50.2238C50.1553 51.4686 49.0286 52.597 47.907 53.7289C47.282 54.3607 46.544 54.722 45.6416 54.6347C44.5766 54.5302 43.7889 53.984 43.4019 52.9823C42.9978 51.9378 43.1776 50.9464 43.9567 50.1279C44.9482 49.0885 45.9738 48.0834 46.9961 47.0748C47.1724 46.9019 47.4036 46.7855 47.6741 46.5954C46.4088 45.3317 45.2444 44.2427 44.1759 43.068C43.7547 42.604 43.3917 41.979 43.2667 41.3728C43.0252 40.1999 43.628 39.1657 44.6416 38.6503C45.669 38.1297 46.8694 38.2804 47.7358 39.1229C48.9276 40.2821 50.0782 41.4824 51.282 42.7033C51.4721 42.5389 51.6279 42.4208 51.7649 42.2838C52.782 41.2701 53.782 40.2393 54.8128 39.2376C55.9891 38.0938 57.6638 38.0681 58.7237 39.1451C59.7887 40.229 59.7528 41.8146 58.5987 43.003C57.472 44.1622 56.3128 45.2889 55.0919 46.5046C55.9446 47.3488 56.7631 48.157 57.5799 48.9687C57.9514 49.3385 58.3316 49.7015 58.6877 50.0851C59.7391 51.2186 59.7511 52.7974 58.7288 53.8453C57.6963 54.9035 56.0508 54.9309 54.9224 53.8556C53.883 52.8659 52.8847 51.8316 51.8727 50.8111C51.7169 50.6536 51.5868 50.4618 51.3933 50.2238ZM45.8677 52.6758C46.1108 52.496 46.3454 52.3625 46.532 52.1792C47.8265 50.8967 49.1074 49.5988 50.4036 48.3163C51.0919 47.6348 51.5885 47.6399 52.2786 48.318C52.9943 49.02 53.6963 49.7358 54.4052 50.4447C55.0011 51.0406 55.5987 51.6364 56.1929 52.234C56.508 52.5508 56.8641 52.7922 57.2477 52.395C57.6329 51.9943 57.3607 51.6467 57.0473 51.3402C56.8675 51.1656 56.6929 50.9858 56.5165 50.8077C55.3898 49.6793 54.2563 48.556 53.1364 47.4207C52.4806 46.7546 52.4755 46.2581 53.1227 45.5937C53.9326 44.7615 54.7614 43.9465 55.5833 43.1228C56.0987 42.6074 56.6124 42.0903 57.1278 41.5749C57.4138 41.2889 57.5833 40.9568 57.2597 40.6194C56.9172 40.2616 56.561 40.4071 56.2494 40.7153C56.1364 40.8266 56.0234 40.9396 55.9104 41.0526C54.7511 42.2136 53.5936 43.3763 52.4327 44.5355C51.5611 45.4071 51.1279 45.4088 50.2683 44.5492C49.0115 43.2924 47.7563 42.0338 46.5029 40.7735C46.1861 40.4551 45.8249 40.2205 45.4464 40.6092C45.0663 41.0013 45.3249 41.3591 45.6399 41.6674C45.7375 41.7633 45.8334 41.8591 45.931 41.9567C47.1382 43.1674 48.3505 44.3711 49.5508 45.5886C50.1998 46.2461 50.2032 46.7546 49.556 47.4122C48.4858 48.5012 47.3985 49.5731 46.3214 50.6553C46.0166 50.9618 45.6793 51.2477 45.4327 51.597C45.3129 51.7649 45.3026 52.0765 45.366 52.2854C45.4105 52.4344 45.6588 52.5234 45.8677 52.6758ZM22.8371 37.0852C17.445 37.0715 13.053 32.6743 13.0495 27.2891C13.0461 21.8902 17.5272 17.4193 22.8919 17.4656C28.2891 17.5118 32.6486 21.9227 32.6247 27.3114C32.6041 32.7274 28.224 37.1006 22.8371 37.0852ZM22.7703 35.0287C27.0014 35.1075 30.5134 31.6572 30.575 27.361C30.6367 23.1093 27.2086 19.5974 22.9261 19.5203C18.7207 19.445 15.1694 22.9347 15.1026 27.2052C15.0375 31.438 18.4793 34.9483 22.7703 35.0287Z" stroke="#2EACFC" stroke-width="2" mask="url(#path-1-outside-1_15_733)"/>
</svg>
