<svg width="70" height="70" viewBox="0 0 70 70" fill="none" xmlns="http://www.w3.org/2000/svg">
<path d="M58.6308 43.9767C58.6308 52.5633 51.67 48.9777 43.0834 48.9777C34.4968 48.9777 27.536 52.5633 27.536 43.9767C27.536 35.3901 34.4968 28.4293 43.0834 28.4293C51.67 28.4293 58.6308 35.3902 58.6308 43.9767Z" fill="#6D81D5"/>
<path d="M41.4488 49.0185C33.6299 49.3877 27.5363 52.0104 27.5363 43.9774C27.5363 39.5493 29.3881 35.554 32.3575 32.7213C37.5196 36.4179 41.0077 42.3088 41.4488 49.0185Z" fill="#5169CD"/>
<path d="M58.6308 43.9774C58.6308 49.4807 55.7713 49.9838 51.4561 49.6343C53.8871 49.3031 55.3627 47.9318 55.3627 43.9774C55.3627 35.943 49.2689 29.3319 41.4502 28.516C41.9871 28.4582 42.5311 28.43 43.0836 28.43C51.6703 28.4301 58.6308 35.3906 58.6308 43.9774Z" fill="#5169CD"/>
<path d="M57.8176 39.0012C57.7739 39.0026 57.7316 39.0026 57.688 39.0026C52.936 39.0026 48.715 36.6927 46.0853 33.1384C45.1326 33.4217 44.1264 33.5768 43.0835 33.5768C40.1282 33.5768 37.4534 32.3507 35.5437 30.3791C37.776 29.136 40.3466 28.43 43.0835 28.43C49.9298 28.4301 55.7432 32.8553 57.8176 39.0012Z" fill="#5169CD"/>
<path d="M43.0833 31.4631C47.7167 31.4631 51.4728 27.707 51.4728 23.0736C51.4728 18.4402 47.7167 14.6842 43.0833 14.6842C38.4499 14.6842 34.6938 18.4402 34.6938 23.0736C34.6938 27.707 38.4499 31.4631 43.0833 31.4631Z" fill="#8897DC"/>
<path d="M51.4731 23.0733C51.4731 27.08 48.6643 30.4299 44.9085 31.2628C43.8572 29.263 43.2625 26.9884 43.2625 24.5771C43.2625 21.1061 44.4942 17.9182 46.5433 15.428C49.4508 16.7456 51.4731 19.6727 51.4731 23.0733Z" fill="#6D81D5"/>
<path d="M39.3818 50.4613C39.3818 61.3363 30.5659 56.795 19.6909 56.795C8.8159 56.795 0 61.3363 0 50.4613C0 39.5863 8.8159 30.7704 19.6909 30.7704C30.5659 30.7704 39.3818 39.5863 39.3818 50.4613Z" fill="#64B9FC"/>
<path d="M28.7242 32.9624C26.4158 35.2863 23.2181 36.7266 19.6906 36.7266C16.1632 36.7266 12.9654 35.2849 10.6584 32.961C13.3642 31.5615 16.4351 30.7709 19.6906 30.7709C22.9462 30.7709 26.0184 31.5615 28.7242 32.9624Z" fill="#31A7FB"/>
<path d="M39.3813 50.4615C39.3813 57.1993 35.9961 58.0196 30.8339 57.6658C34.1091 57.3262 36.1145 55.6463 36.1145 50.4615C36.1145 40.1371 28.1675 31.6686 18.0573 30.8386C18.5956 30.7934 19.141 30.7709 19.6906 30.7709C30.5662 30.7709 39.3813 39.5861 39.3813 50.4615Z" fill="#31A7FB"/>
<path d="M19.6909 34.6127C25.5592 34.6127 30.3163 29.8556 30.3163 23.9873C30.3163 18.1191 25.5592 13.362 19.6909 13.362C13.8227 13.362 9.06555 18.1191 9.06555 23.9873C9.06555 29.8556 13.8227 34.6127 19.6909 34.6127Z" fill="#8DCAFC"/>
<path d="M30.3167 23.988C30.3167 29.8549 25.5589 34.6127 19.6906 34.6127C19.1269 34.6127 18.5744 34.5691 18.0347 34.4845C23.1166 33.6896 27.0048 29.2912 27.0048 23.988C27.0048 18.6835 23.1165 14.2849 18.0347 13.4902C18.5744 13.4056 19.1269 13.362 19.6906 13.362C25.559 13.362 30.3167 18.1198 30.3167 23.988Z" fill="#64B9FC"/>
<path d="M57.688 36.8886C64.4877 36.8886 70 31.3764 70 24.5767C70 17.777 64.4877 12.2648 57.688 12.2648C50.8883 12.2648 45.3761 17.777 45.3761 24.5767C45.3761 31.3764 50.8883 36.8886 57.688 36.8886Z" fill="#EC6264"/>
<path d="M69.9995 24.576C69.9995 31.3759 64.4878 36.8891 57.688 36.8891C57.0327 36.8891 56.3899 36.8383 55.7628 36.7383C61.6466 35.8151 66.148 30.7206 66.148 24.576C66.148 18.433 61.6466 13.3383 55.7628 12.4152C56.3899 12.3151 57.0327 12.2644 57.688 12.2644C64.4877 12.2644 69.9995 17.7776 69.9995 24.576Z" fill="#E64649"/>
<path d="M60.0131 28.9923H58.7444V19.1047C58.7444 18.5213 58.2715 18.0484 57.6881 18.0484H56.0847C55.5013 18.0484 55.0284 18.5213 55.0284 19.1047C55.0284 19.688 55.5013 20.1609 56.0847 20.1609H56.6318V28.9923H55.3631C54.7797 28.9923 54.3068 29.4652 54.3068 30.0486C54.3068 30.632 54.7797 31.1049 55.3631 31.1049H60.0133C60.5967 31.1049 61.0696 30.632 61.0696 30.0486C61.0696 29.4653 60.5965 28.9923 60.0131 28.9923Z" fill="#EFF5F6"/>
</svg>
