<svg width="50" height="50" viewBox="0 0 50 50" fill="none" xmlns="http://www.w3.org/2000/svg">
<circle cx="25" cy="25" r="25" fill="#4EA0EC"/>
<path d="M31.3438 21.75C31.3646 21.8333 31.375 21.9688 31.375 22.1562C31.375 23.2604 31.1667 24.3646 30.75 25.4688C30.3333 26.5521 29.7396 27.5521 28.9688 28.4688C28.2188 29.3646 27.2396 30.0938 26.0312 30.6562C24.8229 31.2188 23.4896 31.5 22.0312 31.5C20.1979 31.5 18.5208 31.0104 17 30.0312C17.2292 30.0521 17.4896 30.0625 17.7812 30.0625C19.3021 30.0625 20.6667 29.5938 21.875 28.6562C21.1458 28.6562 20.5 28.4479 19.9375 28.0312C19.3958 27.5938 19.0208 27.0521 18.8125 26.4062C19.0208 26.4271 19.2188 26.4375 19.4062 26.4375C19.6979 26.4375 19.9896 26.4062 20.2812 26.3438C19.5312 26.1771 18.9062 25.7917 18.4062 25.1875C17.9062 24.5833 17.6562 23.8958 17.6562 23.125V23.0625C18.1146 23.3333 18.6042 23.4792 19.125 23.5C18.1458 22.8333 17.6562 21.9167 17.6562 20.75C17.6562 20.1667 17.8125 19.6146 18.125 19.0938C18.9375 20.1146 19.9271 20.9271 21.0938 21.5312C22.2812 22.1354 23.5417 22.4688 24.875 22.5312C24.8333 22.2812 24.8125 22.0312 24.8125 21.7812C24.8125 20.8854 25.125 20.1146 25.75 19.4688C26.3958 18.8229 27.1667 18.5 28.0625 18.5C29.0208 18.5 29.8229 18.8438 30.4688 19.5312C31.2188 19.3854 31.9167 19.125 32.5625 18.75C32.3125 19.5208 31.8333 20.125 31.125 20.5625C31.75 20.4792 32.375 20.3021 33 20.0312C32.5417 20.6979 31.9896 21.2708 31.3438 21.75Z" fill="white"/>
</svg>
